<svg width="66" height="70" viewBox="0 0 66 70" fill="none" xmlns="http://www.w3.org/2000/svg">
<path d="M5.14426 65.6038L5.76342 64.8185L5.76342 64.8185L5.14426 65.6038ZM4.18426 43.6198L4.94997 44.263L4.18426 43.6198ZM13.7843 34.5958L14.3887 35.3925L14.3927 35.3894L13.7843 34.5958ZM16.6643 32.3878L17.2727 33.1814L18.0155 32.6119L17.4963 31.8331L16.6643 32.3878ZM15.7043 30.9478L14.8722 31.5025L14.8722 31.5025L15.7043 30.9478ZM12.0563 23.8438L11.115 24.1816L11.1179 24.1895L12.0563 23.8438ZM12.7283 8.38777L11.852 7.90583L11.8478 7.91367L12.7283 8.38777ZM18.2003 2.43576L17.6681 1.58913L17.6681 1.58913L18.2003 2.43576ZM33.8483 3.87577L33.0612 4.49265L33.0705 4.50444L33.08 4.51595L33.8483 3.87577ZM33.5603 21.5398L32.7739 20.9219L32.7693 20.9278L32.7648 20.9337L33.5603 21.5398ZM24.8243 30.0838L24.2012 29.3016L23.4636 29.8892L24.0069 30.6599L24.8243 30.0838ZM41.3363 53.5078L40.5189 54.0839L41.2857 55.1717L42.1171 54.1325L41.3363 53.5078ZM41.7203 53.0278L40.9447 52.3965L40.9394 52.4031L41.7203 53.0278ZM47.2883 44.0998L48.1968 44.5177L48.1968 44.5177L47.2883 44.0998ZM48.3443 33.7318L47.6372 34.4389L47.6525 34.4542L47.6685 34.4689L48.3443 33.7318ZM41.4323 32.6758H40.4323V33.6758H41.4323V32.6758ZM41.4323 29.6038V28.6038H40.4323V29.6038H41.4323ZM65.2403 29.6038H66.2403V28.6038H65.2403V29.6038ZM65.2403 32.6758V33.6758H66.2403V32.6758H65.2403ZM57.6563 33.6358L57.2263 32.7329L57.2177 32.737L57.2091 32.7413L57.6563 33.6358ZM54.0083 38.1478L54.905 38.5904L54.9075 38.5852L54.0083 38.1478ZM47.9603 49.4758L47.1086 48.9517L47.1048 48.958L47.9603 49.4758ZM43.2563 56.1958L42.4801 55.5652L41.9995 56.1568L42.4425 56.777L43.2563 56.1958ZM48.9203 63.1078L48.2284 63.8298L48.2357 63.8368L48.2432 63.8437L48.9203 63.1078ZM62.9363 58.0198L63.3835 57.1253L62.4675 56.6674L62.0314 57.594L62.9363 58.0198ZM64.4723 58.7878L65.3784 59.2107L65.7901 58.3286L64.9195 57.8933L64.4723 58.7878ZM59.4803 66.3718L58.7413 65.698L58.7403 65.6991L59.4803 66.3718ZM37.7843 61.7638L38.5317 61.0994L37.8713 60.3565L37.1245 61.0123L37.7843 61.7638ZM28.9523 67.4278L29.355 68.3431L29.3634 68.3394L28.9523 67.4278ZM22.9043 27.2998L22.1116 27.9095L22.7201 28.7005L23.5123 28.0936L22.9043 27.2998ZM30.2963 20.2918L29.5297 19.6495L29.5246 19.6557L29.5195 19.662L30.2963 20.2918ZM31.0643 5.69977L30.3153 6.36234L30.3153 6.36234L31.0643 5.69977ZM19.2563 6.27576L20.0347 6.90352L20.0395 6.8975L20.0443 6.89141L19.2563 6.27576ZM18.4883 20.3878L17.5938 20.835L17.5938 20.835L18.4883 20.3878ZM21.9443 26.0518L21.1481 26.6569L21.1516 26.6615L21.9443 26.0518ZM35.7683 59.4598L36.4522 60.1893L37.1195 59.5637L36.5558 58.8435L35.7683 59.4598ZM34.0403 57.2518L33.2199 57.8236L33.2357 57.8463L33.2528 57.8681L34.0403 57.2518ZM18.5843 35.0758L19.4047 34.504L18.7938 33.6275L17.9596 34.2949L18.5843 35.0758ZM17.6243 35.8438L18.2439 36.6287L18.249 36.6246L17.6243 35.8438ZM11.6723 42.8518L12.5405 43.3479L12.5455 43.3391L11.6723 42.8518ZM11.0003 60.7078L10.1171 61.1769L10.126 61.1936L10.1355 61.2099L11.0003 60.7078ZM15.1283 65.2198L14.5892 66.062L14.6086 66.0744L14.6285 66.086L15.1283 65.2198ZM18.8723 68.5398C13.1898 68.5398 8.85928 67.2595 5.76342 64.8185L4.52511 66.389C8.08524 69.1961 12.9067 70.5398 18.8723 70.5398V68.5398ZM5.76342 64.8185C2.72967 62.4265 1.15226 58.8452 1.15226 53.8918H-0.847738C-0.847738 59.3063 0.902851 63.533 4.52511 66.389L5.76342 64.8185ZM1.15226 53.8918C1.15226 50.5129 2.38998 47.3106 4.94997 44.263L3.41856 42.9766C0.602544 46.329 -0.847738 49.9746 -0.847738 53.8918H1.15226ZM4.94997 44.263C7.58497 41.1261 10.7293 38.1685 14.3886 35.3925L13.1799 33.7991C9.41524 36.655 6.15956 39.7135 3.41856 42.9766L4.94997 44.263ZM14.3927 35.3894L17.2727 33.1814L16.0558 31.5942L13.1758 33.8022L14.3927 35.3894ZM17.4963 31.8331L16.5363 30.3931L14.8722 31.5025L15.8322 32.9425L17.4963 31.8331ZM16.5363 30.3931C15.0409 28.1499 13.8617 25.8516 12.9946 23.4981L11.1179 24.1895C12.0428 26.6999 13.2957 29.1376 14.8722 31.5025L16.5363 30.3931ZM12.9975 23.5059C12.1308 21.0917 11.7123 18.9034 11.7123 16.9318H9.71226C9.71226 19.1841 10.1897 21.6038 11.1151 24.1816L12.9975 23.5059ZM11.7123 16.9318C11.7123 13.8756 12.3528 11.1942 13.6087 8.86187L11.8478 7.91367C10.4157 10.5733 9.71226 13.5879 9.71226 16.9318H11.7123ZM13.6045 8.86968C14.9394 6.44263 16.6508 4.59084 18.7324 3.2824L17.6681 1.58913C15.2697 3.09668 13.3332 5.2129 11.852 7.90585L13.6045 8.86968ZM18.7324 3.2824C20.8144 1.97372 23.0622 1.32377 25.4963 1.32377V-0.676233C22.6823 -0.676233 20.0661 0.0818058 17.6681 1.58913L18.7324 3.2824ZM25.4963 1.32377C28.9804 1.32377 31.4389 2.42277 33.0612 4.49265L34.6353 3.25888C32.5457 0.592765 29.4362 -0.676233 25.4963 -0.676233V1.32377ZM33.08 4.51595C34.8398 6.62766 35.7283 9.1488 35.7283 12.1318H37.7283C37.7283 8.71473 36.6967 5.73187 34.6165 3.23558L33.08 4.51595ZM35.7283 12.1318C35.7283 15.5034 34.7405 18.4191 32.7739 20.9219L34.3466 22.1576C36.6041 19.2844 37.7283 15.9282 37.7283 12.1318H35.7283ZM32.7648 20.9337C30.7831 23.5348 27.9377 26.325 24.2012 29.3016L25.4473 30.8659C29.2628 27.8265 32.2415 24.9207 34.3557 22.1458L32.7648 20.9337ZM24.0069 30.6599L40.5189 54.0839L42.1536 52.9316L25.6416 29.5076L24.0069 30.6599ZM42.1171 54.1325L42.5011 53.6525L40.9394 52.4031L40.5554 52.8831L42.1171 54.1325ZM42.4958 53.659C44.7885 50.8423 46.6893 47.7947 48.1968 44.5177L46.3798 43.6819C44.9432 46.8049 43.132 49.7093 40.9447 52.3965L42.4958 53.659ZM48.1968 44.5177C49.6845 41.2835 50.4963 38.5941 50.4963 36.5158H48.4963C48.4963 38.1494 47.8361 40.516 46.3798 43.6819L48.1968 44.5177ZM50.4963 36.5158C50.4963 35.1164 50.0177 33.9092 49.02 32.9946L47.6685 34.4689C48.2068 34.9623 48.4963 35.6111 48.4963 36.5158H50.4963ZM49.0514 33.0247C48.1539 32.1272 47.033 31.6758 45.7523 31.6758V33.6758C46.5195 33.6758 47.1266 33.9283 47.6372 34.4389L49.0514 33.0247ZM45.7523 31.6758H41.4323V33.6758H45.7523V31.6758ZM42.4323 32.6758V29.6038H40.4323V32.6758H42.4323ZM41.4323 30.6038H65.2403V28.6038H41.4323V30.6038ZM64.2403 29.6038V32.6758H66.2403V29.6038H64.2403ZM65.2403 31.6758H62.2643V33.6758H65.2403V31.6758ZM62.2643 31.6758C60.4114 31.6758 58.7246 32.0194 57.2263 32.7329L58.0862 34.5386C59.2759 33.9721 60.6612 33.6758 62.2643 33.6758V31.6758ZM57.2091 32.7413C55.625 33.5334 54.2867 35.2895 53.109 37.7103L54.9075 38.5852C56.0338 36.27 57.1276 35.0181 58.1035 34.5302L57.2091 32.7413ZM53.1116 37.7051C50.6192 42.7537 48.6197 46.4962 47.1086 48.9517L48.8119 49.9999C50.3729 47.4633 52.4053 43.6539 54.9049 38.5904L53.1116 37.7051ZM47.1048 48.958C45.6548 51.3536 44.113 53.5555 42.4801 55.5652L44.0324 56.8264C45.7275 54.74 47.3217 52.462 48.8158 49.9936L47.1048 48.958ZM42.4425 56.777C44.6947 59.93 46.6251 62.2933 48.2284 63.8298L49.6122 62.3858C48.1434 60.9782 46.2979 58.7336 44.07 55.6145L42.4425 56.777ZM48.2432 63.8437C49.9512 65.4151 51.7499 66.3158 53.6243 66.3158V64.3158C52.4266 64.3158 51.0893 63.7444 49.5973 62.3718L48.2432 63.8437ZM53.6243 66.3158C56.1905 66.3158 58.3461 65.5816 59.9787 64.0231L58.5978 62.5764C57.4145 63.7059 55.794 64.3158 53.6243 64.3158V66.3158ZM59.9787 64.0231C61.4942 62.5766 62.7765 60.7077 63.8411 58.4456L62.0314 57.594C61.048 59.6838 59.8983 61.335 58.5978 62.5764L59.9787 64.0231ZM62.489 58.9142L64.0251 59.6822L64.9195 57.8933L63.3835 57.1253L62.489 58.9142ZM63.5661 58.3649C62.2614 61.1605 60.652 63.6024 58.7413 65.698L60.2192 67.0455C62.2765 64.7891 63.9951 62.175 65.3784 59.2107L63.5661 58.3649ZM58.7403 65.6991C57.0492 67.5593 54.6549 68.5398 51.4163 68.5398V70.5398C55.0896 70.5398 58.0713 69.4082 60.2202 67.0444L58.7403 65.6991ZM51.4163 68.5398C47.3474 68.5398 43.0533 66.1862 38.5317 61.0994L37.0369 62.4281C41.7312 67.7093 46.5252 70.5398 51.4163 70.5398V68.5398ZM37.1245 61.0123C34.5768 63.2493 31.7171 65.0839 28.5412 66.5162L29.3634 68.3394C32.7154 66.8276 35.7437 64.8863 38.4441 62.5152L37.1245 61.0123ZM28.5495 66.5125C25.4773 67.8642 22.2546 68.5398 18.8723 68.5398V70.5398C22.53 70.5398 26.0272 69.8073 29.355 68.3431L28.5495 66.5125ZM23.5123 28.0936C26.5684 25.7528 29.0932 23.3634 31.073 20.9216L29.5195 19.662C27.6593 21.9562 25.2561 24.2387 22.2962 26.5059L23.5123 28.0936ZM31.0628 20.934C33.2156 18.3644 34.2723 15.2169 34.2723 11.5558H32.2723C32.2723 14.8066 31.3449 17.4831 29.5297 19.6495L31.0628 20.934ZM34.2723 11.5558C34.2723 9.0739 33.4485 6.88567 31.8133 5.03719L30.3153 6.36234C31.6241 7.84185 32.2723 9.55763 32.2723 11.5558H34.2723ZM31.8133 5.03719C30.156 3.16377 28.0615 2.20376 25.5923 2.20376V4.20376C27.475 4.20376 29.0285 4.90776 30.3153 6.36234L31.8133 5.03719ZM25.5923 2.20376C22.6639 2.20376 20.2599 3.36681 18.4682 5.66012L20.0443 6.89141C21.4526 5.08872 23.2726 4.20376 25.5923 4.20376V2.20376ZM18.4779 5.64801C16.701 7.8513 15.8563 10.683 15.8563 14.0518H17.8563C17.8563 11.0205 18.6115 8.66823 20.0347 6.90352L18.4779 5.64801ZM15.8563 14.0518C15.8563 16.2816 16.4494 18.546 17.5938 20.835L19.3827 19.9406C18.3512 17.8775 17.8563 15.9179 17.8563 14.0518H15.8563ZM17.5938 20.835C18.704 23.0554 19.8877 24.9984 21.1481 26.6568L22.7404 25.4467C21.5689 23.9052 20.4485 22.0722 19.3827 19.9406L17.5938 20.835ZM21.1516 26.6615L22.1116 27.9095L23.6969 26.6901L22.7369 25.4421L21.1516 26.6615ZM20.0243 67.6598C25.7244 67.6598 31.2052 65.1084 36.4522 60.1893L35.0843 58.7302C30.0913 63.4112 25.0762 65.6598 20.0243 65.6598V67.6598ZM36.5558 58.8435L34.8278 56.6355L33.2528 57.8681L34.9808 60.0761L36.5558 58.8435ZM34.8607 56.68L19.4047 34.504L17.7639 35.6476L33.2199 57.8236L34.8607 56.68ZM17.9596 34.2949L16.9996 35.0629L18.249 36.6246L19.209 35.8566L17.9596 34.2949ZM17.0046 35.0589C14.4676 37.0618 12.3981 39.4995 10.7991 42.3644L12.5455 43.3391C14.0185 40.7 15.917 38.4657 18.2439 36.6286L17.0046 35.0589ZM10.804 42.3556C9.15699 45.2379 8.36826 48.8474 8.36826 53.1238H10.3683C10.3683 49.0802 11.1155 45.8416 12.5405 43.3479L10.804 42.3556ZM8.36826 53.1238C8.36826 56.2482 8.93298 58.9479 10.1171 61.1769L11.8834 60.2386C10.8915 58.3716 10.3683 56.0153 10.3683 53.1238H8.36826ZM10.1355 61.2099C11.351 63.3033 12.83 64.9361 14.5892 66.062L15.6673 64.3775C14.2265 63.4554 12.9535 62.0802 11.8651 60.2056L10.1355 61.2099ZM14.6285 66.086C16.414 67.116 18.2167 67.6598 20.0243 67.6598V65.6598C18.6318 65.6598 17.1705 65.2435 15.628 64.3536L14.6285 66.086Z" fill="white"/>
</svg>
