<svg width="64" height="106" viewBox="0 0 64 106" fill="none" xmlns="http://www.w3.org/2000/svg">
<path d="M2.00176 105.333H1.00176V106.333H2.00176V105.333ZM5.15176 88.9833L4.21975 88.6208L5.15176 88.9833ZM19.2518 71.5833L19.8991 72.3455L19.9012 72.3436L19.2518 71.5833ZM33.6518 59.2833L33.0132 58.5137L33.0077 58.5182L33.0023 58.5229L33.6518 59.2833ZM44.3018 46.3833L43.4189 45.9136L43.415 45.921L43.4112 45.9285L44.3018 46.3833ZM42.3518 12.1832L41.6024 12.8455L41.6102 12.8542L42.3518 12.1832ZM16.8518 7.98324L16.4045 7.08873L16.3923 7.09503L16.8518 7.98324ZM9.65176 13.9832L8.85558 13.3782L8.85176 13.3832L9.65176 13.9832ZM8.60176 26.8833L7.8646 27.559L7.87929 27.575L7.89465 27.5904L8.60176 26.8833ZM13.1018 28.9833L12.9458 29.971L12.9474 29.9713L13.1018 28.9833ZM20.1518 32.2832L19.4019 32.9449L19.4226 32.9683L19.4447 32.9904L20.1518 32.2832ZM20.4518 42.9333L19.7713 42.2005L19.7577 42.2131L19.7447 42.2261L20.4518 42.9333ZM4.70176 40.0832L3.9278 40.7165L3.93259 40.7223L3.93747 40.7281L4.70176 40.0832ZM4.40176 13.3832L3.55725 12.8477L3.55254 12.8551L3.54796 12.8626L4.40176 13.3832ZM15.0518 3.78325L14.6045 2.88878L14.5966 2.89281L15.0518 3.78325ZM47.6018 3.93324L48.0276 3.02842L48.0276 3.02842L47.6018 3.93324ZM59.6018 14.2832L60.4423 13.7415L60.4423 13.7415L59.6018 14.2832ZM57.5018 46.6832L56.7501 46.0237L56.7501 46.0237L57.5018 46.6832ZM40.5518 61.5332L39.9705 60.7195L39.9545 60.731L39.9389 60.743L40.5518 61.5332ZM25.8518 72.9333L26.42 73.7561L26.4427 73.7404L26.4646 73.7235L25.8518 72.9333ZM16.1018 81.3333L15.3405 80.6848L15.3384 80.6873L16.1018 81.3333ZM54.2018 90.4833L53.4747 89.7966L53.4736 89.7979L54.2018 90.4833ZM57.6518 82.9833L58.6346 83.1675L58.6348 83.1665L57.6518 82.9833ZM59.3018 74.1333V73.1333H58.471L58.3187 73.95L59.3018 74.1333ZM62.6018 74.1333L63.5995 74.2004L63.6713 73.1333H62.6018V74.1333ZM60.5018 105.333V106.333H61.4367L61.4995 105.4L60.5018 105.333ZM3.00176 105.333C3.00176 99.9638 4.02627 94.6364 6.08376 89.3457L4.21975 88.6208C2.07725 94.1301 1.00176 99.7027 1.00176 105.333H3.00176ZM6.08376 89.3457C8.09637 84.1704 12.6525 78.5001 19.8991 72.3454L18.6044 70.8211C11.251 77.0664 6.40715 82.9961 4.21975 88.6208L6.08376 89.3457ZM19.9012 72.3436L34.3012 60.0436L33.0023 58.5229L18.6023 70.8229L19.9012 72.3436ZM34.2903 60.0528C39.0786 56.0796 42.7216 51.6765 45.1924 46.838L43.4112 45.9285C41.0819 50.49 37.625 54.6869 33.0132 58.5137L34.2903 60.0528ZM45.1846 46.8529C47.7721 41.9884 49.0518 36.4229 49.0518 30.1832H47.0518C47.0518 36.1436 45.8314 41.3781 43.4189 45.9136L45.1846 46.8529ZM49.0518 30.1832C49.0518 22.2294 47.1135 15.9557 43.0933 11.5123L41.6102 12.8542C45.19 16.8108 47.0518 22.5371 47.0518 30.1832H49.0518ZM43.1011 11.521C39.0702 6.9598 33.3699 4.73325 26.1518 4.73325V6.73325C32.9336 6.73325 38.0333 8.8067 41.6024 12.8454L43.1011 11.521ZM26.1518 4.73325C22.789 4.73325 19.5365 5.52283 16.4045 7.08882L17.299 8.87767C20.167 7.44366 23.1145 6.73325 26.1518 6.73325V4.73325ZM16.3923 7.09503C13.3659 8.66045 10.849 10.7552 8.8556 13.3782L10.4479 14.5883C12.2545 12.2113 14.5377 10.306 17.3112 8.87146L16.3923 7.09503ZM8.85176 13.3832C6.94273 15.9286 5.95176 18.6346 5.95176 21.4832H7.95176C7.95176 19.1319 8.76079 16.8379 10.4518 14.5832L8.85176 13.3832ZM5.95176 21.4832C5.95176 24.0169 6.53054 26.1036 7.8646 27.559L9.33891 26.2075C8.47298 25.2629 7.95176 23.7496 7.95176 21.4832H5.95176ZM7.89465 27.5904C9.17636 28.8721 10.8871 29.646 12.9458 29.971L13.2577 27.9955C11.5164 27.7205 10.2272 27.0944 9.30886 26.1761L7.89465 27.5904ZM12.9474 29.9713C16.0138 30.4504 18.1106 31.4814 19.4019 32.9449L20.9016 31.6216C19.1929 29.6851 16.5897 28.5161 13.2561 27.9952L12.9474 29.9713ZM19.4447 32.9904C20.8537 34.3994 21.5518 36.0936 21.5518 38.1332H23.5518C23.5518 35.5729 22.6498 33.3671 20.8589 31.5761L19.4447 32.9904ZM21.5518 38.1332C21.5518 39.7534 20.9688 41.0885 19.7713 42.2005L21.1322 43.666C22.7347 42.178 23.5518 40.3131 23.5518 38.1332H21.5518ZM19.7447 42.2261C18.6844 43.2864 17.1209 43.8832 14.9018 43.8832V45.8832C17.4827 45.8832 19.6191 45.1801 21.1589 43.6404L19.7447 42.2261ZM14.9018 43.8832C11.1035 43.8832 7.98069 42.4187 5.46605 39.4384L3.93747 40.7281C6.82283 44.1478 10.5 45.8832 14.9018 45.8832V43.8832ZM5.47572 39.45C2.95466 36.3687 1.65176 32.3101 1.65176 27.1832H-0.348242C-0.348242 32.6564 1.04885 37.1978 3.9278 40.7165L5.47572 39.45ZM1.65176 27.1832C1.65176 22.255 2.85717 17.8372 5.25556 13.9039L3.54796 12.8626C0.946342 17.1293 -0.348242 21.9115 -0.348242 27.1832H1.65176ZM5.24627 13.9188C7.74651 9.9761 11.1592 6.8958 15.5069 4.67368L14.5966 2.89281C9.94427 5.27069 6.25701 8.59039 3.55725 12.8477L5.24627 13.9188ZM15.499 4.67767C19.9481 2.45312 24.893 1.33324 30.3518 1.33324V-0.666755C24.6106 -0.666755 19.3554 0.513368 14.6045 2.88882L15.499 4.67767ZM30.3518 1.33324C36.6245 1.33324 42.2261 2.50873 47.176 4.83806L48.0276 3.02842C42.7774 0.557758 36.879 -0.666755 30.3518 -0.666755V1.33324ZM47.176 4.83806C52.1158 7.1627 55.9682 10.491 58.7612 14.8249L60.4423 13.7415C57.4353 9.07554 53.2877 5.5038 48.0276 3.02842L47.176 4.83806ZM58.7612 14.8249C61.5431 19.1418 62.9518 24.2479 62.9518 30.1832H64.9518C64.9518 23.9186 63.4604 18.4247 60.4423 13.7415L58.7612 14.8249ZM62.9518 30.1832C62.9518 36.023 60.902 41.2925 56.7501 46.0237L58.2534 47.3428C62.7015 42.274 64.9518 36.5435 64.9518 30.1832H62.9518ZM56.7501 46.0237C52.514 50.8509 46.9266 55.7509 39.9705 60.7195L41.133 62.347C48.1769 57.3156 53.8896 52.3156 58.2534 47.3428L56.7501 46.0237ZM39.9389 60.743L25.2389 72.143L26.4646 73.7235L41.1646 62.3235L39.9389 60.743ZM25.2836 72.1104C21.0404 75.0402 17.7157 77.8965 15.3405 80.6848L16.863 81.9817C19.0878 79.37 22.2631 76.6263 26.42 73.7561L25.2836 72.1104ZM15.3384 80.6873C13.02 83.4272 11.8018 86.3485 11.8018 89.4333H13.8018C13.8018 86.918 14.7835 84.4393 16.8651 81.9792L15.3384 80.6873ZM11.8018 89.4333C11.8018 90.8656 12.2774 92.0919 13.3521 92.924C14.3782 93.7184 15.8005 94.0333 17.4518 94.0333V92.0333C16.003 92.0333 15.1003 91.7481 14.5764 91.3425C14.1012 90.9746 13.8018 90.4009 13.8018 89.4333H11.8018ZM17.4518 94.0333H45.8018V92.0333H17.4518V94.0333ZM45.8018 94.0333C49.8921 94.0333 53.0433 93.1731 54.93 91.1686L53.4736 89.7979C52.1602 91.1934 49.7115 92.0333 45.8018 92.0333V94.0333ZM54.9288 91.1699C56.796 89.1928 58.0102 86.4978 58.6346 83.1675L56.6689 82.799C56.0933 85.8687 55.0075 88.1737 53.4747 89.7966L54.9288 91.1699ZM58.6348 83.1665L60.2848 74.3165L58.3187 73.95L56.6687 82.8L58.6348 83.1665ZM59.3018 75.1333H62.6018V73.1333H59.3018V75.1333ZM61.604 74.0661L59.504 105.266L61.4995 105.4L63.5995 74.2004L61.604 74.0661ZM60.5018 104.333H2.00176V106.333H60.5018V104.333Z" fill="white"/>
</svg>
