<svg width="68" height="106" viewBox="0 0 68 106" fill="none" xmlns="http://www.w3.org/2000/svg">
<path d="M42.7802 105.69V106.69H43.7802V105.69H42.7802ZM42.7802 83.5459H43.7802V82.5459H42.7802V83.5459ZM22.0442 83.5459V82.5459H21.0442V83.5459H22.0442ZM22.0442 105.69H21.0442V106.69H22.0442V105.69ZM0.0282168 36.4419H-0.971783V37.4419H0.0282168V36.4419ZM18.7162 36.5699V37.5699H19.7162V36.5699H18.7162ZM23.3242 75.4819H22.3242V76.4819H23.3242V75.4819ZM41.5002 75.4819V76.4819H42.5002V75.4819H41.5002ZM43.7802 105.69V83.5459H41.7802V105.69H43.7802ZM42.7802 82.5459H22.0442V84.5459H42.7802V82.5459ZM21.0442 83.5459V105.69H23.0442V83.5459H21.0442ZM22.0442 106.69H42.7802V104.69H22.0442V106.69ZM33.8202 -0.910065C20.9664 -0.910065 12.2047 3.44236 6.68497 10.3962C1.1972 17.3098 -0.971783 26.6518 -0.971783 36.4419H1.02822C1.02822 26.9041 3.14723 18.0701 8.25146 11.6396C13.3237 5.24951 21.4581 1.08994 33.8202 1.08994V-0.910065ZM0.0282168 37.4419C3.41193 37.4419 5.03657 37.4738 7.34233 37.5058C9.65128 37.5379 12.6319 37.5699 18.7162 37.5699V35.5699C12.6405 35.5699 9.66915 35.538 7.3701 35.506C5.06787 35.4741 3.42851 35.4419 0.0282168 35.4419V37.4419ZM19.7162 36.5699C19.7162 29.8686 21.3448 25.6566 23.8594 23.113C26.3712 20.5721 29.9394 19.5219 34.2042 19.5219V17.5219C29.637 17.5219 25.4612 18.6478 22.4371 21.7069C19.4156 24.7633 17.7162 29.5753 17.7162 36.5699H19.7162ZM34.2042 19.5219C41.6483 19.5219 46.2602 23.8534 46.2602 29.0179H48.2602C48.2602 22.4065 42.3761 17.5219 34.2042 17.5219V19.5219ZM46.2602 29.0179C46.2602 32.726 44.8881 35.5257 42.7459 38.1472C40.5476 40.8372 37.6708 43.2033 34.5938 46.2063C31.5652 49.162 28.484 52.6172 26.1684 57.2834C23.8496 61.9562 22.3242 67.7904 22.3242 75.4819H24.3242C24.3242 68.0695 25.7908 62.5437 27.96 58.1725C30.1324 53.7946 33.0352 50.5219 35.9907 47.6376C38.8976 44.8006 42.0048 42.2146 44.2946 39.4127C46.6403 36.5422 48.2602 33.3099 48.2602 29.0179H46.2602ZM23.3242 76.4819C23.3442 76.4819 23.3642 76.4819 23.3842 76.4819C23.4042 76.4819 23.4241 76.4819 23.4441 76.4819C23.4641 76.4819 23.484 76.4819 23.504 76.4819C23.5239 76.4819 23.5439 76.4819 23.5638 76.4819C23.5837 76.4819 23.6036 76.4819 23.6236 76.4819C23.6435 76.4819 23.6634 76.4819 23.6833 76.4819C23.7032 76.4819 23.723 76.4819 23.7429 76.4819C23.7628 76.4819 23.7827 76.4819 23.8025 76.4819C23.8224 76.4819 23.8422 76.4819 23.8621 76.4819C23.8819 76.4819 23.9017 76.4819 23.9215 76.4819C23.9414 76.4819 23.9612 76.4819 23.981 76.4819C24.0008 76.4819 24.0206 76.4819 24.0403 76.4819C24.0601 76.4819 24.0799 76.4819 24.0997 76.4819C24.1194 76.4819 24.1392 76.4819 24.1589 76.4819C24.1787 76.4819 24.1984 76.4819 24.2181 76.4819C24.2379 76.4819 24.2576 76.4819 24.2773 76.4819C24.297 76.4819 24.3167 76.4819 24.3364 76.4819C24.3561 76.4819 24.3758 76.4819 24.3954 76.4819C24.4151 76.4819 24.4348 76.4819 24.4544 76.4819C24.4741 76.4819 24.4937 76.4819 24.5133 76.4819C24.533 76.4819 24.5526 76.4819 24.5722 76.4819C24.5918 76.4819 24.6114 76.4819 24.631 76.4819C24.6506 76.4819 24.6702 76.4819 24.6898 76.4819C24.7093 76.4819 24.7289 76.4819 24.7485 76.4819C24.768 76.4819 24.7875 76.4819 24.8071 76.4819C24.8266 76.4819 24.8461 76.4819 24.8657 76.4819C24.8852 76.4819 24.9047 76.4819 24.9242 76.4819C24.9437 76.4819 24.9632 76.4819 24.9826 76.4819C25.0021 76.4819 25.0216 76.4819 25.041 76.4819C25.0605 76.4819 25.0799 76.4819 25.0994 76.4819C25.1188 76.4819 25.1382 76.4819 25.1576 76.4819C25.177 76.4819 25.1964 76.4819 25.2158 76.4819C25.2352 76.4819 25.2546 76.4819 25.274 76.4819C25.2934 76.4819 25.3127 76.4819 25.3321 76.4819C25.3514 76.4819 25.3708 76.4819 25.3901 76.4819C25.4095 76.4819 25.4288 76.4819 25.4481 76.4819C25.4674 76.4819 25.4867 76.4819 25.506 76.4819C25.5253 76.4819 25.5446 76.4819 25.5638 76.4819C25.5831 76.4819 25.6024 76.4819 25.6216 76.4819C25.6409 76.4819 25.6601 76.4819 25.6793 76.4819C25.6986 76.4819 25.7178 76.4819 25.737 76.4819C25.7562 76.4819 25.7754 76.4819 25.7946 76.4819C25.8138 76.4819 25.833 76.4819 25.8521 76.4819C25.8713 76.4819 25.8905 76.4819 25.9096 76.4819C25.9287 76.4819 25.9479 76.4819 25.967 76.4819C25.9861 76.4819 26.0052 76.4819 26.0243 76.4819C26.0434 76.4819 26.0625 76.4819 26.0816 76.4819C26.1007 76.4819 26.1198 76.4819 26.1388 76.4819C26.1579 76.4819 26.1769 76.4819 26.196 76.4819C26.215 76.4819 26.234 76.4819 26.2531 76.4819C26.2721 76.4819 26.2911 76.4819 26.3101 76.4819C26.3291 76.4819 26.348 76.4819 26.367 76.4819C26.386 76.4819 26.405 76.4819 26.4239 76.4819C26.4429 76.4819 26.4618 76.4819 26.4807 76.4819C26.4997 76.4819 26.5186 76.4819 26.5375 76.4819C26.5564 76.4819 26.5753 76.4819 26.5942 76.4819C26.613 76.4819 26.6319 76.4819 26.6508 76.4819C26.6696 76.4819 26.6885 76.4819 26.7073 76.4819C26.7262 76.4819 26.745 76.4819 26.7638 76.4819C26.7826 76.4819 26.8014 76.4819 26.8202 76.4819C26.839 76.4819 26.8578 76.4819 26.8766 76.4819C26.8954 76.4819 26.9141 76.4819 26.9329 76.4819C26.9516 76.4819 26.9703 76.4819 26.9891 76.4819C27.0078 76.4819 27.0265 76.4819 27.0452 76.4819C27.0639 76.4819 27.0826 76.4819 27.1013 76.4819C27.12 76.4819 27.1386 76.4819 27.1573 76.4819C27.176 76.4819 27.1946 76.4819 27.2132 76.4819C27.2319 76.4819 27.2505 76.4819 27.2691 76.4819C27.2877 76.4819 27.3063 76.4819 27.3249 76.4819C27.3435 76.4819 27.3621 76.4819 27.3806 76.4819C27.3992 76.4819 27.4177 76.4819 27.4363 76.4819C27.4548 76.4819 27.4734 76.4819 27.4919 76.4819C27.5104 76.4819 27.5289 76.4819 27.5474 76.4819C27.5659 76.4819 27.5844 76.4819 27.6028 76.4819C27.6213 76.4819 27.6398 76.4819 27.6582 76.4819C27.6766 76.4819 27.6951 76.4819 27.7135 76.4819C27.7319 76.4819 27.7503 76.4819 27.7687 76.4819C27.7871 76.4819 27.8055 76.4819 27.8239 76.4819C27.8423 76.4819 27.8606 76.4819 27.879 76.4819C27.8973 76.4819 27.9157 76.4819 27.934 76.4819C27.9523 76.4819 27.9706 76.4819 27.9889 76.4819C28.0072 76.4819 28.0255 76.4819 28.0438 76.4819C28.0621 76.4819 28.0803 76.4819 28.0986 76.4819C28.1168 76.4819 28.1351 76.4819 28.1533 76.4819C28.1715 76.4819 28.1897 76.4819 28.2079 76.4819C28.2261 76.4819 28.2443 76.4819 28.2625 76.4819C28.2807 76.4819 28.2989 76.4819 28.317 76.4819C28.3352 76.4819 28.3533 76.4819 28.3714 76.4819C28.3896 76.4819 28.4077 76.4819 28.4258 76.4819C28.4439 76.4819 28.462 76.4819 28.4801 76.4819C28.4981 76.4819 28.5162 76.4819 28.5343 76.4819C28.5523 76.4819 28.5703 76.4819 28.5884 76.4819C28.6064 76.4819 28.6244 76.4819 28.6424 76.4819C28.6604 76.4819 28.6784 76.4819 28.6964 76.4819C28.7144 76.4819 28.7323 76.4819 28.7503 76.4819C28.7682 76.4819 28.7862 76.4819 28.8041 76.4819C28.822 76.4819 28.8399 76.4819 28.8578 76.4819C28.8757 76.4819 28.8936 76.4819 28.9115 76.4819C28.9294 76.4819 28.9472 76.4819 28.9651 76.4819C28.9829 76.4819 29.0008 76.4819 29.0186 76.4819C29.0364 76.4819 29.0542 76.4819 29.072 76.4819C29.0898 76.4819 29.1076 76.4819 29.1254 76.4819C29.1431 76.4819 29.1609 76.4819 29.1786 76.4819C29.1964 76.4819 29.2141 76.4819 29.2318 76.4819C29.2495 76.4819 29.2673 76.4819 29.2849 76.4819C29.3026 76.4819 29.3203 76.4819 29.338 76.4819C29.3556 76.4819 29.3733 76.4819 29.3909 76.4819C29.4086 76.4819 29.4262 76.4819 29.4438 76.4819C29.4614 76.4819 29.479 76.4819 29.4966 76.4819C29.5142 76.4819 29.5318 76.4819 29.5493 76.4819C29.5669 76.4819 29.5844 76.4819 29.602 76.4819C29.6195 76.4819 29.637 76.4819 29.6545 76.4819C29.672 76.4819 29.6895 76.4819 29.707 76.4819C29.7245 76.4819 29.7419 76.4819 29.7594 76.4819C29.7768 76.4819 29.7943 76.4819 29.8117 76.4819C29.8291 76.4819 29.8465 76.4819 29.8639 76.4819C29.8813 76.4819 29.8987 76.4819 29.9161 76.4819C29.9334 76.4819 29.9508 76.4819 29.9681 76.4819C29.9855 76.4819 30.0028 76.4819 30.0201 76.4819C30.0374 76.4819 30.0547 76.4819 30.072 76.4819C30.0893 76.4819 30.1066 76.4819 30.1238 76.4819C30.1411 76.4819 30.1583 76.4819 30.1756 76.4819C30.1928 76.4819 30.21 76.4819 30.2272 76.4819C30.2444 76.4819 30.2616 76.4819 30.2788 76.4819C30.296 76.4819 30.3131 76.4819 30.3303 76.4819C30.3474 76.4819 30.3646 76.4819 30.3817 76.4819C30.3988 76.4819 30.4159 76.4819 30.433 76.4819C30.4501 76.4819 30.4672 76.4819 30.4842 76.4819C30.5013 76.4819 30.5183 76.4819 30.5354 76.4819C30.5524 76.4819 30.5694 76.4819 30.5864 76.4819C30.6034 76.4819 30.6204 76.4819 30.6374 76.4819C30.6544 76.4819 30.6713 76.4819 30.6883 76.4819C30.7052 76.4819 30.7222 76.4819 30.7391 76.4819C30.756 76.4819 30.7729 76.4819 30.7898 76.4819C30.8067 76.4819 30.8236 76.4819 30.8404 76.4819C30.8573 76.4819 30.8741 76.4819 30.891 76.4819C30.9078 76.4819 30.9246 76.4819 30.9414 76.4819C30.9582 76.4819 30.975 76.4819 30.9918 76.4819C31.0086 76.4819 31.0253 76.4819 31.0421 76.4819C31.0588 76.4819 31.0756 76.4819 31.0923 76.4819C31.109 76.4819 31.1257 76.4819 31.1424 76.4819C31.1591 76.4819 31.1757 76.4819 31.1924 76.4819C31.2091 76.4819 31.2257 76.4819 31.2423 76.4819C31.259 76.4819 31.2756 76.4819 31.2922 76.4819C31.3088 76.4819 31.3254 76.4819 31.3419 76.4819C31.3585 76.4819 31.375 76.4819 31.3916 76.4819C31.4081 76.4819 31.4246 76.4819 31.4412 76.4819C31.4577 76.4819 31.4742 76.4819 31.4906 76.4819C31.5071 76.4819 31.5236 76.4819 31.54 76.4819C31.5565 76.4819 31.5729 76.4819 31.5893 76.4819C31.6058 76.4819 31.6222 76.4819 31.6385 76.4819C31.6549 76.4819 31.6713 76.4819 31.6877 76.4819C31.704 76.4819 31.7204 76.4819 31.7367 76.4819C31.753 76.4819 31.7693 76.4819 31.7856 76.4819C31.8019 76.4819 31.8182 76.4819 31.8345 76.4819C31.8508 76.4819 31.867 76.4819 31.8832 76.4819C31.8995 76.4819 31.9157 76.4819 31.9319 76.4819C31.9481 76.4819 31.9643 76.4819 31.9805 76.4819C31.9967 76.4819 32.0128 76.4819 32.029 76.4819C32.0451 76.4819 32.0612 76.4819 32.0773 76.4819C32.0935 76.4819 32.1096 76.4819 32.1256 76.4819C32.1417 76.4819 32.1578 76.4819 32.1738 76.4819C32.1899 76.4819 32.2059 76.4819 32.2219 76.4819C32.238 76.4819 32.254 76.4819 32.27 76.4819C32.2859 76.4819 32.3019 76.4819 32.3179 76.4819C32.3338 76.4819 32.3498 76.4819 32.3657 76.4819C32.3816 76.4819 32.3975 76.4819 32.4134 76.4819C32.4293 76.4819 32.4452 76.4819 32.4611 76.4819C32.4769 76.4819 32.4928 76.4819 32.5086 76.4819C32.5244 76.4819 32.5402 76.4819 32.556 76.4819C32.5718 76.4819 32.5876 76.4819 32.6034 76.4819C32.6192 76.4819 32.6349 76.4819 32.6507 76.4819C32.6664 76.4819 32.6821 76.4819 32.6978 76.4819C32.7135 76.4819 32.7292 76.4819 32.7449 76.4819C32.7605 76.4819 32.7762 76.4819 32.7918 76.4819C32.8075 76.4819 32.8231 76.4819 32.8387 76.4819C32.8543 76.4819 32.8699 76.4819 32.8855 76.4819C32.901 76.4819 32.9166 76.4819 32.9321 76.4819C32.9477 76.4819 32.9632 76.4819 32.9787 76.4819C32.9942 76.4819 33.0097 76.4819 33.0252 76.4819C33.0407 76.4819 33.0561 76.4819 33.0716 76.4819C33.087 76.4819 33.1025 76.4819 33.1179 76.4819C33.1333 76.4819 33.1487 76.4819 33.164 76.4819C33.1794 76.4819 33.1948 76.4819 33.2101 76.4819C33.2255 76.4819 33.2408 76.4819 33.2561 76.4819C33.2714 76.4819 33.2867 76.4819 33.302 76.4819C33.3173 76.4819 33.3325 76.4819 33.3478 76.4819C33.363 76.4819 33.3783 76.4819 33.3935 76.4819C33.4087 76.4819 33.4239 76.4819 33.4391 76.4819C33.4542 76.4819 33.4694 76.4819 33.4845 76.4819C33.4997 76.4819 33.5148 76.4819 33.5299 76.4819C33.545 76.4819 33.5601 76.4819 33.5752 76.4819C33.5903 76.4819 33.6054 76.4819 33.6204 76.4819C33.6354 76.4819 33.6505 76.4819 33.6655 76.4819C33.6805 76.4819 33.6955 76.4819 33.7105 76.4819C33.7254 76.4819 33.7404 76.4819 33.7553 76.4819C33.7703 76.4819 33.7852 76.4819 33.8001 76.4819C33.815 76.4819 33.8299 76.4819 33.8448 76.4819C33.8597 76.4819 33.8745 76.4819 33.8894 76.4819C33.9042 76.4819 33.919 76.4819 33.9338 76.4819C33.9486 76.4819 33.9634 76.4819 33.9782 76.4819C33.993 76.4819 34.0077 76.4819 34.0225 76.4819C34.0372 76.4819 34.0519 76.4819 34.0666 76.4819C34.0813 76.4819 34.096 76.4819 34.1107 76.4819C34.1253 76.4819 34.14 76.4819 34.1546 76.4819C34.1693 76.4819 34.1839 76.4819 34.1985 76.4819C34.2131 76.4819 34.2277 76.4819 34.2422 76.4819C34.2568 76.4819 34.2713 76.4819 34.2859 76.4819C34.3004 76.4819 34.3149 76.4819 34.3294 76.4819C34.3439 76.4819 34.3584 76.4819 34.3728 76.4819C34.3873 76.4819 34.4017 76.4819 34.4161 76.4819C34.4306 76.4819 34.445 76.4819 34.4594 76.4819C34.4737 76.4819 34.4881 76.4819 34.5025 76.4819C34.5168 76.4819 34.5312 76.4819 34.5455 76.4819C34.5598 76.4819 34.5741 76.4819 34.5884 76.4819C34.6026 76.4819 34.6169 76.4819 34.6312 76.4819C34.6454 76.4819 34.6596 76.4819 34.6738 76.4819C34.688 76.4819 34.7022 76.4819 34.7164 76.4819C34.7306 76.4819 34.7447 76.4819 34.7589 76.4819C34.773 76.4819 34.7871 76.4819 34.8012 76.4819C34.8153 76.4819 34.8294 76.4819 34.8435 76.4819C34.8576 76.4819 34.8716 76.4819 34.8856 76.4819C34.8997 76.4819 34.9137 76.4819 34.9277 76.4819C34.9417 76.4819 34.9556 76.4819 34.9696 76.4819C34.9836 76.4819 34.9975 76.4819 35.0114 76.4819C35.0253 76.4819 35.0392 76.4819 35.0531 76.4819C35.067 76.4819 35.0809 76.4819 35.0947 76.4819C35.1086 76.4819 35.1224 76.4819 35.1362 76.4819C35.15 76.4819 35.1638 76.4819 35.1776 76.4819C35.1914 76.4819 35.2051 76.4819 35.2188 76.4819C35.2326 76.4819 35.2463 76.4819 35.26 76.4819C35.2737 76.4819 35.2874 76.4819 35.301 76.4819C35.3147 76.4819 35.3284 76.4819 35.342 76.4819C35.3556 76.4819 35.3692 76.4819 35.3828 76.4819C35.3964 76.4819 35.41 76.4819 35.4235 76.4819C35.4371 76.4819 35.4506 76.4819 35.4641 76.4819C35.4776 76.4819 35.4911 76.4819 35.5046 76.4819C35.5181 76.4819 35.5315 76.4819 35.545 76.4819C35.5584 76.4819 35.5718 76.4819 35.5852 76.4819C35.5986 76.4819 35.612 76.4819 35.6254 76.4819C35.6388 76.4819 35.6521 76.4819 35.6654 76.4819C35.6788 76.4819 35.6921 76.4819 35.7053 76.4819C35.7186 76.4819 35.7319 76.4819 35.7452 76.4819C35.7584 76.4819 35.7716 76.4819 35.7849 76.4819C35.7981 76.4819 35.8113 76.4819 35.8244 76.4819C35.8376 76.4819 35.8508 76.4819 35.8639 76.4819C35.877 76.4819 35.8902 76.4819 35.9033 76.4819C35.9164 76.4819 35.9294 76.4819 35.9425 76.4819C35.9555 76.4819 35.9686 76.4819 35.9816 76.4819C35.9946 76.4819 36.0076 76.4819 36.0206 76.4819C36.0336 76.4819 36.0466 76.4819 36.0595 76.4819C36.0725 76.4819 36.0854 76.4819 36.0983 76.4819C36.1112 76.4819 36.1241 76.4819 36.1369 76.4819C36.1498 76.4819 36.1627 76.4819 36.1755 76.4819C36.1883 76.4819 36.2011 76.4819 36.2139 76.4819C36.2267 76.4819 36.2395 76.4819 36.2522 76.4819C36.265 76.4819 36.2777 76.4819 36.2904 76.4819C36.3031 76.4819 36.3158 76.4819 36.3285 76.4819C36.3412 76.4819 36.3538 76.4819 36.3664 76.4819C36.3791 76.4819 36.3917 76.4819 36.4043 76.4819C36.4169 76.4819 36.4294 76.4819 36.442 76.4819C36.4546 76.4819 36.4671 76.4819 36.4796 76.4819C36.4921 76.4819 36.5046 76.4819 36.5171 76.4819C36.5296 76.4819 36.542 76.4819 36.5544 76.4819C36.5669 76.4819 36.5793 76.4819 36.5917 76.4819C36.6041 76.4819 36.6165 76.4819 36.6288 76.4819C36.6412 76.4819 36.6535 76.4819 36.6658 76.4819C36.6781 76.4819 36.6904 76.4819 36.7027 76.4819C36.715 76.4819 36.7272 76.4819 36.7395 76.4819C36.7517 76.4819 36.7639 76.4819 36.7761 76.4819C36.7883 76.4819 36.8005 76.4819 36.8126 76.4819C36.8248 76.4819 36.8369 76.4819 36.849 76.4819C36.8612 76.4819 36.8733 76.4819 36.8853 76.4819C36.8974 76.4819 36.9095 76.4819 36.9215 76.4819C36.9335 76.4819 36.9455 76.4819 36.9575 76.4819C36.9695 76.4819 36.9815 76.4819 36.9934 76.4819C37.0054 76.4819 37.0173 76.4819 37.0292 76.4819C37.0411 76.4819 37.053 76.4819 37.0649 76.4819C37.0768 76.4819 37.0886 76.4819 37.1005 76.4819C37.1123 76.4819 37.1241 76.4819 37.1359 76.4819C37.1477 76.4819 37.1594 76.4819 37.1712 76.4819C37.1829 76.4819 37.1947 76.4819 37.2064 76.4819C37.2181 76.4819 37.2298 76.4819 37.2414 76.4819C37.2531 76.4819 37.2647 76.4819 37.2764 76.4819C37.288 76.4819 37.2996 76.4819 37.3112 76.4819C37.3228 76.4819 37.3343 76.4819 37.3458 76.4819C37.3574 76.4819 37.3689 76.4819 37.3804 76.4819C37.3919 76.4819 37.4034 76.4819 37.4148 76.4819C37.4263 76.4819 37.4377 76.4819 37.4492 76.4819C37.4606 76.4819 37.472 76.4819 37.4833 76.4819C37.4947 76.4819 37.5061 76.4819 37.5174 76.4819C37.5287 76.4819 37.54 76.4819 37.5513 76.4819C37.5626 76.4819 37.5739 76.4819 37.5851 76.4819C37.5964 76.4819 37.6076 76.4819 37.6188 76.4819C37.63 76.4819 37.6412 76.4819 37.6524 76.4819C37.6635 76.4819 37.6747 76.4819 37.6858 76.4819C37.6969 76.4819 37.708 76.4819 37.7191 76.4819C37.7302 76.4819 37.7412 76.4819 37.7523 76.4819C37.7633 76.4819 37.7743 76.4819 37.7853 76.4819C37.7963 76.4819 37.8073 76.4819 37.8182 76.4819C37.8292 76.4819 37.8401 76.4819 37.851 76.4819C37.8619 76.4819 37.8728 76.4819 37.8836 76.4819C37.8945 76.4819 37.9054 76.4819 37.9162 76.4819C37.927 76.4819 37.9378 76.4819 37.9486 76.4819C37.9594 76.4819 37.9701 76.4819 37.9808 76.4819C37.9916 76.4819 38.0023 76.4819 38.013 76.4819C38.0237 76.4819 38.0344 76.4819 38.045 76.4819C38.0556 76.4819 38.0663 76.4819 38.0769 76.4819C38.0875 76.4819 38.0981 76.4819 38.1086 76.4819C38.1192 76.4819 38.1297 76.4819 38.1403 76.4819C38.1508 76.4819 38.1613 76.4819 38.1717 76.4819C38.1822 76.4819 38.1927 76.4819 38.2031 76.4819C38.2135 76.4819 38.2239 76.4819 38.2343 76.4819C38.2447 76.4819 38.2551 76.4819 38.2654 76.4819C38.2758 76.4819 38.2861 76.4819 38.2964 76.4819C38.3067 76.4819 38.317 76.4819 38.3272 76.4819C38.3375 76.4819 38.3477 76.4819 38.3579 76.4819C38.3681 76.4819 38.3783 76.4819 38.3885 76.4819C38.3986 76.4819 38.4088 76.4819 38.4189 76.4819C38.429 76.4819 38.4391 76.4819 38.4492 76.4819C38.4593 76.4819 38.4694 76.4819 38.4794 76.4819C38.4894 76.4819 38.4994 76.4819 38.5094 76.4819C38.5194 76.4819 38.5294 76.4819 38.5393 76.4819C38.5493 76.4819 38.5592 76.4819 38.5691 76.4819C38.579 76.4819 38.5889 76.4819 38.5987 76.4819C38.6086 76.4819 38.6184 76.4819 38.6282 76.4819C38.638 76.4819 38.6478 76.4819 38.6576 76.4819C38.6673 76.4819 38.6771 76.4819 38.6868 76.4819C38.6965 76.4819 38.7062 76.4819 38.7159 76.4819C38.7256 76.4819 38.7352 76.4819 38.7449 76.4819C38.7545 76.4819 38.7641 76.4819 38.7737 76.4819C38.7833 76.4819 38.7928 76.4819 38.8024 76.4819C38.8119 76.4819 38.8214 76.4819 38.8309 76.4819C38.8404 76.4819 38.8499 76.4819 38.8593 76.4819C38.8688 76.4819 38.8782 76.4819 38.8876 76.4819C38.897 76.4819 38.9064 76.4819 38.9157 76.4819C38.9251 76.4819 38.9344 76.4819 38.9437 76.4819C38.953 76.4819 38.9623 76.4819 38.9716 76.4819C38.9809 76.4819 38.9901 76.4819 38.9993 76.4819C39.0085 76.4819 39.0177 76.4819 39.0269 76.4819C39.0361 76.4819 39.0452 76.4819 39.0544 76.4819C39.0635 76.4819 39.0726 76.4819 39.0817 76.4819C39.0907 76.4819 39.0998 76.4819 39.1088 76.4819C39.1179 76.4819 39.1269 76.4819 39.1359 76.4819C39.1449 76.4819 39.1538 76.4819 39.1628 76.4819C39.1717 76.4819 39.1806 76.4819 39.1895 76.4819C39.1984 76.4819 39.2073 76.4819 39.2161 76.4819C39.225 76.4819 39.2338 76.4819 39.2426 76.4819C39.2514 76.4819 39.2602 76.4819 39.2689 76.4819C39.2777 76.4819 39.2864 76.4819 39.2951 76.4819C39.3038 76.4819 39.3125 76.4819 39.3212 76.4819C39.3298 76.4819 39.3385 76.4819 39.3471 76.4819C39.3557 76.4819 39.3643 76.4819 39.3729 76.4819C39.3814 76.4819 39.39 76.4819 39.3985 76.4819C39.407 76.4819 39.4155 76.4819 39.424 76.4819C39.4324 76.4819 39.4409 76.4819 39.4493 76.4819C39.4577 76.4819 39.4661 76.4819 39.4745 76.4819C39.4829 76.4819 39.4912 76.4819 39.4996 76.4819C39.5079 76.4819 39.5162 76.4819 39.5245 76.4819C39.5328 76.4819 39.541 76.4819 39.5493 76.4819C39.5575 76.4819 39.5657 76.4819 39.5739 76.4819C39.5821 76.4819 39.5902 76.4819 39.5984 76.4819C39.6065 76.4819 39.6146 76.4819 39.6227 76.4819C39.6308 76.4819 39.6389 76.4819 39.6469 76.4819C39.655 76.4819 39.663 76.4819 39.671 76.4819C39.679 76.4819 39.6869 76.4819 39.6949 76.4819C39.7028 76.4819 39.7107 76.4819 39.7186 76.4819C39.7265 76.4819 39.7344 76.4819 39.7423 76.4819C39.7501 76.4819 39.7579 76.4819 39.7657 76.4819C39.7735 76.4819 39.7813 76.4819 39.7891 76.4819C39.7968 76.4819 39.8045 76.4819 39.8122 76.4819C39.82 76.4819 39.8276 76.4819 39.8353 76.4819C39.8429 76.4819 39.8506 76.4819 39.8582 76.4819C39.8658 76.4819 39.8734 76.4819 39.8809 76.4819C39.8885 76.4819 39.896 76.4819 39.9035 76.4819C39.911 76.4819 39.9185 76.4819 39.926 76.4819C39.9334 76.4819 39.9408 76.4819 39.9483 76.4819C39.9557 76.4819 39.9631 76.4819 39.9704 76.4819C39.9778 76.4819 39.9851 76.4819 39.9924 76.4819C39.9997 76.4819 40.007 76.4819 40.0143 76.4819C40.0215 76.4819 40.0288 76.4819 40.036 76.4819C40.0432 76.4819 40.0504 76.4819 40.0575 76.4819C40.0647 76.4819 40.0718 76.4819 40.079 76.4819C40.0861 76.4819 40.0932 76.4819 40.1002 76.4819C40.1073 76.4819 40.1143 76.4819 40.1213 76.4819C40.1283 76.4819 40.1353 76.4819 40.1423 76.4819C40.1493 76.4819 40.1562 76.4819 40.1631 76.4819C40.17 76.4819 40.1769 76.4819 40.1838 76.4819C40.1906 76.4819 40.1975 76.4819 40.2043 76.4819C40.2111 76.4819 40.2179 76.4819 40.2246 76.4819C40.2314 76.4819 40.2381 76.4819 40.2449 76.4819C40.2516 76.4819 40.2583 76.4819 40.2649 76.4819C40.2716 76.4819 40.2782 76.4819 40.2848 76.4819C40.2914 76.4819 40.298 76.4819 40.3046 76.4819C40.3111 76.4819 40.3177 76.4819 40.3242 76.4819C40.3307 76.4819 40.3372 76.4819 40.3436 76.4819C40.3501 76.4819 40.3565 76.4819 40.3629 76.4819C40.3693 76.4819 40.3757 76.4819 40.3821 76.4819C40.3884 76.4819 40.3948 76.4819 40.4011 76.4819C40.4074 76.4819 40.4137 76.4819 40.4199 76.4819C40.4262 76.4819 40.4324 76.4819 40.4386 76.4819C40.4448 76.4819 40.451 76.4819 40.4571 76.4819C40.4633 76.4819 40.4694 76.4819 40.4755 76.4819C40.4816 76.4819 40.4877 76.4819 40.4937 76.4819C40.4998 76.4819 40.5058 76.4819 40.5118 76.4819C40.5178 76.4819 40.5238 76.4819 40.5297 76.4819C40.5357 76.4819 40.5416 76.4819 40.5475 76.4819C40.5534 76.4819 40.5593 76.4819 40.5651 76.4819C40.5709 76.4819 40.5768 76.4819 40.5826 76.4819C40.5883 76.4819 40.5941 76.4819 40.5999 76.4819C40.6056 76.4819 40.6113 76.4819 40.617 76.4819C40.6227 76.4819 40.6283 76.4819 40.634 76.4819C40.6396 76.4819 40.6452 76.4819 40.6508 76.4819C40.6564 76.4819 40.6619 76.4819 40.6675 76.4819C40.673 76.4819 40.6785 76.4819 40.684 76.4819C40.6895 76.4819 40.6949 76.4819 40.7003 76.4819C40.7058 76.4819 40.7112 76.4819 40.7165 76.4819C40.7219 76.4819 40.7273 76.4819 40.7326 76.4819C40.7379 76.4819 40.7432 76.4819 40.7485 76.4819C40.7537 76.4819 40.759 76.4819 40.7642 76.4819C40.7694 76.4819 40.7746 76.4819 40.7798 76.4819C40.7849 76.4819 40.7901 76.4819 40.7952 76.4819C40.8003 76.4819 40.8054 76.4819 40.8104 76.4819C40.8155 76.4819 40.8205 76.4819 40.8255 76.4819C40.8305 76.4819 40.8355 76.4819 40.8404 76.4819C40.8454 76.4819 40.8503 76.4819 40.8552 76.4819C40.8601 76.4819 40.865 76.4819 40.8698 76.4819C40.8747 76.4819 40.8795 76.4819 40.8843 76.4819C40.889 76.4819 40.8938 76.4819 40.8985 76.4819C40.9033 76.4819 40.908 76.4819 40.9127 76.4819C40.9174 76.4819 40.922 76.4819 40.9266 76.4819C40.9313 76.4819 40.9359 76.4819 40.9405 76.4819C40.945 76.4819 40.9496 76.4819 40.9541 76.4819C40.9586 76.4819 40.9631 76.4819 40.9676 76.4819C40.972 76.4819 40.9765 76.4819 40.9809 76.4819C40.9853 76.4819 40.9897 76.4819 40.9941 76.4819C40.9984 76.4819 41.0028 76.4819 41.0071 76.4819C41.0114 76.4819 41.0156 76.4819 41.0199 76.4819C41.0241 76.4819 41.0284 76.4819 41.0326 76.4819C41.0368 76.4819 41.0409 76.4819 41.0451 76.4819C41.0492 76.4819 41.0533 76.4819 41.0574 76.4819C41.0615 76.4819 41.0656 76.4819 41.0696 76.4819C41.0736 76.4819 41.0776 76.4819 41.0816 76.4819C41.0856 76.4819 41.0895 76.4819 41.0935 76.4819C41.0974 76.4819 41.1013 76.4819 41.1051 76.4819C41.109 76.4819 41.1129 76.4819 41.1167 76.4819C41.1205 76.4819 41.1243 76.4819 41.128 76.4819C41.1318 76.4819 41.1355 76.4819 41.1392 76.4819C41.1429 76.4819 41.1466 76.4819 41.1502 76.4819C41.1539 76.4819 41.1575 76.4819 41.1611 76.4819C41.1647 76.4819 41.1683 76.4819 41.1718 76.4819C41.1753 76.4819 41.1788 76.4819 41.1823 76.4819C41.1858 76.4819 41.1893 76.4819 41.1927 76.4819C41.1961 76.4819 41.1995 76.4819 41.2029 76.4819C41.2063 76.4819 41.2096 76.4819 41.2129 76.4819C41.2162 76.4819 41.2195 76.4819 41.2228 76.4819C41.226 76.4819 41.2293 76.4819 41.2325 76.4819C41.2357 76.4819 41.2388 76.4819 41.242 76.4819C41.2451 76.4819 41.2483 76.4819 41.2514 76.4819C41.2544 76.4819 41.2575 76.4819 41.2605 76.4819C41.2636 76.4819 41.2666 76.4819 41.2696 76.4819C41.2725 76.4819 41.2755 76.4819 41.2784 76.4819C41.2813 76.4819 41.2842 76.4819 41.2871 76.4819C41.29 76.4819 41.2928 76.4819 41.2956 76.4819C41.2984 76.4819 41.3012 76.4819 41.304 76.4819C41.3067 76.4819 41.3094 76.4819 41.3121 76.4819C41.3148 76.4819 41.3175 76.4819 41.3201 76.4819C41.3228 76.4819 41.3254 76.4819 41.328 76.4819C41.3305 76.4819 41.3331 76.4819 41.3356 76.4819C41.3382 76.4819 41.3406 76.4819 41.3431 76.4819C41.3456 76.4819 41.348 76.4819 41.3504 76.4819C41.3529 76.4819 41.3552 76.4819 41.3576 76.4819C41.3599 76.4819 41.3623 76.4819 41.3646 76.4819C41.3669 76.4819 41.3691 76.4819 41.3714 76.4819C41.3736 76.4819 41.3758 76.4819 41.378 76.4819C41.3802 76.4819 41.3823 76.4819 41.3845 76.4819C41.3866 76.4819 41.3887 76.4819 41.3908 76.4819C41.3928 76.4819 41.3949 76.4819 41.3969 76.4819C41.3989 76.4819 41.4009 76.4819 41.4028 76.4819C41.4048 76.4819 41.4067 76.4819 41.4086 76.4819C41.4105 76.4819 41.4124 76.4819 41.4142 76.4819C41.416 76.4819 41.4178 76.4819 41.4196 76.4819C41.4214 76.4819 41.4231 76.4819 41.4249 76.4819C41.4266 76.4819 41.4283 76.4819 41.4299 76.4819C41.4316 76.4819 41.4332 76.4819 41.4348 76.4819C41.4364 76.4819 41.438 76.4819 41.4396 76.4819C41.4411 76.4819 41.4426 76.4819 41.4441 76.4819C41.4456 76.4819 41.4471 76.4819 41.4485 76.4819C41.4499 76.4819 41.4513 76.4819 41.4527 76.4819C41.4541 76.4819 41.4554 76.4819 41.4567 76.4819C41.458 76.4819 41.4593 76.4819 41.4606 76.4819C41.4618 76.4819 41.463 76.4819 41.4642 76.4819C41.4654 76.4819 41.4666 76.4819 41.4677 76.4819C41.4689 76.4819 41.47 76.4819 41.471 76.4819C41.4721 76.4819 41.4732 76.4819 41.4742 76.4819C41.4752 76.4819 41.4762 76.4819 41.4771 76.4819C41.4781 76.4819 41.479 76.4819 41.4799 76.4819C41.4808 76.4819 41.4817 76.4819 41.4825 76.4819C41.4834 76.4819 41.4842 76.4819 41.485 76.4819C41.4857 76.4819 41.4865 76.4819 41.4872 76.4819C41.4879 76.4819 41.4886 76.4819 41.4893 76.4819C41.4899 76.4819 41.4906 76.4819 41.4912 76.4819C41.4918 76.4819 41.4924 76.4819 41.4929 76.4819C41.4934 76.4819 41.4939 76.4819 41.4944 76.4819C41.4949 76.4819 41.4954 76.4819 41.4958 76.4819C41.4962 76.4819 41.4966 76.4819 41.497 76.4819C41.4973 76.4819 41.4977 76.4819 41.498 76.4819C41.4983 76.4819 41.4985 76.4819 41.4988 76.4819C41.499 76.4819 41.4992 76.4819 41.4994 76.4819C41.4996 76.4819 41.4997 76.4819 41.4999 76.4819C41.5 76.4819 41.5001 76.4819 41.5001 76.4819C41.5002 76.4819 41.5002 76.4819 41.5002 75.4819C41.5002 74.4819 41.5002 74.4819 41.5001 74.4819C41.5001 74.4819 41.5 74.4819 41.4999 74.4819C41.4997 74.4819 41.4996 74.4819 41.4994 74.4819C41.4992 74.4819 41.499 74.4819 41.4988 74.4819C41.4985 74.4819 41.4983 74.4819 41.498 74.4819C41.4977 74.4819 41.4973 74.4819 41.497 74.4819C41.4966 74.4819 41.4962 74.4819 41.4958 74.4819C41.4954 74.4819 41.4949 74.4819 41.4944 74.4819C41.4939 74.4819 41.4934 74.4819 41.4929 74.4819C41.4924 74.4819 41.4918 74.4819 41.4912 74.4819C41.4906 74.4819 41.4899 74.4819 41.4893 74.4819C41.4886 74.4819 41.4879 74.4819 41.4872 74.4819C41.4865 74.4819 41.4857 74.4819 41.485 74.4819C41.4842 74.4819 41.4834 74.4819 41.4825 74.4819C41.4817 74.4819 41.4808 74.4819 41.4799 74.4819C41.479 74.4819 41.4781 74.4819 41.4771 74.4819C41.4762 74.4819 41.4752 74.4819 41.4742 74.4819C41.4732 74.4819 41.4721 74.4819 41.471 74.4819C41.47 74.4819 41.4689 74.4819 41.4677 74.4819C41.4666 74.4819 41.4654 74.4819 41.4642 74.4819C41.463 74.4819 41.4618 74.4819 41.4606 74.4819C41.4593 74.4819 41.458 74.4819 41.4567 74.4819C41.4554 74.4819 41.4541 74.4819 41.4527 74.4819C41.4513 74.4819 41.4499 74.4819 41.4485 74.4819C41.4471 74.4819 41.4456 74.4819 41.4441 74.4819C41.4426 74.4819 41.4411 74.4819 41.4396 74.4819C41.438 74.4819 41.4364 74.4819 41.4348 74.4819C41.4332 74.4819 41.4316 74.4819 41.4299 74.4819C41.4283 74.4819 41.4266 74.4819 41.4249 74.4819C41.4231 74.4819 41.4214 74.4819 41.4196 74.4819C41.4178 74.4819 41.416 74.4819 41.4142 74.4819C41.4124 74.4819 41.4105 74.4819 41.4086 74.4819C41.4067 74.4819 41.4048 74.4819 41.4028 74.4819C41.4009 74.4819 41.3989 74.4819 41.3969 74.4819C41.3949 74.4819 41.3928 74.4819 41.3908 74.4819C41.3887 74.4819 41.3866 74.4819 41.3845 74.4819C41.3823 74.4819 41.3802 74.4819 41.378 74.4819C41.3758 74.4819 41.3736 74.4819 41.3714 74.4819C41.3691 74.4819 41.3669 74.4819 41.3646 74.4819C41.3623 74.4819 41.3599 74.4819 41.3576 74.4819C41.3552 74.4819 41.3529 74.4819 41.3504 74.4819C41.348 74.4819 41.3456 74.4819 41.3431 74.4819C41.3406 74.4819 41.3382 74.4819 41.3356 74.4819C41.3331 74.4819 41.3305 74.4819 41.328 74.4819C41.3254 74.4819 41.3228 74.4819 41.3201 74.4819C41.3175 74.4819 41.3148 74.4819 41.3121 74.4819C41.3094 74.4819 41.3067 74.4819 41.304 74.4819C41.3012 74.4819 41.2984 74.4819 41.2956 74.4819C41.2928 74.4819 41.29 74.4819 41.2871 74.4819C41.2842 74.4819 41.2813 74.4819 41.2784 74.4819C41.2755 74.4819 41.2725 74.4819 41.2696 74.4819C41.2666 74.4819 41.2636 74.4819 41.2605 74.4819C41.2575 74.4819 41.2544 74.4819 41.2514 74.4819C41.2483 74.4819 41.2451 74.4819 41.242 74.4819C41.2388 74.4819 41.2357 74.4819 41.2325 74.4819C41.2293 74.4819 41.226 74.4819 41.2228 74.4819C41.2195 74.4819 41.2162 74.4819 41.2129 74.4819C41.2096 74.4819 41.2063 74.4819 41.2029 74.4819C41.1995 74.4819 41.1961 74.4819 41.1927 74.4819C41.1893 74.4819 41.1858 74.4819 41.1823 74.4819C41.1788 74.4819 41.1753 74.4819 41.1718 74.4819C41.1683 74.4819 41.1647 74.4819 41.1611 74.4819C41.1575 74.4819 41.1539 74.4819 41.1502 74.4819C41.1466 74.4819 41.1429 74.4819 41.1392 74.4819C41.1355 74.4819 41.1318 74.4819 41.128 74.4819C41.1243 74.4819 41.1205 74.4819 41.1167 74.4819C41.1129 74.4819 41.109 74.4819 41.1051 74.4819C41.1013 74.4819 41.0974 74.4819 41.0935 74.4819C41.0895 74.4819 41.0856 74.4819 41.0816 74.4819C41.0776 74.4819 41.0736 74.4819 41.0696 74.4819C41.0656 74.4819 41.0615 74.4819 41.0574 74.4819C41.0533 74.4819 41.0492 74.4819 41.0451 74.4819C41.0409 74.4819 41.0368 74.4819 41.0326 74.4819C41.0284 74.4819 41.0241 74.4819 41.0199 74.4819C41.0156 74.4819 41.0114 74.4819 41.0071 74.4819C41.0028 74.4819 40.9984 74.4819 40.9941 74.4819C40.9897 74.4819 40.9853 74.4819 40.9809 74.4819C40.9765 74.4819 40.972 74.4819 40.9676 74.4819C40.9631 74.4819 40.9586 74.4819 40.9541 74.4819C40.9496 74.4819 40.945 74.4819 40.9405 74.4819C40.9359 74.4819 40.9313 74.4819 40.9266 74.4819C40.922 74.4819 40.9174 74.4819 40.9127 74.4819C40.908 74.4819 40.9033 74.4819 40.8985 74.4819C40.8938 74.4819 40.889 74.4819 40.8843 74.4819C40.8795 74.4819 40.8747 74.4819 40.8698 74.4819C40.865 74.4819 40.8601 74.4819 40.8552 74.4819C40.8503 74.4819 40.8454 74.4819 40.8404 74.4819C40.8355 74.4819 40.8305 74.4819 40.8255 74.4819C40.8205 74.4819 40.8155 74.4819 40.8104 74.4819C40.8054 74.4819 40.8003 74.4819 40.7952 74.4819C40.7901 74.4819 40.7849 74.4819 40.7798 74.4819C40.7746 74.4819 40.7694 74.4819 40.7642 74.4819C40.759 74.4819 40.7537 74.4819 40.7485 74.4819C40.7432 74.4819 40.7379 74.4819 40.7326 74.4819C40.7273 74.4819 40.7219 74.4819 40.7165 74.4819C40.7112 74.4819 40.7058 74.4819 40.7003 74.4819C40.6949 74.4819 40.6895 74.4819 40.684 74.4819C40.6785 74.4819 40.673 74.4819 40.6675 74.4819C40.6619 74.4819 40.6564 74.4819 40.6508 74.4819C40.6452 74.4819 40.6396 74.4819 40.634 74.4819C40.6283 74.4819 40.6227 74.4819 40.617 74.4819C40.6113 74.4819 40.6056 74.4819 40.5999 74.4819C40.5941 74.4819 40.5883 74.4819 40.5826 74.4819C40.5768 74.4819 40.5709 74.4819 40.5651 74.4819C40.5593 74.4819 40.5534 74.4819 40.5475 74.4819C40.5416 74.4819 40.5357 74.4819 40.5297 74.4819C40.5238 74.4819 40.5178 74.4819 40.5118 74.4819C40.5058 74.4819 40.4998 74.4819 40.4937 74.4819C40.4877 74.4819 40.4816 74.4819 40.4755 74.4819C40.4694 74.4819 40.4633 74.4819 40.4571 74.4819C40.451 74.4819 40.4448 74.4819 40.4386 74.4819C40.4324 74.4819 40.4262 74.4819 40.4199 74.4819C40.4137 74.4819 40.4074 74.4819 40.4011 74.4819C40.3948 74.4819 40.3884 74.4819 40.3821 74.4819C40.3757 74.4819 40.3693 74.4819 40.3629 74.4819C40.3565 74.4819 40.3501 74.4819 40.3436 74.4819C40.3372 74.4819 40.3307 74.4819 40.3242 74.4819C40.3177 74.4819 40.3111 74.4819 40.3046 74.4819C40.298 74.4819 40.2914 74.4819 40.2848 74.4819C40.2782 74.4819 40.2716 74.4819 40.2649 74.4819C40.2583 74.4819 40.2516 74.4819 40.2449 74.4819C40.2381 74.4819 40.2314 74.4819 40.2246 74.4819C40.2179 74.4819 40.2111 74.4819 40.2043 74.4819C40.1975 74.4819 40.1906 74.4819 40.1838 74.4819C40.1769 74.4819 40.17 74.4819 40.1631 74.4819C40.1562 74.4819 40.1493 74.4819 40.1423 74.4819C40.1353 74.4819 40.1283 74.4819 40.1213 74.4819C40.1143 74.4819 40.1073 74.4819 40.1002 74.4819C40.0932 74.4819 40.0861 74.4819 40.079 74.4819C40.0718 74.4819 40.0647 74.4819 40.0575 74.4819C40.0504 74.4819 40.0432 74.4819 40.036 74.4819C40.0288 74.4819 40.0215 74.4819 40.0143 74.4819C40.007 74.4819 39.9997 74.4819 39.9924 74.4819C39.9851 74.4819 39.9778 74.4819 39.9704 74.4819C39.9631 74.4819 39.9557 74.4819 39.9483 74.4819C39.9408 74.4819 39.9334 74.4819 39.926 74.4819C39.9185 74.4819 39.911 74.4819 39.9035 74.4819C39.896 74.4819 39.8885 74.4819 39.8809 74.4819C39.8734 74.4819 39.8658 74.4819 39.8582 74.4819C39.8506 74.4819 39.8429 74.4819 39.8353 74.4819C39.8276 74.4819 39.82 74.4819 39.8122 74.4819C39.8045 74.4819 39.7968 74.4819 39.7891 74.4819C39.7813 74.4819 39.7735 74.4819 39.7657 74.4819C39.7579 74.4819 39.7501 74.4819 39.7423 74.4819C39.7344 74.4819 39.7265 74.4819 39.7186 74.4819C39.7107 74.4819 39.7028 74.4819 39.6949 74.4819C39.6869 74.4819 39.679 74.4819 39.671 74.4819C39.663 74.4819 39.655 74.4819 39.6469 74.4819C39.6389 74.4819 39.6308 74.4819 39.6227 74.4819C39.6146 74.4819 39.6065 74.4819 39.5984 74.4819C39.5902 74.4819 39.5821 74.4819 39.5739 74.4819C39.5657 74.4819 39.5575 74.4819 39.5493 74.4819C39.541 74.4819 39.5328 74.4819 39.5245 74.4819C39.5162 74.4819 39.5079 74.4819 39.4996 74.4819C39.4912 74.4819 39.4829 74.4819 39.4745 74.4819C39.4661 74.4819 39.4577 74.4819 39.4493 74.4819C39.4409 74.4819 39.4324 74.4819 39.424 74.4819C39.4155 74.4819 39.407 74.4819 39.3985 74.4819C39.39 74.4819 39.3814 74.4819 39.3729 74.4819C39.3643 74.4819 39.3557 74.4819 39.3471 74.4819C39.3385 74.4819 39.3298 74.4819 39.3212 74.4819C39.3125 74.4819 39.3038 74.4819 39.2951 74.4819C39.2864 74.4819 39.2777 74.4819 39.2689 74.4819C39.2602 74.4819 39.2514 74.4819 39.2426 74.4819C39.2338 74.4819 39.225 74.4819 39.2161 74.4819C39.2073 74.4819 39.1984 74.4819 39.1895 74.4819C39.1806 74.4819 39.1717 74.4819 39.1628 74.4819C39.1538 74.4819 39.1449 74.4819 39.1359 74.4819C39.1269 74.4819 39.1179 74.4819 39.1088 74.4819C39.0998 74.4819 39.0907 74.4819 39.0817 74.4819C39.0726 74.4819 39.0635 74.4819 39.0544 74.4819C39.0452 74.4819 39.0361 74.4819 39.0269 74.4819C39.0177 74.4819 39.0085 74.4819 38.9993 74.4819C38.9901 74.4819 38.9809 74.4819 38.9716 74.4819C38.9623 74.4819 38.953 74.4819 38.9437 74.4819C38.9344 74.4819 38.9251 74.4819 38.9157 74.4819C38.9064 74.4819 38.897 74.4819 38.8876 74.4819C38.8782 74.4819 38.8688 74.4819 38.8593 74.4819C38.8499 74.4819 38.8404 74.4819 38.8309 74.4819C38.8214 74.4819 38.8119 74.4819 38.8024 74.4819C38.7928 74.4819 38.7833 74.4819 38.7737 74.4819C38.7641 74.4819 38.7545 74.4819 38.7449 74.4819C38.7352 74.4819 38.7256 74.4819 38.7159 74.4819C38.7062 74.4819 38.6965 74.4819 38.6868 74.4819C38.6771 74.4819 38.6673 74.4819 38.6576 74.4819C38.6478 74.4819 38.638 74.4819 38.6282 74.4819C38.6184 74.4819 38.6086 74.4819 38.5987 74.4819C38.5889 74.4819 38.579 74.4819 38.5691 74.4819C38.5592 74.4819 38.5493 74.4819 38.5393 74.4819C38.5294 74.4819 38.5194 74.4819 38.5094 74.4819C38.4994 74.4819 38.4894 74.4819 38.4794 74.4819C38.4694 74.4819 38.4593 74.4819 38.4492 74.4819C38.4391 74.4819 38.429 74.4819 38.4189 74.4819C38.4088 74.4819 38.3986 74.4819 38.3885 74.4819C38.3783 74.4819 38.3681 74.4819 38.3579 74.4819C38.3477 74.4819 38.3375 74.4819 38.3272 74.4819C38.317 74.4819 38.3067 74.4819 38.2964 74.4819C38.2861 74.4819 38.2758 74.4819 38.2654 74.4819C38.2551 74.4819 38.2447 74.4819 38.2343 74.4819C38.2239 74.4819 38.2135 74.4819 38.2031 74.4819C38.1927 74.4819 38.1822 74.4819 38.1717 74.4819C38.1613 74.4819 38.1508 74.4819 38.1403 74.4819C38.1297 74.4819 38.1192 74.4819 38.1086 74.4819C38.0981 74.4819 38.0875 74.4819 38.0769 74.4819C38.0663 74.4819 38.0556 74.4819 38.045 74.4819C38.0344 74.4819 38.0237 74.4819 38.013 74.4819C38.0023 74.4819 37.9916 74.4819 37.9808 74.4819C37.9701 74.4819 37.9594 74.4819 37.9486 74.4819C37.9378 74.4819 37.927 74.4819 37.9162 74.4819C37.9054 74.4819 37.8945 74.4819 37.8836 74.4819C37.8728 74.4819 37.8619 74.4819 37.851 74.4819C37.8401 74.4819 37.8292 74.4819 37.8182 74.4819C37.8073 74.4819 37.7963 74.4819 37.7853 74.4819C37.7743 74.4819 37.7633 74.4819 37.7523 74.4819C37.7412 74.4819 37.7302 74.4819 37.7191 74.4819C37.708 74.4819 37.6969 74.4819 37.6858 74.4819C37.6747 74.4819 37.6635 74.4819 37.6524 74.4819C37.6412 74.4819 37.63 74.4819 37.6188 74.4819C37.6076 74.4819 37.5964 74.4819 37.5851 74.4819C37.5739 74.4819 37.5626 74.4819 37.5513 74.4819C37.54 74.4819 37.5287 74.4819 37.5174 74.4819C37.5061 74.4819 37.4947 74.4819 37.4833 74.4819C37.472 74.4819 37.4606 74.4819 37.4492 74.4819C37.4377 74.4819 37.4263 74.4819 37.4148 74.4819C37.4034 74.4819 37.3919 74.4819 37.3804 74.4819C37.3689 74.4819 37.3574 74.4819 37.3458 74.4819C37.3343 74.4819 37.3228 74.4819 37.3112 74.4819C37.2996 74.4819 37.288 74.4819 37.2764 74.4819C37.2647 74.4819 37.2531 74.4819 37.2414 74.4819C37.2298 74.4819 37.2181 74.4819 37.2064 74.4819C37.1947 74.4819 37.1829 74.4819 37.1712 74.4819C37.1594 74.4819 37.1477 74.4819 37.1359 74.4819C37.1241 74.4819 37.1123 74.4819 37.1005 74.4819C37.0886 74.4819 37.0768 74.4819 37.0649 74.4819C37.053 74.4819 37.0411 74.4819 37.0292 74.4819C37.0173 74.4819 37.0054 74.4819 36.9934 74.4819C36.9815 74.4819 36.9695 74.4819 36.9575 74.4819C36.9455 74.4819 36.9335 74.4819 36.9215 74.4819C36.9095 74.4819 36.8974 74.4819 36.8853 74.4819C36.8733 74.4819 36.8612 74.4819 36.849 74.4819C36.8369 74.4819 36.8248 74.4819 36.8126 74.4819C36.8005 74.4819 36.7883 74.4819 36.7761 74.4819C36.7639 74.4819 36.7517 74.4819 36.7395 74.4819C36.7272 74.4819 36.715 74.4819 36.7027 74.4819C36.6904 74.4819 36.6781 74.4819 36.6658 74.4819C36.6535 74.4819 36.6412 74.4819 36.6288 74.4819C36.6165 74.4819 36.6041 74.4819 36.5917 74.4819C36.5793 74.4819 36.5669 74.4819 36.5544 74.4819C36.542 74.4819 36.5296 74.4819 36.5171 74.4819C36.5046 74.4819 36.4921 74.4819 36.4796 74.4819C36.4671 74.4819 36.4546 74.4819 36.442 74.4819C36.4294 74.4819 36.4169 74.4819 36.4043 74.4819C36.3917 74.4819 36.3791 74.4819 36.3664 74.4819C36.3538 74.4819 36.3412 74.4819 36.3285 74.4819C36.3158 74.4819 36.3031 74.4819 36.2904 74.4819C36.2777 74.4819 36.265 74.4819 36.2522 74.4819C36.2395 74.4819 36.2267 74.4819 36.2139 74.4819C36.2011 74.4819 36.1883 74.4819 36.1755 74.4819C36.1627 74.4819 36.1498 74.4819 36.1369 74.4819C36.1241 74.4819 36.1112 74.4819 36.0983 74.4819C36.0854 74.4819 36.0725 74.4819 36.0595 74.4819C36.0466 74.4819 36.0336 74.4819 36.0206 74.4819C36.0076 74.4819 35.9946 74.4819 35.9816 74.4819C35.9686 74.4819 35.9555 74.4819 35.9425 74.4819C35.9294 74.4819 35.9164 74.4819 35.9033 74.4819C35.8902 74.4819 35.877 74.4819 35.8639 74.4819C35.8508 74.4819 35.8376 74.4819 35.8244 74.4819C35.8113 74.4819 35.7981 74.4819 35.7849 74.4819C35.7716 74.4819 35.7584 74.4819 35.7452 74.4819C35.7319 74.4819 35.7186 74.4819 35.7053 74.4819C35.6921 74.4819 35.6788 74.4819 35.6654 74.4819C35.6521 74.4819 35.6388 74.4819 35.6254 74.4819C35.612 74.4819 35.5986 74.4819 35.5852 74.4819C35.5718 74.4819 35.5584 74.4819 35.545 74.4819C35.5315 74.4819 35.5181 74.4819 35.5046 74.4819C35.4911 74.4819 35.4776 74.4819 35.4641 74.4819C35.4506 74.4819 35.4371 74.4819 35.4235 74.4819C35.41 74.4819 35.3964 74.4819 35.3828 74.4819C35.3692 74.4819 35.3556 74.4819 35.342 74.4819C35.3284 74.4819 35.3147 74.4819 35.301 74.4819C35.2874 74.4819 35.2737 74.4819 35.26 74.4819C35.2463 74.4819 35.2326 74.4819 35.2188 74.4819C35.2051 74.4819 35.1914 74.4819 35.1776 74.4819C35.1638 74.4819 35.15 74.4819 35.1362 74.4819C35.1224 74.4819 35.1086 74.4819 35.0947 74.4819C35.0809 74.4819 35.067 74.4819 35.0531 74.4819C35.0392 74.4819 35.0253 74.4819 35.0114 74.4819C34.9975 74.4819 34.9836 74.4819 34.9696 74.4819C34.9556 74.4819 34.9417 74.4819 34.9277 74.4819C34.9137 74.4819 34.8997 74.4819 34.8856 74.4819C34.8716 74.4819 34.8576 74.4819 34.8435 74.4819C34.8294 74.4819 34.8153 74.4819 34.8012 74.4819C34.7871 74.4819 34.773 74.4819 34.7589 74.4819C34.7447 74.4819 34.7306 74.4819 34.7164 74.4819C34.7022 74.4819 34.688 74.4819 34.6738 74.4819C34.6596 74.4819 34.6454 74.4819 34.6312 74.4819C34.6169 74.4819 34.6026 74.4819 34.5884 74.4819C34.5741 74.4819 34.5598 74.4819 34.5455 74.4819C34.5312 74.4819 34.5168 74.4819 34.5025 74.4819C34.4881 74.4819 34.4737 74.4819 34.4594 74.4819C34.445 74.4819 34.4306 74.4819 34.4161 74.4819C34.4017 74.4819 34.3873 74.4819 34.3728 74.4819C34.3584 74.4819 34.3439 74.4819 34.3294 74.4819C34.3149 74.4819 34.3004 74.4819 34.2859 74.4819C34.2713 74.4819 34.2568 74.4819 34.2422 74.4819C34.2277 74.4819 34.2131 74.4819 34.1985 74.4819C34.1839 74.4819 34.1693 74.4819 34.1546 74.4819C34.14 74.4819 34.1253 74.4819 34.1107 74.4819C34.096 74.4819 34.0813 74.4819 34.0666 74.4819C34.0519 74.4819 34.0372 74.4819 34.0225 74.4819C34.0077 74.4819 33.993 74.4819 33.9782 74.4819C33.9634 74.4819 33.9486 74.4819 33.9338 74.4819C33.919 74.4819 33.9042 74.4819 33.8894 74.4819C33.8745 74.4819 33.8597 74.4819 33.8448 74.4819C33.8299 74.4819 33.815 74.4819 33.8001 74.4819C33.7852 74.4819 33.7703 74.4819 33.7553 74.4819C33.7404 74.4819 33.7254 74.4819 33.7105 74.4819C33.6955 74.4819 33.6805 74.4819 33.6655 74.4819C33.6505 74.4819 33.6354 74.4819 33.6204 74.4819C33.6054 74.4819 33.5903 74.4819 33.5752 74.4819C33.5601 74.4819 33.545 74.4819 33.5299 74.4819C33.5148 74.4819 33.4997 74.4819 33.4845 74.4819C33.4694 74.4819 33.4542 74.4819 33.4391 74.4819C33.4239 74.4819 33.4087 74.4819 33.3935 74.4819C33.3783 74.4819 33.363 74.4819 33.3478 74.4819C33.3325 74.4819 33.3173 74.4819 33.302 74.4819C33.2867 74.4819 33.2714 74.4819 33.2561 74.4819C33.2408 74.4819 33.2255 74.4819 33.2101 74.4819C33.1948 74.4819 33.1794 74.4819 33.164 74.4819C33.1487 74.4819 33.1333 74.4819 33.1179 74.4819C33.1025 74.4819 33.087 74.4819 33.0716 74.4819C33.0561 74.4819 33.0407 74.4819 33.0252 74.4819C33.0097 74.4819 32.9942 74.4819 32.9787 74.4819C32.9632 74.4819 32.9477 74.4819 32.9321 74.4819C32.9166 74.4819 32.901 74.4819 32.8855 74.4819C32.8699 74.4819 32.8543 74.4819 32.8387 74.4819C32.8231 74.4819 32.8075 74.4819 32.7918 74.4819C32.7762 74.4819 32.7605 74.4819 32.7449 74.4819C32.7292 74.4819 32.7135 74.4819 32.6978 74.4819C32.6821 74.4819 32.6664 74.4819 32.6507 74.4819C32.6349 74.4819 32.6192 74.4819 32.6034 74.4819C32.5876 74.4819 32.5718 74.4819 32.556 74.4819C32.5402 74.4819 32.5244 74.4819 32.5086 74.4819C32.4928 74.4819 32.4769 74.4819 32.4611 74.4819C32.4452 74.4819 32.4293 74.4819 32.4134 74.4819C32.3975 74.4819 32.3816 74.4819 32.3657 74.4819C32.3498 74.4819 32.3338 74.4819 32.3179 74.4819C32.3019 74.4819 32.2859 74.4819 32.27 74.4819C32.254 74.4819 32.238 74.4819 32.2219 74.4819C32.2059 74.4819 32.1899 74.4819 32.1738 74.4819C32.1578 74.4819 32.1417 74.4819 32.1256 74.4819C32.1096 74.4819 32.0935 74.4819 32.0773 74.4819C32.0612 74.4819 32.0451 74.4819 32.029 74.4819C32.0128 74.4819 31.9967 74.4819 31.9805 74.4819C31.9643 74.4819 31.9481 74.4819 31.9319 74.4819C31.9157 74.4819 31.8995 74.4819 31.8832 74.4819C31.867 74.4819 31.8508 74.4819 31.8345 74.4819C31.8182 74.4819 31.8019 74.4819 31.7856 74.4819C31.7693 74.4819 31.753 74.4819 31.7367 74.4819C31.7204 74.4819 31.704 74.4819 31.6877 74.4819C31.6713 74.4819 31.6549 74.4819 31.6385 74.4819C31.6222 74.4819 31.6058 74.4819 31.5893 74.4819C31.5729 74.4819 31.5565 74.4819 31.54 74.4819C31.5236 74.4819 31.5071 74.4819 31.4906 74.4819C31.4742 74.4819 31.4577 74.4819 31.4412 74.4819C31.4246 74.4819 31.4081 74.4819 31.3916 74.4819C31.375 74.4819 31.3585 74.4819 31.3419 74.4819C31.3254 74.4819 31.3088 74.4819 31.2922 74.4819C31.2756 74.4819 31.259 74.4819 31.2423 74.4819C31.2257 74.4819 31.2091 74.4819 31.1924 74.4819C31.1757 74.4819 31.1591 74.4819 31.1424 74.4819C31.1257 74.4819 31.109 74.4819 31.0923 74.4819C31.0756 74.4819 31.0588 74.4819 31.0421 74.4819C31.0253 74.4819 31.0086 74.4819 30.9918 74.4819C30.975 74.4819 30.9582 74.4819 30.9414 74.4819C30.9246 74.4819 30.9078 74.4819 30.891 74.4819C30.8741 74.4819 30.8573 74.4819 30.8404 74.4819C30.8236 74.4819 30.8067 74.4819 30.7898 74.4819C30.7729 74.4819 30.756 74.4819 30.7391 74.4819C30.7222 74.4819 30.7052 74.4819 30.6883 74.4819C30.6713 74.4819 30.6544 74.4819 30.6374 74.4819C30.6204 74.4819 30.6034 74.4819 30.5864 74.4819C30.5694 74.4819 30.5524 74.4819 30.5354 74.4819C30.5183 74.4819 30.5013 74.4819 30.4842 74.4819C30.4672 74.4819 30.4501 74.4819 30.433 74.4819C30.4159 74.4819 30.3988 74.4819 30.3817 74.4819C30.3646 74.4819 30.3474 74.4819 30.3303 74.4819C30.3131 74.4819 30.296 74.4819 30.2788 74.4819C30.2616 74.4819 30.2444 74.4819 30.2272 74.4819C30.21 74.4819 30.1928 74.4819 30.1756 74.4819C30.1583 74.4819 30.1411 74.4819 30.1238 74.4819C30.1066 74.4819 30.0893 74.4819 30.072 74.4819C30.0547 74.4819 30.0374 74.4819 30.0201 74.4819C30.0028 74.4819 29.9855 74.4819 29.9681 74.4819C29.9508 74.4819 29.9334 74.4819 29.9161 74.4819C29.8987 74.4819 29.8813 74.4819 29.8639 74.4819C29.8465 74.4819 29.8291 74.4819 29.8117 74.4819C29.7943 74.4819 29.7768 74.4819 29.7594 74.4819C29.7419 74.4819 29.7245 74.4819 29.707 74.4819C29.6895 74.4819 29.672 74.4819 29.6545 74.4819C29.637 74.4819 29.6195 74.4819 29.602 74.4819C29.5844 74.4819 29.5669 74.4819 29.5493 74.4819C29.5318 74.4819 29.5142 74.4819 29.4966 74.4819C29.479 74.4819 29.4614 74.4819 29.4438 74.4819C29.4262 74.4819 29.4086 74.4819 29.3909 74.4819C29.3733 74.4819 29.3556 74.4819 29.338 74.4819C29.3203 74.4819 29.3026 74.4819 29.2849 74.4819C29.2673 74.4819 29.2495 74.4819 29.2318 74.4819C29.2141 74.4819 29.1964 74.4819 29.1786 74.4819C29.1609 74.4819 29.1431 74.4819 29.1254 74.4819C29.1076 74.4819 29.0898 74.4819 29.072 74.4819C29.0542 74.4819 29.0364 74.4819 29.0186 74.4819C29.0008 74.4819 28.9829 74.4819 28.9651 74.4819C28.9472 74.4819 28.9294 74.4819 28.9115 74.4819C28.8936 74.4819 28.8757 74.4819 28.8578 74.4819C28.8399 74.4819 28.822 74.4819 28.8041 74.4819C28.7862 74.4819 28.7682 74.4819 28.7503 74.4819C28.7323 74.4819 28.7144 74.4819 28.6964 74.4819C28.6784 74.4819 28.6604 74.4819 28.6424 74.4819C28.6244 74.4819 28.6064 74.4819 28.5884 74.4819C28.5703 74.4819 28.5523 74.4819 28.5343 74.4819C28.5162 74.4819 28.4981 74.4819 28.4801 74.4819C28.462 74.4819 28.4439 74.4819 28.4258 74.4819C28.4077 74.4819 28.3896 74.4819 28.3714 74.4819C28.3533 74.4819 28.3352 74.4819 28.317 74.4819C28.2989 74.4819 28.2807 74.4819 28.2625 74.4819C28.2443 74.4819 28.2261 74.4819 28.2079 74.4819C28.1897 74.4819 28.1715 74.4819 28.1533 74.4819C28.1351 74.4819 28.1168 74.4819 28.0986 74.4819C28.0803 74.4819 28.0621 74.4819 28.0438 74.4819C28.0255 74.4819 28.0072 74.4819 27.9889 74.4819C27.9706 74.4819 27.9523 74.4819 27.934 74.4819C27.9157 74.4819 27.8973 74.4819 27.879 74.4819C27.8606 74.4819 27.8423 74.4819 27.8239 74.4819C27.8055 74.4819 27.7871 74.4819 27.7687 74.4819C27.7503 74.4819 27.7319 74.4819 27.7135 74.4819C27.6951 74.4819 27.6766 74.4819 27.6582 74.4819C27.6398 74.4819 27.6213 74.4819 27.6028 74.4819C27.5844 74.4819 27.5659 74.4819 27.5474 74.4819C27.5289 74.4819 27.5104 74.4819 27.4919 74.4819C27.4734 74.4819 27.4548 74.4819 27.4363 74.4819C27.4177 74.4819 27.3992 74.4819 27.3806 74.4819C27.3621 74.4819 27.3435 74.4819 27.3249 74.4819C27.3063 74.4819 27.2877 74.4819 27.2691 74.4819C27.2505 74.4819 27.2319 74.4819 27.2132 74.4819C27.1946 74.4819 27.176 74.4819 27.1573 74.4819C27.1386 74.4819 27.12 74.4819 27.1013 74.4819C27.0826 74.4819 27.0639 74.4819 27.0452 74.4819C27.0265 74.4819 27.0078 74.4819 26.9891 74.4819C26.9703 74.4819 26.9516 74.4819 26.9329 74.4819C26.9141 74.4819 26.8954 74.4819 26.8766 74.4819C26.8578 74.4819 26.839 74.4819 26.8202 74.4819C26.8014 74.4819 26.7826 74.4819 26.7638 74.4819C26.745 74.4819 26.7262 74.4819 26.7073 74.4819C26.6885 74.4819 26.6696 74.4819 26.6508 74.4819C26.6319 74.4819 26.613 74.4819 26.5942 74.4819C26.5753 74.4819 26.5564 74.4819 26.5375 74.4819C26.5186 74.4819 26.4997 74.4819 26.4807 74.4819C26.4618 74.4819 26.4429 74.4819 26.4239 74.4819C26.405 74.4819 26.386 74.4819 26.367 74.4819C26.348 74.4819 26.3291 74.4819 26.3101 74.4819C26.2911 74.4819 26.2721 74.4819 26.2531 74.4819C26.234 74.4819 26.215 74.4819 26.196 74.4819C26.1769 74.4819 26.1579 74.4819 26.1388 74.4819C26.1198 74.4819 26.1007 74.4819 26.0816 74.4819C26.0625 74.4819 26.0434 74.4819 26.0243 74.4819C26.0052 74.4819 25.9861 74.4819 25.967 74.4819C25.9479 74.4819 25.9287 74.4819 25.9096 74.4819C25.8905 74.4819 25.8713 74.4819 25.8521 74.4819C25.833 74.4819 25.8138 74.4819 25.7946 74.4819C25.7754 74.4819 25.7562 74.4819 25.737 74.4819C25.7178 74.4819 25.6986 74.4819 25.6793 74.4819C25.6601 74.4819 25.6409 74.4819 25.6216 74.4819C25.6024 74.4819 25.5831 74.4819 25.5638 74.4819C25.5446 74.4819 25.5253 74.4819 25.506 74.4819C25.4867 74.4819 25.4674 74.4819 25.4481 74.4819C25.4288 74.4819 25.4095 74.4819 25.3901 74.4819C25.3708 74.4819 25.3514 74.4819 25.3321 74.4819C25.3127 74.4819 25.2934 74.4819 25.274 74.4819C25.2546 74.4819 25.2352 74.4819 25.2158 74.4819C25.1964 74.4819 25.177 74.4819 25.1576 74.4819C25.1382 74.4819 25.1188 74.4819 25.0994 74.4819C25.0799 74.4819 25.0605 74.4819 25.041 74.4819C25.0216 74.4819 25.0021 74.4819 24.9826 74.4819C24.9632 74.4819 24.9437 74.4819 24.9242 74.4819C24.9047 74.4819 24.8852 74.4819 24.8657 74.4819C24.8461 74.4819 24.8266 74.4819 24.8071 74.4819C24.7875 74.4819 24.768 74.4819 24.7485 74.4819C24.7289 74.4819 24.7093 74.4819 24.6898 74.4819C24.6702 74.4819 24.6506 74.4819 24.631 74.4819C24.6114 74.4819 24.5918 74.4819 24.5722 74.4819C24.5526 74.4819 24.533 74.4819 24.5133 74.4819C24.4937 74.4819 24.4741 74.4819 24.4544 74.4819C24.4348 74.4819 24.4151 74.4819 24.3954 74.4819C24.3758 74.4819 24.3561 74.4819 24.3364 74.4819C24.3167 74.4819 24.297 74.4819 24.2773 74.4819C24.2576 74.4819 24.2379 74.4819 24.2181 74.4819C24.1984 74.4819 24.1787 74.4819 24.1589 74.4819C24.1392 74.4819 24.1194 74.4819 24.0997 74.4819C24.0799 74.4819 24.0601 74.4819 24.0403 74.4819C24.0206 74.4819 24.0008 74.4819 23.981 74.4819C23.9612 74.4819 23.9414 74.4819 23.9215 74.4819C23.9017 74.4819 23.8819 74.4819 23.8621 74.4819C23.8422 74.4819 23.8224 74.4819 23.8025 74.4819C23.7827 74.4819 23.7628 74.4819 23.7429 74.4819C23.723 74.4819 23.7032 74.4819 23.6833 74.4819C23.6634 74.4819 23.6435 74.4819 23.6236 74.4819C23.6036 74.4819 23.5837 74.4819 23.5638 74.4819C23.5439 74.4819 23.5239 74.4819 23.504 74.4819C23.484 74.4819 23.4641 74.4819 23.4441 74.4819C23.4241 74.4819 23.4042 74.4819 23.3842 74.4819C23.3642 74.4819 23.3442 74.4819 23.3242 74.4819V76.4819ZM42.5002 75.4819C42.5002 63.8904 48.6215 57.2641 54.988 51.2318C58.1464 48.2393 61.4332 45.3344 63.8971 42.084C66.3901 38.7954 68.1002 35.0845 68.1002 30.4259H66.1002C66.1002 34.5353 64.6103 37.8325 62.3033 40.8758C59.9672 43.9575 56.854 46.7086 53.6124 49.78C47.1789 55.8758 40.5002 63.0095 40.5002 75.4819H42.5002ZM68.1002 30.4259C68.1002 19.7628 65.3011 11.857 59.4795 6.64115C53.6808 1.4458 45.0699 -0.910065 33.8202 -0.910065V1.08994C44.8426 1.08994 52.8716 3.40607 58.1449 8.13073C63.3954 12.8349 66.1002 20.0971 66.1002 30.4259H68.1002Z" fill="white"/>
</svg>
