<svg width="178" height="149" viewBox="0 0 178 149" fill="none" xmlns="http://www.w3.org/2000/svg">
<path d="M30.6413 130.564L30.1241 131.42L30.132 131.425L30.6413 130.564ZM18.6413 117.064L17.7497 117.517L17.7557 117.529L18.6413 117.064ZM22.3913 60.5144L23.2841 60.9648L22.3913 60.5144ZM43.9913 33.3643L44.6138 34.1469L44.6149 34.1461L43.9913 33.3643ZM92.8913 34.4144L92.2666 35.1952L92.3493 35.2614L92.4441 35.3088L92.8913 34.4144ZM99.4913 31.2643L100.4 31.681L100.404 31.6741L100.407 31.6671L99.4913 31.2643ZM101.741 23.9143V22.9143H100.894L100.755 23.7499L101.741 23.9143ZM105.191 23.9143L106.17 24.1191L106.422 22.9143H105.191V23.9143ZM95.5913 69.8144V70.8144H96.4038L96.5701 70.0191L95.5913 69.8144ZM92.1413 69.8144L91.1425 69.7644L91.09 70.8144H92.1413V69.8144ZM90.7913 47.6144L89.8071 47.7915L89.8088 47.801L89.8107 47.8105L90.7913 47.6144ZM85.8413 35.1644L86.6501 34.5761L86.6432 34.5669L85.8413 35.1644ZM54.4913 33.0644L55.0834 33.8703L55.0939 33.8624L54.4913 33.0644ZM40.0913 51.8144L40.974 52.2842L40.9756 52.2813L40.0913 51.8144ZM31.6913 74.9144L30.7211 74.6718L30.7193 74.6794L31.6913 74.9144ZM31.2413 120.364L30.338 120.793L30.3423 120.803L30.3469 120.812L31.2413 120.364ZM38.4413 128.314L38.0202 129.221L38.0394 129.23L38.0589 129.238L38.4413 128.314ZM64.5413 125.314L64.0172 124.463L64.5413 125.314ZM78.1913 112.714L77.3986 112.105L77.3913 112.114L78.1913 112.714ZM87.3413 95.9144L87.6757 94.9719L86.7292 94.6361L86.3974 95.584L87.3413 95.9144ZM91.9913 97.5644L92.9382 97.8859L93.2554 96.9518L92.3257 96.6219L91.9913 97.5644ZM74.8913 124.264L75.5692 125L75.5696 124.999L74.8913 124.264ZM45.7913 133.914C40.7873 133.914 35.9115 132.521 31.1506 129.704L30.132 131.425C35.1711 134.407 40.3953 135.914 45.7913 135.914V133.914ZM31.1584 129.708C26.5467 126.922 22.6614 122.575 19.5268 116.6L17.7557 117.529C21.0212 123.754 25.1358 128.406 30.1242 131.42L31.1584 129.708ZM19.5328 116.611C16.523 110.689 14.9913 103.305 14.9913 94.4144H12.9913C12.9913 103.524 14.5596 111.24 17.7498 117.517L19.5328 116.611ZM14.9913 94.4144C14.9913 83.0833 17.7487 71.9367 23.2841 60.9648L21.4985 60.0639C15.8338 71.292 12.9913 82.7454 12.9913 94.4144H14.9913ZM23.2841 60.9648C28.826 49.98 35.9383 41.0479 44.6138 34.1469L43.3688 32.5817C34.4443 39.6808 27.1566 48.8487 21.4985 60.0639L23.2841 60.9648ZM44.6149 34.1461C53.3787 27.1548 62.2652 23.7144 71.2913 23.7144V21.7144C61.7174 21.7144 52.4039 25.3739 43.3677 32.5826L44.6149 34.1461ZM71.2913 23.7144C74.8641 23.7144 77.956 24.3898 80.5941 25.7088L81.4885 23.9199C78.5265 22.4389 75.1185 21.7144 71.2913 21.7144V23.7144ZM80.5941 25.7088C83.3192 27.0713 85.5253 28.6126 87.2342 30.3215L88.6484 28.9072C86.7572 27.0161 84.3634 25.3574 81.4885 23.9199L80.5941 25.7088ZM87.2342 30.3215L89.9342 33.0215L91.3484 31.6072L88.6484 28.9072L87.2342 30.3215ZM89.9342 33.0215C90.9369 34.0241 91.7201 34.758 92.2666 35.1952L93.516 33.6335C93.0624 33.2707 92.3457 32.6046 91.3484 31.6072L89.9342 33.0215ZM92.4441 35.3088C93.2072 35.6903 94.0657 35.8643 94.9913 35.8643V33.8643C94.3169 33.8643 93.7754 33.7384 93.3385 33.5199L92.4441 35.3088ZM94.9913 35.8643C97.4337 35.8643 99.2117 34.2744 100.4 31.681L98.5822 30.8477C97.5709 33.0542 96.3489 33.8643 94.9913 33.8643V35.8643ZM100.407 31.6671C101.536 29.1001 102.312 26.5702 102.728 24.0787L100.755 23.7499C100.37 26.0585 99.6465 28.4286 98.576 30.8616L100.407 31.6671ZM101.741 24.9143H105.191V22.9143H101.741V24.9143ZM104.212 23.7096L94.6125 69.6096L96.5701 70.0191L106.17 24.1191L104.212 23.7096ZM95.5913 68.8144H92.1413V70.8144H95.5913V68.8144ZM93.14 69.8643C93.2414 67.8377 93.2913 64.6666 93.2913 60.3643H91.2913C91.2913 64.6621 91.2412 67.791 91.1425 69.7644L93.14 69.8643ZM93.2913 60.3643C93.2913 56.7761 92.7795 52.4564 91.7719 47.4182L89.8107 47.8105C90.8031 52.7723 91.2913 56.9526 91.2913 60.3643H93.2913ZM91.7755 47.4372C90.8551 42.3242 89.1578 38.0244 86.65 34.5762L85.0326 35.7525C87.3248 38.9043 88.9274 42.9045 89.8071 47.7915L91.7755 47.4372ZM86.6432 34.5669C82.6566 29.2164 77.3107 26.5144 70.6913 26.5144V28.5144C76.6719 28.5144 81.426 30.9123 85.0394 35.7618L86.6432 34.5669ZM70.6913 26.5144C64.5645 26.5144 58.9547 28.441 53.8887 32.2663L55.0939 33.8624C59.8279 30.2877 65.0181 28.5144 70.6913 28.5144V26.5144ZM53.8992 32.2585C48.8228 35.9881 43.937 42.3907 39.207 51.3474L40.9756 52.2813C45.6456 43.4381 50.3598 37.3406 55.0834 33.8702L53.8992 32.2585ZM39.2085 51.3445C35.8596 57.6365 33.0345 65.4184 30.7211 74.6718L32.6614 75.1569C34.9481 66.0103 37.723 58.3922 40.974 52.2842L39.2085 51.3445ZM30.7193 74.6794C28.5004 83.8574 27.3913 93.2364 27.3913 102.814H29.3913C29.3913 93.3923 30.4822 84.1713 32.6633 75.1493L30.7193 74.6794ZM27.3913 102.814C27.3913 110.569 28.3435 116.595 30.338 120.793L32.1446 119.935C30.339 116.134 29.3913 110.46 29.3913 102.814H27.3913ZM30.3469 120.812C32.404 124.926 34.9405 127.792 38.0202 129.221L38.8624 127.407C36.342 126.237 34.0786 123.803 32.1357 119.917L30.3469 120.812ZM38.0589 129.238C41.0998 130.497 44.5332 131.114 48.3413 131.114V129.114C44.7494 129.114 41.5828 128.532 38.8236 127.39L38.0589 129.238ZM48.3413 131.114C54.1429 131.114 59.7225 129.454 65.0654 126.166L64.0172 124.463C58.9601 127.575 53.7396 129.114 48.3413 129.114V131.114ZM65.0654 126.166C70.3791 122.896 75.0209 118.608 78.9913 113.314L77.3913 112.114C73.5617 117.22 69.1035 121.333 64.0172 124.463L65.0654 126.166ZM78.9839 113.324C83.0468 108.042 86.1488 102.348 88.2851 96.2447L86.3974 95.584C84.3338 101.48 81.3358 106.986 77.3987 112.105L78.9839 113.324ZM87.0069 96.8568L91.6569 98.5068L92.3257 96.6219L87.6757 94.9719L87.0069 96.8568ZM91.0444 97.2428C87.495 107.694 81.8837 116.449 74.213 123.53L75.5696 124.999C83.4989 117.68 89.2875 108.635 92.9382 97.8859L91.0444 97.2428ZM74.2134 123.529C66.7202 130.439 57.2719 133.914 45.7913 133.914V135.914C57.7107 135.914 67.6624 132.29 75.5692 125L74.2134 123.529Z" fill="white"/>
<path d="M161.996 22.0092C161.1 22.0092 160.3 21.7265 159.596 21.1612C158.892 20.5959 158.343 19.8545 157.948 18.9372C157.554 18.0092 157.356 17.0385 157.356 16.0252C157.356 15.0119 157.554 14.0465 157.948 13.1292C158.343 12.2012 158.892 11.4545 159.596 10.8892C160.3 10.3239 161.1 10.0412 161.996 10.0412C162.892 10.0412 163.692 10.3239 164.396 10.8892C165.1 11.4545 165.65 12.2012 166.044 13.1292C166.439 14.0465 166.636 15.0119 166.636 16.0252C166.636 17.0385 166.439 18.0092 166.044 18.9372C165.65 19.8545 165.1 20.5959 164.396 21.1612C163.692 21.7265 162.892 22.0092 161.996 22.0092ZM161.996 21.4972C163.042 21.4972 163.794 21.0225 164.252 20.0732C164.711 19.1132 164.94 17.7639 164.94 16.0252C164.94 14.2759 164.711 12.9265 164.252 11.9772C163.794 11.0279 163.042 10.5532 161.996 10.5532C160.951 10.5532 160.199 11.0279 159.74 11.9772C159.282 12.9265 159.052 14.2759 159.052 16.0252C159.052 17.7639 159.282 19.1132 159.74 20.0732C160.199 21.0225 160.951 21.4972 161.996 21.4972ZM158.962 35.0732H158.898V42.9292C158.898 43.3239 158.988 43.6385 159.17 43.8732C159.362 44.0972 159.607 44.2092 159.906 44.2092H160.482V44.7212H156.674V44.2092H157.25C157.559 44.2092 157.804 44.0972 157.986 43.8732C158.167 43.6385 158.258 43.3239 158.258 42.9292V34.2732C158.247 34.1239 158.21 34.0172 158.146 33.9532C158.082 33.8785 157.975 33.8412 157.826 33.8412H156.674V33.3292H159.698L165.25 42.2572V35.1212C165.25 34.7265 165.159 34.4172 164.978 34.1932C164.796 33.9585 164.556 33.8412 164.258 33.8412H163.682V33.3292H167.49V33.8412H166.914C166.615 33.8412 166.37 33.9585 166.178 34.1932C165.986 34.4172 165.89 34.7265 165.89 35.1212V45.0092H165.25L158.962 35.0732ZM159.295 67.2092H160.831C161.119 67.2092 161.263 67.0652 161.263 66.7772V57.2252C161.263 57.0759 161.231 56.9692 161.167 56.9052C161.103 56.8305 160.991 56.7932 160.831 56.7932H160.255C159.583 56.7932 159.002 57.1345 158.511 57.8172C158.202 58.2545 157.994 58.8039 157.887 59.4652C157.78 60.1159 157.727 60.5959 157.727 60.9052H157.279L157.407 56.3292H166.591L166.719 60.9052H166.271C166.271 60.5959 166.218 60.1159 166.111 59.4652C166.004 58.8039 165.796 58.2545 165.487 57.8172C164.996 57.1345 164.415 56.7932 163.743 56.7932H163.167C163.007 56.7932 162.895 56.8305 162.831 56.9052C162.767 56.9692 162.735 57.0759 162.735 57.2252V66.7772C162.735 67.0652 162.879 67.2092 163.167 67.2092H164.703V67.7212H159.295V67.2092ZM156.465 90.2092H157.057C157.686 90.2092 158.145 89.8199 158.433 89.0412L161.873 79.3292H162.273L165.745 89.5052C165.851 89.7719 165.979 89.9585 166.129 90.0652C166.278 90.1612 166.47 90.2092 166.705 90.2092H167.601V90.7212H162.641V90.2092H163.697C163.857 90.2092 163.99 90.1719 164.097 90.0972C164.203 90.0119 164.257 89.9159 164.257 89.8092C164.257 89.6705 164.235 89.5532 164.193 89.4572L163.441 87.3292H159.697L159.313 88.4012C159.163 88.8279 159.089 89.1372 159.089 89.3292C159.089 89.5639 159.147 89.7719 159.265 89.9532C159.382 90.1239 159.585 90.2092 159.873 90.2092H160.849V90.7212H156.465V90.2092ZM159.873 86.8172H163.265L161.601 81.9372L159.873 86.8172ZM162.335 114.009C161.343 114.009 160.489 113.721 159.775 113.145C159.06 112.569 158.516 111.817 158.143 110.889C157.78 109.951 157.599 108.964 157.599 107.929C157.599 106.852 157.78 105.865 158.143 104.969C158.505 104.073 159.023 103.364 159.695 102.841C160.367 102.308 161.151 102.041 162.047 102.041C162.516 102.041 162.959 102.148 163.375 102.361C163.791 102.575 164.132 102.804 164.399 103.049C164.655 103.284 164.825 103.401 164.911 103.401C164.996 103.401 165.055 103.375 165.087 103.321C165.129 103.268 165.172 103.183 165.215 103.065L165.519 102.169H165.919L165.983 107.129H165.535C165.3 106.116 164.996 105.268 164.623 104.585C164.249 103.892 163.839 103.38 163.391 103.049C162.953 102.719 162.516 102.553 162.079 102.553C161.065 102.553 160.345 103.012 159.919 103.929C159.503 104.847 159.295 106.18 159.295 107.929C159.295 109.732 159.513 111.113 159.951 112.073C160.388 113.023 161.183 113.497 162.335 113.497C163.359 113.497 164.137 113.119 164.671 112.361C165.215 111.593 165.524 110.665 165.599 109.577H166.175C166.143 110.207 166.009 110.857 165.775 111.529C165.551 112.201 165.156 112.783 164.591 113.273C164.025 113.764 163.273 114.009 162.335 114.009ZM159.295 136.209H160.831C161.119 136.209 161.263 136.065 161.263 135.777V126.225C161.263 126.076 161.231 125.969 161.167 125.905C161.103 125.831 160.991 125.793 160.831 125.793H160.255C159.583 125.793 159.002 126.135 158.511 126.817C158.202 127.255 157.994 127.804 157.887 128.465C157.78 129.116 157.727 129.596 157.727 129.905H157.279L157.407 125.329H166.591L166.719 129.905H166.271C166.271 129.596 166.218 129.116 166.111 128.465C166.004 127.804 165.796 127.255 165.487 126.817C164.996 126.135 164.415 125.793 163.743 125.793H163.167C163.007 125.793 162.895 125.831 162.831 125.905C162.767 125.969 162.735 126.076 162.735 126.225V135.777C162.735 136.065 162.879 136.209 163.167 136.209H164.703V136.721H159.295V136.209Z" fill="white"/>
</svg>
