<svg width="1006" height="166" viewBox="0 0 1006 166" fill="none" xmlns="http://www.w3.org/2000/svg">
<path d="M65.3911 165.289C51.7511 165.289 40.0178 161.329 30.1911 153.409C20.3644 145.489 12.8844 135.149 7.75109 122.389C2.76443 109.482 0.271094 95.9156 0.271094 81.6889C0.271094 66.8756 2.76443 53.3089 7.75109 40.9889C12.7378 28.6689 19.8511 18.9156 29.0911 11.7289C38.3311 4.39558 49.1111 0.728914 61.4311 0.728914C67.8844 0.728914 73.9711 2.19558 79.6911 5.12891C85.4111 8.06224 90.1044 11.2156 93.7711 14.5889C97.2911 17.8156 99.6378 19.4289 100.811 19.4289C101.984 19.4289 102.791 19.0622 103.231 18.3289C103.818 17.5956 104.404 16.4222 104.991 14.8089L109.171 2.4889H114.671L115.551 70.6889H109.391C106.164 56.7556 101.984 45.0956 96.8511 35.7089C91.7178 26.1756 86.0711 19.1356 79.9111 14.5889C73.8978 10.0422 67.8844 7.76892 61.8711 7.76892C47.9378 7.76892 38.0378 14.0756 32.1711 26.6889C26.4511 39.3022 23.5911 57.6356 23.5911 81.6889C23.5911 106.476 26.5978 125.469 32.6111 138.669C38.6244 151.722 49.5511 158.249 65.3911 158.249C79.4711 158.249 90.1778 153.042 97.5111 142.629C104.991 132.069 109.244 119.309 110.271 104.349H118.191C117.751 113.002 115.918 121.949 112.691 131.189C109.611 140.429 104.184 148.422 96.4111 155.169C88.6378 161.916 78.2978 165.289 65.3911 165.289ZM204.854 165.289C192.534 165.289 181.534 161.402 171.854 153.629C162.174 145.856 154.621 135.662 149.194 123.049C143.767 110.289 141.054 96.9423 141.054 83.0089C141.054 69.0756 143.767 55.8022 149.194 43.1889C154.621 30.4289 162.174 20.1622 171.854 12.3889C181.534 4.61558 192.534 0.728914 204.854 0.728914C217.174 0.728914 228.174 4.61558 237.854 12.3889C247.534 20.1622 255.087 30.4289 260.514 43.1889C265.941 55.8022 268.654 69.0756 268.654 83.0089C268.654 96.9423 265.941 110.289 260.514 123.049C255.087 135.662 247.534 145.856 237.854 153.629C228.174 161.402 217.174 165.289 204.854 165.289ZM204.854 158.249C219.227 158.249 229.567 151.722 235.874 138.669C242.181 125.469 245.334 106.916 245.334 83.0089C245.334 58.9556 242.181 40.4022 235.874 27.3489C229.567 14.2956 219.227 7.76892 204.854 7.76892C190.481 7.76892 180.141 14.2956 173.834 27.3489C167.527 40.4022 164.374 58.9556 164.374 83.0089C164.374 106.916 167.527 125.469 173.834 138.669C180.141 151.722 190.481 158.249 204.854 158.249ZM318.197 28.6689H317.317V136.689C317.317 142.116 318.564 146.442 321.057 149.669C323.697 152.749 327.07 154.289 331.177 154.289H339.097V161.329H286.737V154.289H294.657C298.91 154.289 302.284 152.749 304.777 149.669C307.27 146.442 308.517 142.116 308.517 136.689V17.6689C308.37 15.6156 307.857 14.1489 306.977 13.2689C306.097 12.2422 304.63 11.7289 302.577 11.7289H286.737V4.68892H328.317L404.657 127.449V29.3289C404.657 23.9022 403.41 19.6489 400.917 16.5689C398.424 13.3422 395.124 11.7289 391.017 11.7289H383.097V4.68892H435.457V11.7289H427.537C423.43 11.7289 420.057 13.3422 417.417 16.5689C414.777 19.6489 413.457 23.9022 413.457 29.3289V165.289H404.657L318.197 28.6689ZM479.354 154.289H500.474C504.434 154.289 506.414 152.309 506.414 148.349V17.0089C506.414 14.9556 505.974 13.4889 505.094 12.6089C504.214 11.5822 502.674 11.0689 500.474 11.0689H492.554C483.314 11.0689 475.32 15.7622 468.574 25.1489C464.32 31.1622 461.46 38.7156 459.994 47.8089C458.527 56.7556 457.794 63.3556 457.794 67.6089H451.634L453.394 4.68892H579.674L581.434 67.6089H575.274C575.274 63.3556 574.54 56.7556 573.074 47.8089C571.607 38.7156 568.747 31.1622 564.494 25.1489C557.747 15.7622 549.754 11.0689 540.514 11.0689H532.594C530.394 11.0689 528.854 11.5822 527.974 12.6089C527.094 13.4889 526.654 14.9556 526.654 17.0089V148.349C526.654 152.309 528.634 154.289 532.594 154.289H553.714V161.329H479.354V154.289ZM578.747 154.289H586.887C595.541 154.289 601.847 148.936 605.807 138.229L653.107 4.68892H658.607L706.347 144.609C707.814 148.276 709.574 150.842 711.627 152.309C713.681 153.629 716.321 154.289 719.547 154.289H731.867V161.329H663.667V154.289H678.187C680.387 154.289 682.221 153.776 683.687 152.749C685.154 151.576 685.887 150.256 685.887 148.789C685.887 146.882 685.594 145.269 685.007 143.949L674.667 114.689H623.187L617.907 129.429C615.854 135.296 614.827 139.549 614.827 142.189C614.827 145.416 615.634 148.276 617.247 150.769C618.861 153.116 621.647 154.289 625.607 154.289H639.027V161.329H578.747V154.289ZM625.607 107.649H672.247L649.367 40.5489L625.607 107.649ZM800.028 165.289C786.388 165.289 774.654 161.329 764.828 153.409C755.001 145.489 747.521 135.149 742.388 122.389C737.401 109.482 734.908 95.9156 734.908 81.6889C734.908 66.8756 737.401 53.3089 742.388 40.9889C747.374 28.6689 754.488 18.9156 763.728 11.7289C772.968 4.39558 783.748 0.728914 796.068 0.728914C802.521 0.728914 808.608 2.19558 814.328 5.12891C820.048 8.06224 824.741 11.2156 828.408 14.5889C831.928 17.8156 834.274 19.4289 835.448 19.4289C836.621 19.4289 837.428 19.0622 837.868 18.3289C838.454 17.5956 839.041 16.4222 839.628 14.8089L843.808 2.4889H849.308L850.188 70.6889H844.028C840.801 56.7556 836.621 45.0956 831.488 35.7089C826.354 26.1756 820.708 19.1356 814.548 14.5889C808.534 10.0422 802.521 7.76892 796.508 7.76892C782.574 7.76892 772.674 14.0756 766.808 26.6889C761.088 39.3022 758.228 57.6356 758.228 81.6889C758.228 106.476 761.234 125.469 767.248 138.669C773.261 151.722 784.188 158.249 800.028 158.249C814.108 158.249 824.814 153.042 832.148 142.629C839.628 132.069 843.881 119.309 844.908 104.349H852.828C852.388 113.002 850.554 121.949 847.328 131.189C844.248 140.429 838.821 148.422 831.048 155.169C823.274 161.916 812.934 165.289 800.028 165.289ZM903.851 154.289H924.971C928.931 154.289 930.911 152.309 930.911 148.349V17.0089C930.911 14.9556 930.471 13.4889 929.591 12.6089C928.711 11.5822 927.171 11.0689 924.971 11.0689H917.051C907.811 11.0689 899.817 15.7622 893.071 25.1489C888.817 31.1622 885.957 38.7156 884.491 47.8089C883.024 56.7556 882.291 63.3556 882.291 67.6089H876.131L877.891 4.68892H1004.17L1005.93 67.6089H999.771C999.771 63.3556 999.037 56.7556 997.571 47.8089C996.104 38.7156 993.244 31.1622 988.991 25.1489C982.244 15.7622 974.251 11.0689 965.011 11.0689H957.091C954.891 11.0689 953.351 11.5822 952.471 12.6089C951.591 13.4889 951.151 14.9556 951.151 17.0089V148.349C951.151 152.309 953.131 154.289 957.091 154.289H978.211V161.329H903.851V154.289Z" fill="white" fill-opacity="0.8"/>
</svg>
