<svg width="586" height="97" viewBox="0 0 586 97" fill="none" xmlns="http://www.w3.org/2000/svg">
<path d="M38.5865 96.4816C30.6505 96.4816 23.8239 94.1776 18.1065 89.5696C12.3892 84.9616 8.03719 78.9456 5.05053 71.5216C2.14919 64.0122 0.698525 56.1189 0.698525 47.8415C0.698525 39.2229 2.14919 31.3295 5.05053 24.1615C7.95186 16.9935 12.0905 11.3189 17.4665 7.13755C22.8425 2.87088 29.1145 0.737549 36.2825 0.737549C40.0372 0.737549 43.5785 1.59088 46.9065 3.29755C50.2345 5.00421 52.9652 6.83888 55.0985 8.80154C57.1465 10.6789 58.5119 11.6175 59.1945 11.6175C59.8772 11.6175 60.3465 11.4042 60.6025 10.9775C60.9439 10.5509 61.2852 9.86821 61.6265 8.92955L64.0585 1.76154H67.2585L67.7705 41.4415H64.1865C62.3092 33.3349 59.8772 26.5509 56.8905 21.0895C53.9039 15.5429 50.6185 11.4469 47.0345 8.80154C43.5359 6.15621 40.0372 4.83355 36.5385 4.83355C28.4319 4.83355 22.6719 8.50288 19.2585 15.8415C15.9305 23.1802 14.2665 33.8469 14.2665 47.8415C14.2665 62.2629 16.0159 73.3136 19.5145 80.9936C23.0132 88.5882 29.3705 92.3856 38.5865 92.3856C46.7785 92.3856 53.0079 89.3562 57.2745 83.2976C61.6265 77.1536 64.1012 69.7296 64.6985 61.0256H69.3065C69.0505 66.0602 67.9839 71.2656 66.1065 76.6416C64.3145 82.0176 61.1572 86.6682 56.6345 90.5936C52.1119 94.5189 46.0959 96.4816 38.5865 96.4816ZM119.729 96.4816C112.561 96.4816 106.161 94.2202 100.529 89.6976C94.8965 85.1749 90.5019 79.2442 87.3445 71.9056C84.1872 64.4816 82.6085 56.7162 82.6085 48.6096C82.6085 40.5029 84.1872 32.7802 87.3445 25.4416C90.5019 18.0176 94.8965 12.0442 100.529 7.52155C106.161 2.99888 112.561 0.737549 119.729 0.737549C126.897 0.737549 133.297 2.99888 138.929 7.52155C144.561 12.0442 148.955 18.0176 152.113 25.4416C155.27 32.7802 156.849 40.5029 156.849 48.6096C156.849 56.7162 155.27 64.4816 152.113 71.9056C148.955 79.2442 144.561 85.1749 138.929 89.6976C133.297 94.2202 126.897 96.4816 119.729 96.4816ZM119.729 92.3856C128.091 92.3856 134.107 88.5882 137.777 80.9936C141.446 73.3136 143.281 62.5189 143.281 48.6096C143.281 34.6149 141.446 23.8202 137.777 16.2255C134.107 8.63088 128.091 4.83355 119.729 4.83355C111.366 4.83355 105.35 8.63088 101.681 16.2255C98.0112 23.8202 96.1765 34.6149 96.1765 48.6096C96.1765 62.5189 98.0112 73.3136 101.681 80.9936C105.35 88.5882 111.366 92.3856 119.729 92.3856ZM185.674 16.9935H185.162V79.8416C185.162 82.9989 185.887 85.5162 187.338 87.3936C188.874 89.1856 190.836 90.0816 193.226 90.0816H197.834V94.1776H167.37V90.0816H171.978C174.452 90.0816 176.415 89.1856 177.866 87.3936C179.316 85.5162 180.042 82.9989 180.042 79.8416V10.5935C179.956 9.39888 179.658 8.54554 179.146 8.03355C178.634 7.43622 177.78 7.13755 176.586 7.13755H167.37V3.04155H191.562L235.978 74.4655V17.3775C235.978 14.2202 235.252 11.7455 233.802 9.95354C232.351 8.07622 230.431 7.13755 228.042 7.13755H223.434V3.04155H253.898V7.13755H249.29C246.9 7.13755 244.938 8.07622 243.402 9.95354C241.866 11.7455 241.098 14.2202 241.098 17.3775V96.4816H235.978L185.674 16.9935ZM279.438 90.0816H291.726C294.03 90.0816 295.182 88.9296 295.182 86.6256V10.2095C295.182 9.01488 294.926 8.16155 294.414 7.64954C293.902 7.05221 293.006 6.75355 291.726 6.75355H287.118C281.742 6.75355 277.091 9.48421 273.166 14.9455C270.691 18.4442 269.027 22.8389 268.174 28.1295C267.32 33.3349 266.894 37.1749 266.894 39.6495H263.31L264.334 3.04155H337.806L338.83 39.6495H335.246C335.246 37.1749 334.819 33.3349 333.966 28.1295C333.112 22.8389 331.448 18.4442 328.974 14.9455C325.048 9.48421 320.398 6.75355 315.022 6.75355H310.414C309.134 6.75355 308.238 7.05221 307.726 7.64954C307.214 8.16155 306.958 9.01488 306.958 10.2095V86.6256C306.958 88.9296 308.11 90.0816 310.414 90.0816H322.702V94.1776H279.438V90.0816ZM337.267 90.0816H342.003C347.037 90.0816 350.707 86.9669 353.011 80.7376L380.531 3.04155H383.731L411.507 84.4496C412.36 86.5829 413.384 88.0762 414.579 88.9296C415.773 89.6976 417.309 90.0816 419.187 90.0816H426.355V94.1776H386.675V90.0816H395.123C396.403 90.0816 397.469 89.7829 398.323 89.1856C399.176 88.5029 399.603 87.7349 399.603 86.8816C399.603 85.7722 399.432 84.8336 399.091 84.0656L393.075 67.0415H363.123L360.051 75.6175C358.856 79.0309 358.259 81.5056 358.259 83.0416C358.259 84.9189 358.728 86.5829 359.667 88.0336C360.605 89.3989 362.227 90.0816 364.531 90.0816H372.339V94.1776H337.267V90.0816ZM364.531 62.9455H391.667L378.355 23.9055L364.531 62.9455ZM466.012 96.4816C458.076 96.4816 451.249 94.1776 445.532 89.5696C439.814 84.9616 435.462 78.9456 432.476 71.5216C429.574 64.0122 428.124 56.1189 428.124 47.8415C428.124 39.2229 429.574 31.3295 432.476 24.1615C435.377 16.9935 439.516 11.3189 444.892 7.13755C450.268 2.87088 456.54 0.737549 463.708 0.737549C467.462 0.737549 471.004 1.59088 474.332 3.29755C477.66 5.00421 480.39 6.83888 482.524 8.80154C484.572 10.6789 485.937 11.6175 486.62 11.6175C487.302 11.6175 487.772 11.4042 488.028 10.9775C488.369 10.5509 488.71 9.86821 489.052 8.92955L491.484 1.76154H494.684L495.196 41.4415H491.612C489.734 33.3349 487.302 26.5509 484.316 21.0895C481.329 15.5429 478.044 11.4469 474.46 8.80154C470.961 6.15621 467.462 4.83355 463.964 4.83355C455.857 4.83355 450.097 8.50288 446.684 15.8415C443.356 23.1802 441.692 33.8469 441.692 47.8415C441.692 62.2629 443.441 73.3136 446.94 80.9936C450.438 88.5882 456.796 92.3856 466.012 92.3856C474.204 92.3856 480.433 89.3562 484.7 83.2976C489.052 77.1536 491.526 69.7296 492.124 61.0256H496.732C496.476 66.0602 495.409 71.2656 493.532 76.6416C491.74 82.0176 488.582 86.6682 484.06 90.5936C479.537 94.5189 473.521 96.4816 466.012 96.4816ZM526.418 90.0816H538.706C541.01 90.0816 542.162 88.9296 542.162 86.6256V10.2095C542.162 9.01488 541.906 8.16155 541.394 7.64954C540.882 7.05221 539.986 6.75355 538.706 6.75355H534.098C528.722 6.75355 524.071 9.48421 520.146 14.9455C517.671 18.4442 516.007 22.8389 515.154 28.1295C514.3 33.3349 513.874 37.1749 513.874 39.6495H510.29L511.314 3.04155H584.786L585.81 39.6495H582.226C582.226 37.1749 581.799 33.3349 580.946 28.1295C580.092 22.8389 578.428 18.4442 575.954 14.9455C572.028 9.48421 567.378 6.75355 562.002 6.75355H557.394C556.114 6.75355 555.218 7.05221 554.706 7.64954C554.194 8.16155 553.938 9.01488 553.938 10.2095V86.6256C553.938 88.9296 555.09 90.0816 557.394 90.0816H569.682V94.1776H526.418V90.0816Z" fill="white" fill-opacity="0.8"/>
</svg>
