<svg width="483" height="96" viewBox="0 0 483 96" fill="none" xmlns="http://www.w3.org/2000/svg">
<path d="M19.0351 13.9338H18.2671V79.2138C18.2671 82.3711 18.9924 84.8884 20.4431 86.7658C21.9791 88.5578 23.9417 89.4538 26.3311 89.4538H30.9391V93.5498H0.475063V89.4538H5.08306C7.4724 89.4538 9.3924 88.5578 10.8431 86.7658C12.3791 84.8884 13.1471 82.3711 13.1471 79.2138V9.96577C13.1471 8.7711 12.8484 7.91777 12.2511 7.40577C11.7391 6.80844 10.8857 6.50977 9.69106 6.50977H0.475063V2.41377H27.6111L48.4751 72.9418L67.9311 2.41377H94.4271V6.50977H85.2111C84.0164 6.50977 83.1204 6.80844 82.5231 7.40577C82.0111 7.91777 81.7551 8.7711 81.7551 9.96577V85.9978C81.7551 88.3018 82.9071 89.4538 85.2111 89.4538H94.4271V93.5498H57.3071V89.4538H66.5231C68.8271 89.4538 69.9791 88.3018 69.9791 85.9978V10.4778L46.5551 95.0858H43.4831L19.0351 13.9338ZM101.837 89.4538H106.573C111.608 89.4538 115.277 86.3391 117.581 80.1098L145.101 2.41377H148.301L176.077 83.8218C176.93 85.9551 177.954 87.4484 179.149 88.3018C180.344 89.0698 181.88 89.4538 183.757 89.4538H190.925V93.5498H151.245V89.4538H159.693C160.973 89.4538 162.04 89.1551 162.893 88.5578C163.746 87.8751 164.173 87.1071 164.173 86.2538C164.173 85.1444 164.002 84.2058 163.661 83.4378L157.645 66.4138H127.693L124.621 74.9898C123.426 78.4031 122.829 80.8778 122.829 82.4138C122.829 84.2911 123.298 85.9551 124.237 87.4058C125.176 88.7711 126.797 89.4538 129.101 89.4538H136.909V93.5498H101.837V89.4538ZM129.101 62.3178H156.237L142.925 23.2778L129.101 62.3178ZM264.099 95.0858C261.283 95.0858 258.894 94.6164 256.931 93.6778C255.054 92.7391 253.56 91.2031 252.451 89.0698C250.147 84.6324 248.91 77.0804 248.739 66.4138C248.654 60.6964 247.63 55.9604 245.667 52.2058C243.704 48.3658 240.547 46.4458 236.195 46.4458H222.243V85.9978C222.243 87.1924 222.499 88.0884 223.011 88.6858C223.523 89.1978 224.419 89.4538 225.699 89.4538H237.091V93.5498H197.795V89.4538H207.011C209.315 89.4538 210.467 88.3018 210.467 85.9978V9.96577C210.467 8.7711 210.168 7.91777 209.571 7.40577C209.059 6.80844 208.206 6.50977 207.011 6.50977H197.795V2.41377H239.779C248.056 2.41377 254.84 3.99244 260.131 7.14977C265.422 10.3071 268.067 15.5551 268.067 22.8938C268.067 29.2084 265.678 34.2858 260.899 38.1258C256.206 41.9658 250.531 44.2271 243.875 44.9098V45.4218C248.739 46.3604 252.707 48.6218 255.779 52.2058C258.936 55.7044 261.027 61.7204 262.051 70.2538C262.648 75.1178 263.16 78.6591 263.587 80.8778C264.099 83.0964 264.696 84.6751 265.379 85.6138C266.147 86.4671 267.256 86.8938 268.707 86.8938C272.376 86.8938 274.211 82.2858 274.211 73.0698H277.411C277.411 78.6164 276.6 83.6938 274.979 88.3018C273.358 92.8244 269.731 95.0858 264.099 95.0858ZM234.659 42.3498C241.827 42.3498 246.904 40.6431 249.891 37.2298C252.963 33.7311 254.499 28.9524 254.499 22.8938C254.499 17.6884 253.091 13.6778 250.275 10.8618C247.544 7.96044 243.79 6.50977 239.011 6.50977H225.699C224.504 6.50977 223.608 6.80844 223.011 7.40577C222.499 7.91777 222.243 8.7711 222.243 9.96577V42.3498H234.659ZM285.58 89.4538H294.796C297.1 89.4538 298.252 88.3018 298.252 85.9978V9.96577C298.252 8.7711 297.953 7.91777 297.356 7.40577C296.844 6.80844 295.991 6.50977 294.796 6.50977H285.58V2.41377H322.7V6.50977H313.484C312.289 6.50977 311.393 6.80844 310.796 7.40577C310.284 7.91777 310.028 8.7711 310.028 9.96577V85.9978C310.028 88.3018 311.18 89.4538 313.484 89.4538H322.7V93.5498H285.58V89.4538ZM370.259 95.8538C363.091 95.8538 356.691 93.5924 351.059 89.0698C345.427 84.5471 341.032 78.6164 337.875 71.2778C334.718 63.8538 333.139 56.0884 333.139 47.9818C333.139 39.8751 334.718 32.1524 337.875 24.8138C341.032 17.3898 345.427 11.4164 351.059 6.89377C356.691 2.3711 363.091 0.109772 370.259 0.109772C377.427 0.109772 383.827 2.3711 389.459 6.89377C395.091 11.4164 399.486 17.3898 402.643 24.8138C405.8 32.1524 407.379 39.8751 407.379 47.9818C407.379 56.0884 405.8 63.8538 402.643 71.2778C399.486 78.6164 395.091 84.5471 389.459 89.0698C383.827 93.5924 377.427 95.8538 370.259 95.8538ZM370.259 91.7578C378.622 91.7578 384.638 87.9604 388.307 80.3658C391.976 72.6858 393.811 61.8911 393.811 47.9818C393.811 33.9871 391.976 23.1924 388.307 15.5978C384.638 8.00311 378.622 4.20577 370.259 4.20577C361.896 4.20577 355.88 8.00311 352.211 15.5978C348.542 23.1924 346.707 33.9871 346.707 47.9818C346.707 61.8911 348.542 72.6858 352.211 80.3658C355.88 87.9604 361.896 91.7578 370.259 91.7578ZM454.892 95.8538C451.308 95.8538 447.767 95.0858 444.268 93.5498C440.855 91.9284 437.868 90.1791 435.308 88.3018C431.724 85.5711 429.591 84.2058 428.908 84.2058C427.201 84.2058 426.092 86.0404 425.58 89.7098L425.068 94.8298H422.124L421.228 54.3818H424.3C424.812 60.6964 426.561 66.7551 429.548 72.5578C432.62 78.2751 436.417 82.9258 440.94 86.5098C445.463 90.0084 450.113 91.7578 454.892 91.7578C461.889 91.7578 466.967 90.0511 470.124 86.6378C473.367 83.2244 474.988 79.1284 474.988 74.3498C474.988 70.1684 473.751 66.8831 471.276 64.4938C468.887 62.1044 465.345 59.9711 460.652 58.0938L441.196 50.2858C434.455 47.5551 429.463 44.0564 426.22 39.7898C423.063 35.4378 421.484 30.2324 421.484 24.1738C421.484 15.9818 423.873 9.92311 428.652 5.99777C433.431 2.07244 439.404 0.109772 446.572 0.109772C452.204 0.109772 458.433 2.66977 465.26 7.78977C466.113 8.3871 466.967 8.94177 467.82 9.45377C468.673 9.88044 469.441 10.0938 470.124 10.0938C471.575 10.0938 472.428 9.06977 472.684 7.02177L473.196 2.41377H476.268L477.548 35.6938H474.476C473.111 29.5498 470.935 24.0884 467.948 19.3098C465.047 14.5311 461.633 10.8191 457.708 8.17377C453.783 5.52844 449.729 4.20577 445.548 4.20577C440.769 4.20577 436.844 5.78444 433.772 8.94177C430.7 12.0138 429.164 16.3231 429.164 21.8698C429.164 25.7098 430.145 28.6964 432.108 30.8298C434.071 32.9631 436.972 34.7978 440.812 36.3338L465.516 46.1898C471.233 48.4938 475.5 51.7791 478.316 56.0458C481.217 60.3124 482.668 64.7924 482.668 69.4858C482.668 74.0084 481.644 78.2751 479.596 82.2858C477.633 86.2964 474.561 89.5818 470.38 92.1418C466.284 94.6164 461.121 95.8538 454.892 95.8538Z" fill="white" fill-opacity="0.8"/>
</svg>
