<svg width="72" height="363" viewBox="0 0 72 363" fill="none" xmlns="http://www.w3.org/2000/svg">
<path d="M10.4485 348.284V348.86H59.4085C61.7765 348.86 63.6645 348.316 65.0725 347.228C66.4165 346.076 67.0885 344.604 67.0885 342.812V339.356H70.1605V362.204H67.0885V358.748C67.0885 356.956 66.4165 355.516 65.0725 354.428C63.6645 353.276 61.7765 352.7 59.4085 352.7H7.47252C6.57652 352.7 5.93652 352.924 5.55252 353.372C5.10452 353.756 4.88052 354.396 4.88052 355.292V362.204H1.80852V341.852L54.7045 326.204L1.80852 311.612V291.74H4.88052V298.652C4.88052 299.548 5.10452 300.22 5.55252 300.668C5.93652 301.052 6.57652 301.244 7.47252 301.244H64.4965C66.2245 301.244 67.0885 300.38 67.0885 298.652V291.74H70.1605V319.58H67.0885V312.668C67.0885 310.94 66.2245 310.076 64.4965 310.076H7.85652L71.3125 327.644V329.948L10.4485 348.284ZM67.0885 286.182V282.63C67.0885 278.854 64.7525 276.102 60.0805 274.374L1.80852 253.734V251.334L62.8645 230.502C64.4645 229.862 65.5845 229.094 66.2245 228.198C66.8005 227.302 67.0885 226.15 67.0885 224.742V219.366H70.1605V249.126H67.0885V242.79C67.0885 241.83 66.8645 241.03 66.4165 240.39C65.9045 239.75 65.3285 239.43 64.6885 239.43C63.8565 239.43 63.1525 239.558 62.5765 239.814L49.8085 244.326L49.8085 266.79L56.2405 269.094C58.8005 269.99 60.6565 270.438 61.8085 270.438C63.2165 270.438 64.4645 270.086 65.5525 269.382C66.5765 268.678 67.0885 267.462 67.0885 265.734V259.878H70.1605V286.182H67.0885ZM46.7365 265.734V245.382L17.4565 255.366L46.7365 265.734ZM71.3125 164.486C71.3125 166.598 70.9605 168.39 70.2565 169.862C69.5525 171.27 68.4005 172.39 66.8005 173.222C63.4725 174.95 57.8085 175.878 49.8085 176.006C45.5205 176.07 41.9685 176.838 39.1525 178.31C36.2725 179.782 34.8325 182.15 34.8325 185.414L34.8325 195.878H64.4965C65.3925 195.878 66.0645 195.686 66.5125 195.302C66.8965 194.918 67.0885 194.246 67.0885 193.286V184.742H70.1605V214.214H67.0885V207.302C67.0885 205.574 66.2245 204.71 64.4965 204.71H7.47252C6.57652 204.71 5.93652 204.934 5.55252 205.382C5.10452 205.766 4.88052 206.406 4.88052 207.302V214.214H1.80852V182.726C1.80852 176.518 2.99252 171.43 5.36052 167.462C7.72852 163.494 11.6645 161.51 17.1685 161.51C21.9045 161.51 25.7125 163.302 28.5925 166.886C31.4725 170.406 33.1685 174.662 33.6805 179.654H34.0645C34.7685 176.006 36.4645 173.03 39.1525 170.726C41.7765 168.358 46.2885 166.79 52.6885 166.022C56.3365 165.574 58.9925 165.19 60.6565 164.87C62.3205 164.486 63.5045 164.038 64.2085 163.526C64.8485 162.95 65.1685 162.118 65.1685 161.03C65.1685 158.278 61.7125 156.902 54.8005 156.902V154.502C58.9605 154.502 62.7685 155.11 66.2245 156.326C69.6165 157.542 71.3125 160.262 71.3125 164.486ZM31.7605 186.566C31.7605 181.19 30.4805 177.382 27.9205 175.142C25.2965 172.838 21.7125 171.686 17.1685 171.686C13.2645 171.686 10.2565 172.742 8.14452 174.854C5.96852 176.902 4.88052 179.718 4.88052 183.302V193.286C4.88052 194.182 5.10452 194.854 5.55252 195.302C5.93652 195.686 6.57652 195.878 7.47252 195.878H31.7605L31.7605 186.566ZM67.0885 148.375V141.463C67.0885 139.735 66.2245 138.871 64.4965 138.871H7.47252C6.57652 138.871 5.93652 139.095 5.55252 139.543C5.10452 139.927 4.88052 140.567 4.88052 141.463V148.375H1.80852V120.535H4.88052V127.447C4.88052 128.343 5.10452 129.015 5.55252 129.463C5.93652 129.847 6.57652 130.039 7.47252 130.039H64.4965C66.2245 130.039 67.0885 129.175 67.0885 127.447V120.535H70.1605V148.375H67.0885ZM71.8885 84.8656C71.8885 90.2416 70.1925 95.0416 66.8005 99.2656C63.4085 103.49 58.9605 106.786 53.4565 109.154C47.8885 111.522 42.0645 112.706 35.9845 112.706C29.9045 112.706 24.1125 111.522 18.6085 109.154C13.0405 106.786 8.56052 103.49 5.16852 99.2656C1.77652 95.0416 0.0805206 90.2416 0.0805206 84.8656C0.0805206 79.4896 1.77652 74.6896 5.16852 70.4656C8.56052 66.2416 13.0405 62.9456 18.6085 60.5776C24.1125 58.2096 29.9045 57.0256 35.9845 57.0256C42.0645 57.0256 47.8885 58.2096 53.4565 60.5776C58.9605 62.9456 63.4085 66.2416 66.8005 70.4656C70.1925 74.6896 71.8885 79.4896 71.8885 84.8656ZM68.8165 84.8656C68.8165 78.5936 65.9685 74.0816 60.2725 71.3296C54.5125 68.5776 46.4165 67.2016 35.9845 67.2016C25.4885 67.2016 17.3925 68.5776 11.6965 71.3296C6.00052 74.0816 3.15252 78.5936 3.15252 84.8656C3.15252 91.1376 6.00052 95.6496 11.6965 98.4016C17.3925 101.154 25.4885 102.53 35.9845 102.53C46.4165 102.53 54.5125 101.154 60.2725 98.4016C65.9685 95.6496 68.8165 91.1376 68.8165 84.8656ZM71.8885 21.3908C71.8885 24.0788 71.3125 26.7348 70.1605 29.3588C68.9445 31.9188 67.6325 34.1588 66.2245 36.0788C64.1765 38.7668 63.1525 40.3668 63.1525 40.8788C63.1525 42.1588 64.5285 42.9908 67.2805 43.3748L71.1205 43.7588V45.9668L40.7845 46.6388V44.3348C45.5205 43.9508 50.0645 42.6388 54.4165 40.3988C58.7045 38.0948 62.1925 35.2468 64.8805 31.8548C67.5045 28.4628 68.8165 24.9748 68.8165 21.3908C68.8165 16.1428 67.5365 12.3348 64.9765 9.96682C62.4165 7.53482 59.3445 6.31882 55.7605 6.31882C52.6245 6.31882 50.1605 7.24682 48.3685 9.10282C46.5765 10.8948 44.9765 13.5508 43.5685 17.0708L37.7125 31.6628C35.6645 36.7188 33.0405 40.4628 29.8405 42.8948C26.5765 45.2628 22.6725 46.4468 18.1285 46.4468C11.9845 46.4468 7.44052 44.6548 4.49652 41.0708C1.55252 37.4868 0.0805206 33.0068 0.0805206 27.6308C0.0805206 23.4068 2.00052 18.7348 5.84052 13.6148C6.28852 12.9748 6.70452 12.3348 7.08852 11.6948C7.40852 11.0548 7.56852 10.4788 7.56852 9.96682C7.56852 8.87882 6.80052 8.23882 5.26452 8.04682L1.80852 7.66282V5.35882L26.7685 4.39882V6.70282C22.1605 7.72682 18.0645 9.35882 14.4805 11.5988C10.8965 13.7748 8.11252 16.3348 6.12852 19.2788C4.14452 22.2228 3.15252 25.2628 3.15252 28.3988C3.15252 31.9828 4.33652 34.9268 6.70452 37.2308C9.00852 39.5348 12.2405 40.6868 16.4005 40.6868C19.2805 40.6868 21.5205 39.9508 23.1205 38.4788C24.7205 37.0068 26.0965 34.8308 27.2485 31.9508L34.6405 13.4228C36.3685 9.13482 38.8325 5.93482 42.0325 3.82282C45.2325 1.64682 48.5925 0.558821 52.1125 0.558821C55.5045 0.558821 58.7045 1.32682 61.7125 2.86282C64.7205 4.33482 67.1845 6.63882 69.1045 9.77482C70.9605 12.8468 71.8885 16.7188 71.8885 21.3908Z" fill="white" fill-opacity="0.8"/>
</svg>
