<svg width="830" height="165" viewBox="0 0 830 165" fill="none" xmlns="http://www.w3.org/2000/svg">
<path d="M32.7418 23.8259H31.4218V136.026C31.4218 141.453 32.6685 145.779 35.1618 149.006C37.8018 152.086 41.1752 153.626 45.2818 153.626H53.2018V160.666H0.841844V153.626H8.76184C12.8685 153.626 16.1685 152.086 18.6618 149.006C21.3018 145.779 22.6218 141.453 22.6218 136.026V17.0059C22.6218 14.9525 22.1085 13.4859 21.0818 12.6059C20.2018 11.5792 18.7352 11.0659 16.6818 11.0659H0.841844V4.02586H47.4818L83.3418 125.246L116.782 4.02586H162.322V11.0659H146.482C144.429 11.0659 142.889 11.5792 141.862 12.6059C140.982 13.4859 140.542 14.9525 140.542 17.0059V147.686C140.542 151.646 142.522 153.626 146.482 153.626H162.322V160.666H98.5219V153.626H114.362C118.322 153.626 120.302 151.646 120.302 147.686V17.8859L80.0418 163.306H74.7619L32.7418 23.8259ZM175.058 153.626H183.198C191.851 153.626 198.158 148.273 202.118 137.566L249.418 4.02586H254.918L302.658 143.946C304.124 147.613 305.884 150.179 307.938 151.646C309.991 152.966 312.631 153.626 315.858 153.626H328.178V160.666H259.978V153.626H274.498C276.698 153.626 278.531 153.113 279.998 152.086C281.464 150.913 282.198 149.593 282.198 148.126C282.198 146.219 281.904 144.606 281.318 143.286L270.978 114.026H219.498L214.218 128.766C212.164 134.633 211.138 138.886 211.138 141.526C211.138 144.753 211.944 147.613 213.558 150.106C215.171 152.453 217.958 153.626 221.918 153.626H235.338V160.666H175.058V153.626ZM221.918 106.986H268.558L245.678 39.8859L221.918 106.986ZM453.946 163.306C449.106 163.306 444.999 162.499 441.626 160.886C438.399 159.273 435.832 156.633 433.926 152.966C429.966 145.339 427.839 132.359 427.546 114.026C427.399 104.199 425.639 96.0592 422.266 89.6059C418.892 83.0059 413.466 79.7059 405.986 79.7059H382.006V147.686C382.006 149.739 382.446 151.279 383.326 152.306C384.206 153.186 385.746 153.626 387.946 153.626H407.526V160.666H339.986V153.626H355.826C359.786 153.626 361.766 151.646 361.766 147.686V17.0059C361.766 14.9525 361.252 13.4859 360.226 12.6059C359.346 11.5792 357.879 11.0659 355.826 11.0659H339.986V4.02586H412.146C426.372 4.02586 438.032 6.73919 447.126 12.1659C456.219 17.5925 460.766 26.6125 460.766 39.2259C460.766 50.0792 456.659 58.8059 448.446 65.4059C440.379 72.0059 430.626 75.8925 419.186 77.0659V77.9459C427.546 79.5592 434.366 83.4459 439.646 89.6059C445.072 95.6192 448.666 105.959 450.426 120.626C451.452 128.986 452.332 135.073 453.066 138.886C453.946 142.699 454.972 145.413 456.146 147.026C457.466 148.493 459.372 149.226 461.866 149.226C468.172 149.226 471.326 141.306 471.326 125.466H476.826C476.826 134.999 475.432 143.726 472.646 151.646C469.859 159.419 463.626 163.306 453.946 163.306ZM403.346 72.6659C415.666 72.6659 424.392 69.7325 429.526 63.8659C434.806 57.8525 437.446 49.6392 437.446 39.2259C437.446 30.2792 435.026 23.3859 430.186 18.5459C425.492 13.5592 419.039 11.0659 410.826 11.0659H387.946C385.892 11.0659 384.352 11.5792 383.326 12.6059C382.446 13.4859 382.006 14.9525 382.006 17.0059V72.6659H403.346ZM490.866 153.626H506.706C510.666 153.626 512.646 151.646 512.646 147.686V17.0059C512.646 14.9525 512.133 13.4859 511.106 12.6059C510.226 11.5792 508.759 11.0659 506.706 11.0659H490.866V4.02586H554.666V11.0659H538.826C536.773 11.0659 535.233 11.5792 534.206 12.6059C533.326 13.4859 532.886 14.9525 532.886 17.0059V147.686C532.886 151.646 534.866 153.626 538.826 153.626H554.666V160.666H490.866V153.626ZM636.408 164.626C624.088 164.626 613.088 160.739 603.408 152.966C593.728 145.193 586.175 134.999 580.748 122.386C575.321 109.626 572.608 96.2792 572.608 82.3459C572.608 68.4125 575.321 55.1392 580.748 42.5259C586.175 29.7659 593.728 19.4992 603.408 11.7259C613.088 3.95252 624.088 0.0658588 636.408 0.0658588C648.728 0.0658588 659.728 3.95252 669.408 11.7259C679.088 19.4992 686.641 29.7659 692.068 42.5259C697.495 55.1392 700.208 68.4125 700.208 82.3459C700.208 96.2792 697.495 109.626 692.068 122.386C686.641 134.999 679.088 145.193 669.408 152.966C659.728 160.739 648.728 164.626 636.408 164.626ZM636.408 157.586C650.781 157.586 661.121 151.059 667.428 138.006C673.735 124.806 676.888 106.253 676.888 82.3459C676.888 58.2925 673.735 39.7392 667.428 26.6859C661.121 13.6325 650.781 7.10586 636.408 7.10586C622.035 7.10586 611.695 13.6325 605.388 26.6859C599.081 39.7392 595.928 58.2925 595.928 82.3459C595.928 106.253 599.081 124.806 605.388 138.006C611.695 151.059 622.035 157.586 636.408 157.586ZM781.871 164.626C775.711 164.626 769.624 163.306 763.611 160.666C757.744 157.879 752.611 154.873 748.211 151.646C742.051 146.953 738.384 144.606 737.211 144.606C734.278 144.606 732.371 147.759 731.491 154.066L730.611 162.866H725.551L724.011 93.3459H729.291C730.171 104.199 733.178 114.613 738.311 124.586C743.591 134.413 750.118 142.406 757.891 148.566C765.664 154.579 773.658 157.586 781.871 157.586C793.898 157.586 802.624 154.653 808.051 148.786C813.624 142.919 816.411 135.879 816.411 127.666C816.411 120.479 814.284 114.833 810.031 110.726C805.924 106.619 799.838 102.953 791.771 99.7259L758.331 86.3059C746.744 81.6125 738.164 75.5992 732.591 68.2659C727.164 60.7859 724.451 51.8392 724.451 41.4259C724.451 27.3459 728.558 16.9325 736.771 10.1859C744.984 3.43919 755.251 0.0658588 767.571 0.0658588C777.251 0.0658588 787.958 4.46586 799.691 13.2659C801.158 14.2925 802.624 15.2459 804.091 16.1259C805.558 16.8592 806.878 17.2259 808.051 17.2259C810.544 17.2259 812.011 15.4659 812.451 11.9459L813.331 4.02586H818.611L820.811 61.2259H815.531C813.184 50.6659 809.444 41.2792 804.311 33.0659C799.324 24.8525 793.458 18.4725 786.711 13.9259C779.964 9.37919 772.998 7.10586 765.811 7.10586C757.598 7.10586 750.851 9.81919 745.571 15.2459C740.291 20.5259 737.651 27.9325 737.651 37.4659C737.651 44.0659 739.338 49.1992 742.711 52.8659C746.084 56.5325 751.071 59.6859 757.671 62.3259L800.131 79.2659C809.958 83.2259 817.291 88.8725 822.131 96.2059C827.118 103.539 829.611 111.239 829.611 119.306C829.611 127.079 827.851 134.413 824.331 141.306C820.958 148.199 815.678 153.846 808.491 158.246C801.451 162.499 792.578 164.626 781.871 164.626Z" fill="white" fill-opacity="0.8"/>
</svg>
