<svg width="97" height="618" viewBox="0 0 97 618" fill="none" xmlns="http://www.w3.org/2000/svg">
<path d="M96.3431 584.25C96.3431 587.834 95.5751 591.375 94.0391 594.874C92.4177 598.287 90.6684 601.274 88.7911 603.834C86.0604 607.418 84.6951 609.551 84.6951 610.234C84.6951 611.94 86.5297 613.05 90.1991 613.562L95.3191 614.074V617.018L54.8711 617.914V614.842C61.1857 614.33 67.2444 612.58 73.0471 609.594C78.7644 606.522 83.4151 602.724 86.9991 598.202C90.4977 593.679 92.2471 589.028 92.2471 584.25C92.2471 577.252 90.5404 572.175 87.1271 569.018C83.7137 565.775 79.6177 564.154 74.8391 564.154C70.6577 564.154 67.3724 565.391 64.9831 567.866C62.5937 570.255 60.4604 573.796 58.5831 578.49L50.7751 597.946C48.0444 604.687 44.5457 609.679 40.2791 612.922C35.9271 616.079 30.7217 617.658 24.6631 617.658C16.4711 617.658 10.4124 615.268 6.48706 610.49C2.56173 605.711 0.59906 599.738 0.59906 592.57C0.59906 586.938 3.15906 580.708 8.27906 573.882C8.87639 573.028 9.43106 572.175 9.94306 571.322C10.3697 570.468 10.5831 569.7 10.5831 569.018C10.5831 567.567 9.55906 566.714 7.51105 566.458L2.90306 565.946V562.874L36.1831 561.594V564.666C30.0391 566.031 24.5777 568.207 19.7991 571.194C15.0204 574.095 11.3084 577.508 8.66306 581.434C6.01773 585.359 4.69506 589.412 4.69506 593.594C4.69506 598.372 6.27373 602.298 9.43106 605.37C12.5031 608.442 16.8124 609.978 22.3591 609.978C26.1991 609.978 29.1857 608.996 31.3191 607.034C33.4524 605.071 35.2871 602.17 36.8231 598.33L46.6791 573.626C48.9831 567.908 52.2684 563.642 56.5351 560.826C60.8017 557.924 65.2817 556.474 69.9751 556.474C74.4977 556.474 78.7644 557.498 82.7751 559.546C86.7857 561.508 90.0711 564.58 92.6311 568.762C95.1057 572.858 96.3431 578.02 96.3431 584.25ZM89.9431 545.707V536.491C89.9431 534.187 88.7911 533.035 86.4871 533.035H10.4551C9.26039 533.035 8.40706 533.333 7.89506 533.931C7.29773 534.443 6.99906 535.296 6.99906 536.491L6.99906 545.707H2.90306L2.90306 474.283L34.9031 473.771V476.971C33.1964 476.971 30.2951 477.355 26.1991 478.123C22.1031 478.805 18.4337 480.213 15.1911 482.347C9.72973 485.931 6.99906 490.965 6.99906 497.451V517.803C6.99906 518.997 7.29773 519.893 7.89506 520.491C8.40706 521.003 9.26039 521.259 10.4551 521.259H44.8871V511.403C44.8871 507.051 42.6684 503.936 38.2311 502.059C33.7937 500.096 29.0577 499.115 24.0231 499.115V495.787H69.8471V499.115C64.8124 499.115 60.0764 500.096 55.6391 502.059C51.2017 503.936 48.9831 507.051 48.9831 511.403L48.9831 521.259H86.4871C88.7911 521.259 89.9431 520.107 89.9431 517.803L89.9431 497.323C89.9431 494.848 89.3884 492.331 88.2791 489.771C87.1697 487.211 85.4631 485.035 83.1591 483.243C80.7697 481.536 77.7831 480.128 74.1991 479.019C70.6151 477.909 67.3724 477.141 64.4711 476.715C61.4844 476.288 59.5644 476.032 58.7111 475.947V472.747L94.0391 474.283L94.0391 545.707H89.9431ZM95.5751 394.868C95.5751 397.684 95.1057 400.073 94.1671 402.036C93.2284 403.913 91.6924 405.406 89.5591 406.516C85.1217 408.82 77.5697 410.057 66.9031 410.228C61.1857 410.313 56.4497 411.337 52.6951 413.3C48.8551 415.262 46.9351 418.42 46.9351 422.772V436.724H86.4871C87.6817 436.724 88.5777 436.468 89.1751 435.956C89.6871 435.444 89.9431 434.548 89.9431 433.268V421.876H94.0391V461.172H89.9431V451.956C89.9431 449.652 88.7911 448.5 86.4871 448.5H10.4551C9.26039 448.5 8.40706 448.798 7.89506 449.396C7.29773 449.908 6.99906 450.761 6.99906 451.956V461.172H2.90306L2.90306 419.188C2.90306 410.91 4.48173 404.126 7.63906 398.836C10.7964 393.545 16.0444 390.9 23.3831 390.9C29.6977 390.9 34.7751 393.289 38.6151 398.068C42.4551 402.761 44.7164 408.436 45.3991 415.092H45.9111C46.8497 410.228 49.1111 406.26 52.6951 403.188C56.1937 400.03 62.2097 397.94 70.7431 396.916C75.6071 396.318 79.1484 395.806 81.3671 395.38C83.5857 394.868 85.1644 394.27 86.1031 393.588C86.9564 392.82 87.3831 391.71 87.3831 390.26C87.3831 386.59 82.7751 384.756 73.5591 384.756V381.556C79.1057 381.556 84.1831 382.366 88.7911 383.988C93.3137 385.609 95.5751 389.236 95.5751 394.868ZM42.8391 424.308C42.8391 417.14 41.1324 412.062 37.7191 409.076C34.2204 406.004 29.4417 404.468 23.3831 404.468C18.1777 404.468 14.1671 405.876 11.3511 408.692C8.44973 411.422 6.99906 415.177 6.99906 419.956L6.99906 433.268C6.99906 434.462 7.29773 435.358 7.89506 435.956C8.40706 436.468 9.26039 436.724 10.4551 436.724H42.8391V424.308ZM12.6311 360.075C10.4977 360.843 9.04706 361.824 8.27906 363.019C7.42573 364.213 6.99906 365.749 6.99906 367.627L6.99906 375.691H2.90306L2.90306 334.731H6.99906V343.179C6.99906 344.373 7.34039 345.397 8.02306 346.251C8.62039 347.104 9.34573 347.531 10.1991 347.531C11.1377 347.531 12.0764 347.36 13.0151 347.019L74.5831 325.131L22.6151 308.235C19.2871 307.211 16.3431 306.699 13.7831 306.699C11.9911 306.699 10.4124 307.211 9.04706 308.235C7.68173 309.173 6.99906 310.837 6.99906 313.227V320.139H2.90306L2.90306 285.579H6.99906V290.315C6.99906 293.301 7.89506 295.605 9.68706 297.227C11.3937 298.848 13.6124 300.128 16.3431 301.067L96.3431 327.051V330.251L12.6311 360.075ZM89.9431 278.352V269.136C89.9431 266.832 88.7911 265.68 86.4871 265.68H10.4551C9.26039 265.68 8.40706 265.978 7.89506 266.576C7.29773 267.088 6.99906 267.941 6.99906 269.136V278.352H2.90306L2.90306 241.232H6.99906V250.448C6.99906 251.642 7.29773 252.538 7.89506 253.136C8.40706 253.648 9.26039 253.904 10.4551 253.904H86.4871C88.7911 253.904 89.9431 252.752 89.9431 250.448V241.232H94.0391V278.352H89.9431ZM96.3431 192.905C96.3431 200.841 94.0391 207.667 89.4311 213.385C84.8231 219.102 78.8071 223.454 71.3831 226.441C63.8737 229.342 55.9804 230.793 47.7031 230.793C39.0844 230.793 31.1911 229.342 24.0231 226.441C16.8551 223.539 11.1804 219.401 6.99906 214.025C2.73239 208.649 0.59906 202.377 0.59906 195.209C0.59906 191.454 1.45239 187.913 3.15906 184.585C4.86572 181.257 6.70039 178.526 8.66306 176.393C10.5404 174.345 11.4791 172.979 11.4791 172.297C11.4791 171.614 11.2657 171.145 10.8391 170.889C10.4124 170.547 9.72973 170.206 8.79106 169.865L1.62305 167.433V164.233L41.3031 163.721V167.305C33.1964 169.182 26.4124 171.614 20.9511 174.601C15.4044 177.587 11.3084 180.873 8.66306 184.457C6.01773 187.955 4.69506 191.454 4.69506 194.953C4.69506 203.059 8.36439 208.819 15.7031 212.233C23.0417 215.561 33.7084 217.225 47.7031 217.225C62.1244 217.225 73.1751 215.475 80.8551 211.977C88.4497 208.478 92.2471 202.121 92.2471 192.905C92.2471 184.713 89.2177 178.483 83.1591 174.217C77.0151 169.865 69.5911 167.39 60.8871 166.793V162.185C65.9217 162.441 71.1271 163.507 76.5031 165.385C81.8791 167.177 86.5297 170.334 90.4551 174.857C94.3804 179.379 96.3431 185.395 96.3431 192.905ZM89.9431 149.907V140.691C89.9431 138.387 88.7911 137.235 86.4871 137.235H10.4551C9.26039 137.235 8.40706 137.533 7.89506 138.131C7.29773 138.643 6.99906 139.496 6.99906 140.691V149.907H2.90306L2.90306 78.4826L34.9031 77.9706V81.1706C33.1964 81.1706 30.2951 81.5546 26.1991 82.3226C22.1031 83.0052 18.4337 84.4132 15.1911 86.5466C9.72973 90.1306 6.99906 95.1652 6.99906 101.651V122.003C6.99906 123.197 7.29773 124.093 7.89506 124.691C8.40706 125.203 9.26039 125.459 10.4551 125.459H44.8871V115.603C44.8871 111.251 42.6684 108.136 38.2311 106.259C33.7937 104.296 29.0577 103.315 24.0231 103.315V99.9866H69.8471V103.315C64.8124 103.315 60.0764 104.296 55.6391 106.259C51.2017 108.136 48.9831 111.251 48.9831 115.603V125.459H86.4871C88.7911 125.459 89.9431 124.307 89.9431 122.003V101.523C89.9431 99.0479 89.3884 96.5306 88.2791 93.9706C87.1697 91.4106 85.4631 89.2346 83.1591 87.4426C80.7697 85.7359 77.7831 84.3279 74.1991 83.2186C70.6151 82.1092 67.3724 81.3412 64.4711 80.9146C61.4844 80.4879 59.5644 80.2319 58.7111 80.1466V76.9466L94.0391 78.4826V149.907H89.9431ZM96.3431 28.3796C96.3431 31.9636 95.5751 35.5049 94.0391 39.0036C92.4177 42.4169 90.6684 45.4036 88.7911 47.9636C86.0604 51.5476 84.6951 53.6809 84.6951 54.3636C84.6951 56.0702 86.5297 57.1796 90.1991 57.6916L95.3191 58.2036V61.1476L54.8711 62.0436V58.9716C61.1857 58.4596 67.2444 56.7102 73.0471 53.7236C78.7644 50.6516 83.4151 46.8542 86.9991 42.3316C90.4977 37.8089 92.2471 33.1582 92.2471 28.3796C92.2471 21.3822 90.5404 16.3049 87.1271 13.1476C83.7137 9.90489 79.6177 8.28355 74.8391 8.28355C70.6577 8.28355 67.3724 9.52089 64.9831 11.9956C62.5937 14.3849 60.4604 17.9262 58.5831 22.6196L50.7751 42.0756C48.0444 48.8169 44.5457 53.8089 40.2791 57.0516C35.9271 60.2089 30.7217 61.7876 24.6631 61.7876C16.4711 61.7876 10.4124 59.3982 6.48706 54.6196C2.56173 49.8409 0.59906 43.8676 0.59906 36.6996C0.59906 31.0676 3.15906 24.8382 8.27906 18.0116C8.87639 17.1582 9.43106 16.3049 9.94306 15.4516C10.3697 14.5982 10.5831 13.8302 10.5831 13.1476C10.5831 11.6969 9.55906 10.8436 7.51105 10.5876L2.90306 10.0756V7.00356L36.1831 5.72356V8.79556C30.0391 10.1609 24.5777 12.3369 19.7991 15.3236C15.0204 18.2249 11.3084 21.6382 8.66306 25.5636C6.01773 29.4889 4.69506 33.5422 4.69506 37.7236C4.69506 42.5022 6.27373 46.4276 9.43106 49.4996C12.5031 52.5716 16.8124 54.1076 22.3591 54.1076C26.1991 54.1076 29.1857 53.1262 31.3191 51.1636C33.4524 49.2009 35.2871 46.2996 36.8231 42.4596L46.6791 17.7556C48.9831 12.0382 52.2684 7.77155 56.5351 4.95555C60.8017 2.05422 65.2817 0.603554 69.9751 0.603554C74.4977 0.603554 78.7644 1.62755 82.7751 3.67555C86.7857 5.63822 90.0711 8.71022 92.6311 12.8916C95.1057 16.9876 96.3431 22.1502 96.3431 28.3796Z" fill="white" fill-opacity="0.8"/>
</svg>
