<svg width="157" height="148" viewBox="0 0 157 148" fill="none" xmlns="http://www.w3.org/2000/svg">
<path d="M40.3143 132.25L40.8 131.376L40.8 131.376L40.3143 132.25ZM30.4143 125.35L31.1214 124.643L31.1214 124.643L30.4143 125.35ZM27.8643 123.1L28.4456 122.286L28.4456 122.286L27.8643 123.1ZM21.4143 126.55L22.3021 127.01L22.3055 127.004L22.3088 126.997L21.4143 126.55ZM18.1143 134.8V135.8H18.8686L19.0759 135.075L18.1143 134.8ZM14.6643 134.8L13.6949 134.555L13.3796 135.8H14.6643V134.8ZM26.6643 87.4V86.4H25.8859L25.6949 87.1546L26.6643 87.4ZM30.1143 87.4L31.1007 87.5644L31.2948 86.4H30.1143V87.4ZM33.1143 113.05L32.204 113.464L32.2071 113.471L32.2103 113.477L33.1143 113.05ZM43.4643 126.25L42.8555 127.043L42.8555 127.043L43.4643 126.25ZM76.6143 125.95L77.2369 126.733L77.2369 126.733L76.6143 125.95ZM80.2143 100.75L79.4217 101.36L79.4275 101.367L79.4335 101.375L80.2143 100.75ZM71.0643 93.1L70.5423 93.953L70.5437 93.9538L71.0643 93.1ZM53.6643 82.45L54.1864 81.5971L54.1795 81.5929L54.1726 81.5888L53.6643 82.45ZM40.3143 71.05L41.1336 70.4766L41.1336 70.4766L40.3143 71.05ZM45.1143 31.75L45.7693 32.5057L45.7702 32.5049L45.1143 31.75ZM79.6143 26.65L79.1372 27.529L79.1476 27.5344L79.6143 26.65ZM88.3143 32.5L87.6417 33.24L87.6454 33.2433L88.3143 32.5ZM90.7143 34.45L90.1596 35.2821L90.2114 35.3166L90.2671 35.3445L90.7143 34.45ZM100.314 25V24H99.5505L99.3496 24.7369L100.314 25ZM103.764 25L104.74 25.2178L105.012 24H103.764V25ZM95.0643 64V65H95.8658L96.0403 64.2178L95.0643 64ZM91.6143 64L90.6163 63.9377L90.5499 65H91.6143V64ZM88.9143 48.4L87.9726 48.7364L87.9752 48.7438L87.978 48.7512L88.9143 48.4ZM54.5643 31.45L54.0975 30.5656L54.0872 30.5712L54.5643 31.45ZM46.7643 38.95L47.6344 39.4431L47.6411 39.4309L46.7643 38.95ZM48.2643 59.8L47.5445 60.4942L47.5508 60.5007L47.5572 60.5072L48.2643 59.8ZM59.5143 68.05L60.0194 67.1869L60.0125 67.1829L59.5143 68.05ZM73.6143 76.3L74.1343 75.4458L74.1269 75.4413L74.1193 75.4369L73.6143 76.3ZM84.4143 83.95L83.7518 84.699L83.7669 84.7125L83.7827 84.7253L84.4143 83.95ZM90.5643 92.05L89.6482 92.4509L89.6558 92.4684L89.6642 92.4856L90.5643 92.05ZM83.2143 127.3L83.8859 128.041L83.8859 128.041L83.2143 127.3ZM56.2143 135C50.2528 135 45.1261 133.779 40.8 131.376L39.8287 133.124C44.5025 135.721 49.9759 137 56.2143 137V135ZM40.8 131.376C36.3311 128.893 33.1248 126.646 31.1214 124.643L29.7072 126.057C31.9039 128.254 35.2976 130.607 39.8287 133.124L40.8 131.376ZM31.1214 124.643C30.1039 123.625 29.2097 122.832 28.4456 122.286L27.2831 123.914C27.919 124.368 28.7248 125.075 29.7072 126.057L31.1214 124.643ZM28.4456 122.286C27.6467 121.716 26.7955 121.35 25.9143 121.35V123.35C26.2332 123.35 26.6819 123.484 27.2831 123.914L28.4456 122.286ZM25.9143 121.35C24.7955 121.35 23.788 121.847 22.907 122.669C22.0368 123.481 21.2481 124.646 20.5199 126.103L22.3088 126.997C22.9806 125.654 23.6419 124.719 24.2716 124.131C24.8907 123.553 25.4331 123.35 25.9143 123.35V121.35ZM20.5266 126.09C19.0972 128.846 17.9719 131.658 17.1528 134.525L19.0759 135.075C19.8567 132.342 20.9314 129.654 22.3021 127.01L20.5266 126.09ZM18.1143 133.8H14.6643V135.8H18.1143V133.8ZM15.6337 135.045L27.6337 87.6455L25.6949 87.1546L13.6949 134.555L15.6337 135.045ZM26.6643 88.4H30.1143V86.4H26.6643V88.4ZM29.1279 87.2356C28.6216 90.2738 28.3643 92.9807 28.3643 95.35H30.3643C30.3643 93.1194 30.6071 90.5263 31.1007 87.5644L29.1279 87.2356ZM28.3643 95.35C28.3643 101.787 29.6424 107.828 32.204 113.464L34.0247 112.636C31.5863 107.272 30.3643 101.514 30.3643 95.35H28.3643ZM32.2103 113.477C34.8698 119.103 38.4147 123.635 42.8555 127.043L44.0732 125.457C39.914 122.265 36.5589 117.997 34.0184 112.623L32.2103 113.477ZM42.8555 127.043C47.3146 130.465 52.1753 132.2 57.4143 132.2V130.2C52.6534 130.2 48.2141 128.635 44.0732 125.457L42.8555 127.043ZM57.4143 132.2C65.9333 132.2 72.5912 130.428 77.2369 126.733L75.9918 125.167C71.8375 128.472 65.6953 130.2 57.4143 130.2V132.2ZM77.2369 126.733C81.9258 123.003 84.2143 117.534 84.2143 110.5H82.2143C82.2143 117.066 80.1029 121.897 75.9918 125.167L77.2369 126.733ZM84.2143 110.5C84.2143 106.331 83.1695 102.843 80.9952 100.125L79.4335 101.375C81.2592 103.657 82.2143 106.669 82.2143 110.5H84.2143ZM81.007 100.14C78.9059 97.4089 75.7455 94.7832 71.5849 92.2463L70.5437 93.9538C74.5831 96.4169 77.5228 98.8912 79.4217 101.36L81.007 100.14ZM71.5864 92.2471L54.1864 81.5971L53.1423 83.303L70.5423 93.953L71.5864 92.2471ZM54.1726 81.5888C48.1445 78.0313 43.8233 74.3191 41.1336 70.4766L39.4951 71.6235C42.4053 75.781 46.9842 79.6688 53.1561 83.3113L54.1726 81.5888ZM41.1336 70.4766C38.4845 66.6923 37.1143 61.6619 37.1143 55.3H35.1143C35.1143 61.9382 36.5441 67.4078 39.4951 71.6235L41.1336 70.4766ZM37.1143 55.3C37.1143 44.9909 40.0536 37.4593 45.7693 32.5057L44.4594 30.9944C38.175 36.4408 35.1143 44.6092 35.1143 55.3H37.1143ZM45.7702 32.5049C51.6515 27.3949 59.3518 24.8 68.9643 24.8V22.8C58.9769 22.8 50.7771 25.5052 44.4585 30.9952L45.7702 32.5049ZM68.9643 24.8C72.3805 24.8 75.7678 25.6998 79.1372 27.5289L80.0914 25.7712C76.4608 23.8003 72.7481 22.8 68.9643 22.8V24.8ZM79.1476 27.5344C82.6984 29.4085 85.5221 31.3131 87.6417 33.24L88.987 31.7601C86.7066 29.687 83.7302 27.6916 80.0811 25.7657L79.1476 27.5344ZM87.6454 33.2433C88.6562 34.1531 89.4988 34.8415 90.1596 35.2821L91.269 33.618C90.7299 33.2586 89.9725 32.647 88.9833 31.7567L87.6454 33.2433ZM90.2671 35.3445C91.0121 35.7169 91.816 35.9 92.6643 35.9V33.9C92.1126 33.9 91.6166 33.7831 91.1615 33.5556L90.2671 35.3445ZM92.6643 35.9C94.8627 35.9 96.6781 34.4624 98.158 32.1369L96.4707 31.0632C95.1506 33.1377 93.866 33.9 92.6643 33.9V35.9ZM98.158 32.1369C99.6043 29.8642 100.649 27.5727 101.279 25.2632L99.3496 24.7369C98.7795 26.8274 97.8244 28.9359 96.4707 31.0632L98.158 32.1369ZM100.314 26H103.764V24H100.314V26ZM102.788 24.7823L94.0883 63.7823L96.0403 64.2178L104.74 25.2178L102.788 24.7823ZM95.0643 63H91.6143V65H95.0643V63ZM92.6124 64.0624C92.923 59.0919 91.9884 53.7496 89.8507 48.0489L87.978 48.7512C90.0402 54.2504 90.9056 59.3082 90.6163 63.9377L92.6124 64.0624ZM89.8561 48.0637C87.8116 42.3393 84.8368 37.5083 80.9214 33.5929L79.5072 35.0072C83.1918 38.6917 86.017 43.2608 87.9726 48.7364L89.8561 48.0637ZM80.9214 33.5929C76.968 29.6395 72.5241 27.6 67.6143 27.6V29.6C71.9046 29.6 75.8607 31.3606 79.5072 35.0072L80.9214 33.5929ZM67.6143 27.6C62.392 27.6 57.8733 28.5729 54.0976 30.5657L55.0311 32.3344C58.4554 30.5272 62.6367 29.6 67.6143 29.6V27.6ZM54.0872 30.5712C50.4405 32.5508 47.6911 35.1803 45.8875 38.4692L47.6411 39.4309C49.2375 36.5198 51.6881 34.1493 55.0414 32.3289L54.0872 30.5712ZM45.8943 38.457C44.1104 41.6051 43.2143 44.9747 43.2143 48.55H45.2143C45.2143 45.3254 46.0183 42.2949 47.6344 39.4431L45.8943 38.457ZM43.2143 48.55C43.2143 53.4517 44.6286 57.4703 47.5445 60.4942L48.9842 59.1059C46.5001 56.5298 45.2143 53.0484 45.2143 48.55H43.2143ZM47.5572 60.5072C50.4377 63.3876 54.2658 66.1882 59.0162 68.9171L60.0125 67.1829C55.3629 64.5119 51.691 61.8125 48.9714 59.0929L47.5572 60.5072ZM59.0093 68.9132L73.1093 77.1632L74.1193 75.4369L60.0193 67.1869L59.0093 68.9132ZM73.0944 77.1542C77.6682 79.9383 81.2133 82.4535 83.7518 84.699L85.0769 83.201C82.4154 80.8466 78.7605 78.2618 74.1343 75.4458L73.0944 77.1542ZM83.7827 84.7253C86.3591 86.8246 88.3117 89.3961 89.6482 92.4509L91.4805 91.6492C90.017 88.304 87.8696 85.4755 85.046 83.1748L83.7827 84.7253ZM89.6642 92.4856C91.0803 95.4122 91.8143 99.1026 91.8143 103.6H93.8143C93.8143 98.8975 93.0484 94.8879 91.4645 91.6145L89.6642 92.4856ZM91.8143 103.6C91.8143 113.367 88.6999 120.979 82.5428 126.559L83.8859 128.041C90.5288 122.021 93.8143 113.833 93.8143 103.6H91.8143ZM82.5428 126.559C76.3821 132.142 67.6526 135 56.2143 135V137C67.9761 137 77.2466 134.058 83.8859 128.041L82.5428 126.559Z" fill="white"/>
<rect x="1.27222" y="1.31201" width="155" height="145.456" stroke="white"/>
<line x1="119.738" y1="0.812012" x2="119.738" y2="146.772" stroke="white"/>
<path d="M133.474 22.1662H134.626C134.914 22.1662 135.058 22.0222 135.058 21.7342V12.2302C135.058 12.0809 135.02 11.9742 134.946 11.9102C134.882 11.8356 134.775 11.7982 134.626 11.7982H133.474V11.2862H142.402L142.466 15.2862H142.066C142.066 15.0729 142.018 14.7102 141.922 14.1982C141.836 13.6862 141.66 13.2276 141.394 12.8222C140.946 12.1396 140.316 11.7982 139.506 11.7982H136.962C136.812 11.7982 136.7 11.8356 136.626 11.9102C136.562 11.9742 136.53 12.0809 136.53 12.2302V16.5342H137.762C138.306 16.5342 138.695 16.2569 138.93 15.7022C139.175 15.1476 139.298 14.5556 139.298 13.9262H139.714V19.6542H139.298C139.298 19.0249 139.175 18.4329 138.93 17.8782C138.695 17.3236 138.306 17.0462 137.762 17.0462H136.53V21.7342C136.53 22.0222 136.674 22.1662 136.962 22.1662H139.522C139.831 22.1662 140.146 22.0969 140.466 21.9582C140.786 21.8196 141.058 21.6062 141.282 21.3182C141.495 21.0196 141.671 20.6462 141.81 20.1982C141.948 19.7502 142.044 19.3449 142.098 18.9822C142.151 18.6089 142.183 18.3689 142.194 18.2622H142.594L142.402 22.6782H133.474V22.1662ZM141.558 41.8702C141.206 41.8702 140.908 41.8116 140.662 41.6942C140.428 41.5769 140.241 41.3849 140.102 41.1182C139.814 40.5636 139.66 39.6196 139.638 38.2862C139.628 37.5716 139.5 36.9796 139.254 36.5102C139.009 36.0302 138.614 35.7902 138.07 35.7902H136.326V40.7342C136.326 40.8836 136.358 40.9956 136.422 41.0702C136.486 41.1342 136.598 41.1662 136.758 41.1662H138.182V41.6782H133.27V41.1662H134.422C134.71 41.1662 134.854 41.0222 134.854 40.7342V31.2302C134.854 31.0809 134.817 30.9742 134.742 30.9102C134.678 30.8356 134.572 30.7982 134.422 30.7982H133.27V30.2862H138.518C139.553 30.2862 140.401 30.4836 141.062 30.8782C141.724 31.2729 142.054 31.9289 142.054 32.8462C142.054 33.6356 141.756 34.2702 141.158 34.7502C140.572 35.2302 139.862 35.5129 139.03 35.5982V35.6622C139.638 35.7796 140.134 36.0622 140.518 36.5102C140.913 36.9476 141.174 37.6996 141.302 38.7662C141.377 39.3742 141.441 39.8169 141.494 40.0942C141.558 40.3716 141.633 40.5689 141.718 40.6862C141.814 40.7929 141.953 40.8462 142.134 40.8462C142.593 40.8462 142.822 40.2702 142.822 39.1182H143.222C143.222 39.8116 143.121 40.4462 142.918 41.0222C142.716 41.5876 142.262 41.8702 141.558 41.8702ZM137.878 35.2782C138.774 35.2782 139.409 35.0649 139.782 34.6382C140.166 34.2009 140.358 33.6036 140.358 32.8462C140.358 32.1956 140.182 31.6942 139.83 31.3422C139.489 30.9796 139.02 30.7982 138.422 30.7982H136.758C136.609 30.7982 136.497 30.8356 136.422 30.9102C136.358 30.9742 136.326 31.0809 136.326 31.2302V35.2782H137.878ZM134.481 50.5022C134.385 50.2356 134.263 50.0542 134.113 49.9582C133.964 49.8516 133.772 49.7982 133.537 49.7982H132.529V49.2862H137.649V49.7982H136.593C136.444 49.7982 136.316 49.8409 136.209 49.9262C136.103 50.0009 136.049 50.0916 136.049 50.1982C136.049 50.3156 136.071 50.4329 136.113 50.5502L138.849 58.2462L140.961 51.7502C141.089 51.3342 141.153 50.9662 141.153 50.6462C141.153 50.4222 141.089 50.2249 140.961 50.0542C140.844 49.8836 140.636 49.7982 140.337 49.7982H139.473V49.2862H143.793V49.7982H143.201C142.828 49.7982 142.54 49.9102 142.337 50.1342C142.135 50.3476 141.975 50.6249 141.857 50.9662L138.609 60.9662H138.209L134.481 50.5022ZM135.849 79.1662H137.001C137.289 79.1662 137.433 79.0222 137.433 78.7342V69.2302C137.433 69.0809 137.395 68.9742 137.321 68.9102C137.257 68.8356 137.15 68.7982 137.001 68.7982H135.849V68.2862H140.489V68.7982H139.337C139.187 68.7982 139.075 68.8356 139.001 68.9102C138.937 68.9742 138.905 69.0809 138.905 69.2302V78.7342C138.905 79.0222 139.049 79.1662 139.337 79.1662H140.489V79.6782H135.849V79.1662ZM138.502 98.9662C137.51 98.9662 136.656 98.6782 135.942 98.1022C135.227 97.5262 134.683 96.7742 134.31 95.8462C133.947 94.9076 133.766 93.9209 133.766 92.8862C133.766 91.8089 133.947 90.8222 134.31 89.9262C134.672 89.0302 135.19 88.3209 135.862 87.7982C136.534 87.2649 137.318 86.9982 138.214 86.9982C138.683 86.9982 139.126 87.1049 139.542 87.3182C139.958 87.5316 140.299 87.7609 140.566 88.0062C140.822 88.2409 140.992 88.3582 141.078 88.3582C141.163 88.3582 141.222 88.3316 141.254 88.2782C141.296 88.2249 141.339 88.1396 141.382 88.0222L141.686 87.1262H142.086L142.15 92.0862H141.702C141.467 91.0729 141.163 90.2249 140.79 89.5422C140.416 88.8489 140.006 88.3369 139.558 88.0062C139.12 87.6756 138.683 87.5102 138.246 87.5102C137.232 87.5102 136.512 87.9689 136.086 88.8862C135.67 89.8036 135.462 91.1369 135.462 92.8862C135.462 94.6889 135.68 96.0702 136.118 97.0302C136.555 97.9796 137.35 98.4542 138.502 98.4542C139.526 98.4542 140.304 98.0756 140.838 97.3182C141.382 96.5502 141.691 95.6222 141.766 94.5342H142.342C142.31 95.1636 142.176 95.8142 141.942 96.4862C141.718 97.1582 141.323 97.7396 140.758 98.2302C140.192 98.7209 139.44 98.9662 138.502 98.9662ZM133.474 117.166H134.626C134.914 117.166 135.058 117.022 135.058 116.734V107.23C135.058 107.081 135.02 106.974 134.946 106.91C134.882 106.836 134.775 106.798 134.626 106.798H133.474V106.286H142.402L142.466 110.286H142.066C142.066 110.073 142.018 109.71 141.922 109.198C141.836 108.686 141.66 108.228 141.394 107.822C140.946 107.14 140.316 106.798 139.506 106.798H136.962C136.812 106.798 136.7 106.836 136.626 106.91C136.562 106.974 136.53 107.081 136.53 107.23V111.534H137.762C138.306 111.534 138.695 111.257 138.93 110.702C139.175 110.148 139.298 109.556 139.298 108.926H139.714V114.654H139.298C139.298 114.025 139.175 113.433 138.93 112.878C138.695 112.324 138.306 112.046 137.762 112.046H136.53V116.734C136.53 117.022 136.674 117.166 136.962 117.166H139.522C139.831 117.166 140.146 117.097 140.466 116.958C140.786 116.82 141.058 116.606 141.282 116.318C141.495 116.02 141.671 115.646 141.81 115.198C141.948 114.75 142.044 114.345 142.098 113.982C142.151 113.609 142.183 113.369 142.194 113.262H142.594L142.402 117.678H133.474V117.166ZM138.66 136.966C138.212 136.966 137.769 136.87 137.332 136.678C136.905 136.476 136.532 136.257 136.212 136.022C135.764 135.681 135.497 135.51 135.412 135.51C135.199 135.51 135.06 135.74 134.996 136.198L134.932 136.838H134.564L134.452 131.782H134.836C134.9 132.572 135.119 133.329 135.492 134.054C135.876 134.769 136.351 135.35 136.916 135.798C137.481 136.236 138.063 136.454 138.66 136.454C139.535 136.454 140.169 136.241 140.564 135.814C140.969 135.388 141.172 134.876 141.172 134.278C141.172 133.756 141.017 133.345 140.708 133.046C140.409 132.748 139.967 132.481 139.38 132.246L136.948 131.27C136.105 130.929 135.481 130.492 135.076 129.958C134.681 129.414 134.484 128.764 134.484 128.006C134.484 126.982 134.783 126.225 135.38 125.734C135.977 125.244 136.724 124.998 137.62 124.998C138.324 124.998 139.103 125.318 139.956 125.958C140.063 126.033 140.169 126.102 140.276 126.166C140.383 126.22 140.479 126.246 140.564 126.246C140.745 126.246 140.852 126.118 140.884 125.862L140.948 125.286H141.332L141.492 129.446H141.108C140.937 128.678 140.665 127.996 140.292 127.398C139.929 126.801 139.503 126.337 139.012 126.006C138.521 125.676 138.015 125.51 137.492 125.51C136.895 125.51 136.404 125.708 136.02 126.102C135.636 126.486 135.444 127.025 135.444 127.718C135.444 128.198 135.567 128.572 135.812 128.838C136.057 129.105 136.42 129.334 136.9 129.526L139.988 130.758C140.703 131.046 141.236 131.457 141.588 131.99C141.951 132.524 142.132 133.084 142.132 133.67C142.132 134.236 142.004 134.769 141.748 135.27C141.503 135.772 141.119 136.182 140.596 136.502C140.084 136.812 139.439 136.966 138.66 136.966Z" fill="white"/>
</svg>
