<svg width="1062" height="165" viewBox="0 0 1062 165" fill="none" xmlns="http://www.w3.org/2000/svg">
<path d="M58.0699 164.96C51.9099 164.96 45.8232 163.64 39.8099 161C33.9432 158.213 28.8099 155.207 24.4099 151.98C18.2499 147.287 14.5832 144.94 13.4099 144.94C10.4765 144.94 8.56986 148.093 7.68986 154.4L6.80986 163.2H1.74985L0.209855 93.68H5.48985C6.36985 104.533 9.37652 114.947 14.5099 124.92C19.7899 134.747 26.3165 142.74 34.0899 148.9C41.8632 154.913 49.8565 157.92 58.0699 157.92C70.0965 157.92 78.8232 154.987 84.2499 149.12C89.8232 143.253 92.6099 136.213 92.6099 128C92.6099 120.813 90.4832 115.167 86.2299 111.06C82.1232 106.953 76.0365 103.287 67.9699 100.06L34.5299 86.64C22.9432 81.9467 14.3632 75.9333 8.78985 68.6C3.36319 61.12 0.649854 52.1733 0.649854 41.76C0.649854 27.68 4.75652 17.2667 12.9699 10.52C21.1832 3.77333 31.4499 0.399996 43.7699 0.399996C53.4499 0.399996 64.1565 4.8 75.8899 13.6C77.3565 14.6267 78.8232 15.58 80.2899 16.46C81.7565 17.1933 83.0765 17.56 84.2499 17.56C86.7432 17.56 88.2099 15.8 88.6499 12.28L89.5299 4.36H94.8099L97.0099 61.56H91.7299C89.3832 51 85.6432 41.6133 80.5099 33.4C75.5232 25.1867 69.6565 18.8067 62.9099 14.26C56.1632 9.71333 49.1965 7.44 42.0099 7.44C33.7965 7.44 27.0499 10.1533 21.7699 15.58C16.4899 20.86 13.8499 28.2667 13.8499 37.8C13.8499 44.4 15.5365 49.5333 18.9099 53.2C22.2832 56.8667 27.2699 60.02 33.8699 62.66L76.3299 79.6C86.1565 83.56 93.4899 89.2067 98.3299 96.54C103.317 103.873 105.81 111.573 105.81 119.64C105.81 127.413 104.05 134.747 100.53 141.64C97.1565 148.533 91.8765 154.18 84.6899 158.58C77.6499 162.833 68.7765 164.96 58.0699 164.96ZM124.316 153.96H140.156C144.116 153.96 146.096 151.98 146.096 148.02V17.34C146.096 15.2867 145.582 13.82 144.556 12.94C143.676 11.9133 142.209 11.4 140.156 11.4H124.316V4.36H247.076L247.956 59.36H242.456C242.456 56.4267 241.796 51.44 240.476 44.4C239.302 37.36 236.882 31.0533 233.216 25.48C227.056 16.0933 218.402 11.4 207.256 11.4H172.276C170.222 11.4 168.682 11.9133 167.656 12.94C166.776 13.82 166.336 15.2867 166.336 17.34V76.52H183.276C190.756 76.52 196.109 72.7067 199.336 65.08C202.709 57.4533 204.396 49.3133 204.396 40.66H210.116V119.42H204.396C204.396 110.767 202.709 102.627 199.336 95C196.109 87.3733 190.756 83.56 183.276 83.56H166.336V148.02C166.336 151.98 168.316 153.96 172.276 153.96H207.476C211.729 153.96 216.056 153.007 220.456 151.1C224.856 149.193 228.596 146.26 231.676 142.3C234.609 138.193 237.029 133.06 238.936 126.9C240.842 120.74 242.162 115.167 242.896 110.18C243.629 105.047 244.069 101.747 244.216 100.28H249.716L247.076 161H124.316V153.96ZM383.57 163.64C378.73 163.64 374.623 162.833 371.25 161.22C368.023 159.607 365.457 156.967 363.55 153.3C359.59 145.673 357.463 132.693 357.17 114.36C357.023 104.533 355.263 96.3933 351.89 89.94C348.517 83.34 343.09 80.04 335.61 80.04H311.63V148.02C311.63 150.073 312.07 151.613 312.95 152.64C313.83 153.52 315.37 153.96 317.57 153.96H337.15V161H269.61V153.96H285.45C289.41 153.96 291.39 151.98 291.39 148.02V17.34C291.39 15.2867 290.877 13.82 289.85 12.94C288.97 11.9133 287.503 11.4 285.45 11.4H269.61V4.36H341.77C355.997 4.36 367.657 7.07333 376.75 12.5C385.843 17.9267 390.39 26.9467 390.39 39.56C390.39 50.4133 386.283 59.14 378.07 65.74C370.003 72.34 360.25 76.2267 348.81 77.4V78.28C357.17 79.8933 363.99 83.78 369.27 89.94C374.697 95.9533 378.29 106.293 380.05 120.96C381.077 129.32 381.957 135.407 382.69 139.22C383.57 143.033 384.597 145.747 385.77 147.36C387.09 148.827 388.997 149.56 391.49 149.56C397.797 149.56 400.95 141.64 400.95 125.8H406.45C406.45 135.333 405.057 144.06 402.27 151.98C399.483 159.753 393.25 163.64 383.57 163.64ZM332.97 73C345.29 73 354.017 70.0667 359.15 64.2C364.43 58.1867 367.07 49.9733 367.07 39.56C367.07 30.6133 364.65 23.72 359.81 18.88C355.117 13.8933 348.663 11.4 340.45 11.4H317.57C315.517 11.4 313.977 11.9133 312.95 12.94C312.07 13.82 311.63 15.2867 311.63 17.34V73H332.97ZM443.371 21.08C442.051 17.4133 440.364 14.92 438.311 13.6C436.257 12.1333 433.617 11.4 430.391 11.4H416.531V4.36H486.931V11.4H472.411C470.357 11.4 468.597 11.9867 467.131 13.16C465.664 14.1867 464.931 15.4333 464.931 16.9C464.931 18.5133 465.224 20.1267 465.811 21.74L503.431 127.56L532.471 38.24C534.231 32.52 535.111 27.46 535.111 23.06C535.111 19.98 534.231 17.2667 532.471 14.92C530.857 12.5733 527.997 11.4 523.891 11.4H512.011V4.36H571.411V11.4H563.271C558.137 11.4 554.177 12.94 551.391 16.02C548.604 18.9533 546.404 22.7667 544.791 27.46L500.131 164.96H494.631L443.371 21.08ZM583.832 153.96H599.672C603.632 153.96 605.612 151.98 605.612 148.02V17.34C605.612 15.2867 605.099 13.82 604.072 12.94C603.192 11.9133 601.725 11.4 599.672 11.4H583.832V4.36H647.632V11.4H631.792C629.739 11.4 628.199 11.9133 627.172 12.94C626.292 13.82 625.852 15.2867 625.852 17.34V148.02C625.852 151.98 627.832 153.96 631.792 153.96H647.632V161H583.832V153.96ZM730.694 164.96C717.054 164.96 705.321 161 695.494 153.08C685.667 145.16 678.187 134.82 673.054 122.06C668.067 109.153 665.574 95.5867 665.574 81.36C665.574 66.5467 668.067 52.98 673.054 40.66C678.041 28.34 685.154 18.5867 694.394 11.4C703.634 4.06666 714.414 0.399996 726.734 0.399996C733.187 0.399996 739.274 1.86666 744.994 4.79999C750.714 7.73332 755.407 10.8867 759.074 14.26C762.594 17.4867 764.941 19.1 766.114 19.1C767.287 19.1 768.094 18.7333 768.534 18C769.121 17.2667 769.707 16.0933 770.294 14.48L774.474 2.15999H779.974L780.854 70.36H774.694C771.467 56.4267 767.287 44.7667 762.154 35.38C757.021 25.8467 751.374 18.8067 745.214 14.26C739.201 9.71333 733.187 7.44 727.174 7.44C713.241 7.44 703.341 13.7467 697.474 26.36C691.754 38.9733 688.894 57.3067 688.894 81.36C688.894 106.147 691.901 125.14 697.914 138.34C703.927 151.393 714.854 157.92 730.694 157.92C744.774 157.92 755.481 152.713 762.814 142.3C770.294 131.74 774.547 118.98 775.574 104.02H783.494C783.054 112.673 781.221 121.62 777.994 130.86C774.914 140.1 769.487 148.093 761.714 154.84C753.941 161.587 743.601 164.96 730.694 164.96ZM804.597 153.96H820.437C824.397 153.96 826.377 151.98 826.377 148.02V17.34C826.377 15.2867 825.864 13.82 824.837 12.94C823.957 11.9133 822.49 11.4 820.437 11.4H804.597V4.36H927.357L928.237 59.36H922.737C922.737 56.4267 922.077 51.44 920.757 44.4C919.584 37.36 917.164 31.0533 913.497 25.48C907.337 16.0933 898.684 11.4 887.537 11.4H852.557C850.504 11.4 848.964 11.9133 847.937 12.94C847.057 13.82 846.617 15.2867 846.617 17.34V76.52H863.557C871.037 76.52 876.39 72.7067 879.617 65.08C882.99 57.4533 884.677 49.3133 884.677 40.66H890.397V119.42H884.677C884.677 110.767 882.99 102.627 879.617 95C876.39 87.3733 871.037 83.56 863.557 83.56H846.617V148.02C846.617 151.98 848.597 153.96 852.557 153.96H887.757C892.01 153.96 896.337 153.007 900.737 151.1C905.137 149.193 908.877 146.26 911.957 142.3C914.89 138.193 917.31 133.06 919.217 126.9C921.124 120.74 922.444 115.167 923.177 110.18C923.91 105.047 924.35 101.747 924.497 100.28H929.997L927.357 161H804.597V153.96ZM1013.47 164.96C1007.31 164.96 1001.22 163.64 995.211 161C989.345 158.213 984.211 155.207 979.811 151.98C973.651 147.287 969.985 144.94 968.811 144.94C965.878 144.94 963.971 148.093 963.091 154.4L962.211 163.2H957.151L955.611 93.68H960.891C961.771 104.533 964.778 114.947 969.911 124.92C975.191 134.747 981.718 142.74 989.491 148.9C997.265 154.913 1005.26 157.92 1013.47 157.92C1025.5 157.92 1034.22 154.987 1039.65 149.12C1045.22 143.253 1048.01 136.213 1048.01 128C1048.01 120.813 1045.88 115.167 1041.63 111.06C1037.52 106.953 1031.44 103.287 1023.37 100.06L989.931 86.64C978.345 81.9467 969.765 75.9333 964.191 68.6C958.765 61.12 956.051 52.1733 956.051 41.76C956.051 27.68 960.158 17.2667 968.371 10.52C976.585 3.77333 986.851 0.399996 999.171 0.399996C1008.85 0.399996 1019.56 4.8 1031.29 13.6C1032.76 14.6267 1034.22 15.58 1035.69 16.46C1037.16 17.1933 1038.48 17.56 1039.65 17.56C1042.14 17.56 1043.61 15.8 1044.05 12.28L1044.93 4.36H1050.21L1052.41 61.56H1047.13C1044.78 51 1041.04 41.6133 1035.91 33.4C1030.92 25.1867 1025.06 18.8067 1018.31 14.26C1011.56 9.71333 1004.6 7.44 997.411 7.44C989.198 7.44 982.451 10.1533 977.171 15.58C971.891 20.86 969.251 28.2667 969.251 37.8C969.251 44.4 970.938 49.5333 974.311 53.2C977.685 56.8667 982.671 60.02 989.271 62.66L1031.73 79.6C1041.56 83.56 1048.89 89.2067 1053.73 96.54C1058.72 103.873 1061.21 111.573 1061.21 119.64C1061.21 127.413 1059.45 134.747 1055.93 141.64C1052.56 148.533 1047.28 154.18 1040.09 158.58C1033.05 162.833 1024.18 164.96 1013.47 164.96Z" fill="white" fill-opacity="0.8"/>
</svg>
