<svg width="73" height="464" viewBox="0 0 73 464" fill="none" xmlns="http://www.w3.org/2000/svg">
<path d="M72.0927 437.785C72.0927 440.473 71.5167 443.129 70.3647 445.753C69.1487 448.313 67.8367 450.553 66.4287 452.473C64.3807 455.161 63.3567 456.761 63.3567 457.273C63.3567 458.553 64.7327 459.385 67.4847 459.769L71.3247 460.153V462.361L40.9887 463.033V460.729C45.7247 460.345 50.2687 459.033 54.6207 456.793C58.9087 454.489 62.3967 451.641 65.0847 448.249C67.7087 444.857 69.0207 441.369 69.0207 437.785C69.0207 432.537 67.7407 428.729 65.1807 426.361C62.6207 423.929 59.5487 422.713 55.9647 422.713C52.8287 422.713 50.3647 423.641 48.5727 425.497C46.7807 427.289 45.1807 429.945 43.7727 433.465L37.9167 448.057C35.8687 453.113 33.2447 456.857 30.0447 459.289C26.7807 461.657 22.8767 462.841 18.3327 462.841C12.1887 462.841 7.64474 461.049 4.70074 457.465C1.75674 453.881 0.284744 449.401 0.284744 444.025C0.284744 439.801 2.20474 435.129 6.04474 430.009C6.49274 429.369 6.90874 428.729 7.29275 428.089C7.61275 427.449 7.77275 426.873 7.77275 426.361C7.77275 425.273 7.00474 424.633 5.46874 424.441L2.01274 424.057V421.753L26.9727 420.793V423.097C22.3647 424.121 18.2687 425.753 14.6847 427.993C11.1007 430.169 8.31674 432.729 6.33274 435.673C4.34874 438.617 3.35674 441.657 3.35674 444.793C3.35674 448.377 4.54074 451.321 6.90874 453.625C9.21275 455.929 12.4447 457.081 16.6047 457.081C19.4847 457.081 21.7247 456.345 23.3247 454.873C24.9247 453.401 26.3007 451.225 27.4527 448.345L34.8447 429.817C36.5727 425.529 39.0367 422.329 42.2367 420.217C45.4367 418.041 48.7967 416.953 52.3167 416.953C55.7087 416.953 58.9087 417.721 61.9167 419.257C64.9247 420.729 67.3887 423.033 69.3087 426.169C71.1647 429.241 72.0927 433.113 72.0927 437.785ZM67.2927 408.878V401.966C67.2927 400.238 66.4287 399.374 64.7007 399.374H7.67674C6.78074 399.374 6.14074 399.598 5.75674 400.046C5.30874 400.43 5.08475 401.07 5.08475 401.966V408.878H2.01274L2.01274 355.31L26.0127 354.926V357.326C24.7327 357.326 22.5567 357.614 19.4847 358.19C16.4127 358.702 13.6607 359.758 11.2287 361.358C7.13274 364.046 5.08475 367.822 5.08475 372.686L5.08475 387.95C5.08475 388.846 5.30874 389.518 5.75674 389.966C6.14074 390.35 6.78074 390.542 7.67674 390.542H33.5007V383.15C33.5007 379.886 31.8367 377.55 28.5087 376.142C25.1807 374.67 21.6287 373.934 17.8527 373.934V371.438H52.2207V373.934C48.4447 373.934 44.8927 374.67 41.5647 376.142C38.2367 377.55 36.5727 379.886 36.5727 383.15V390.542H64.7007C66.4287 390.542 67.2927 389.678 67.2927 387.95V372.59C67.2927 370.734 66.8767 368.846 66.0447 366.926C65.2127 365.006 63.9327 363.374 62.2047 362.03C60.4127 360.75 58.1727 359.694 55.4847 358.862C52.7967 358.03 50.3647 357.454 48.1887 357.134C45.9487 356.814 44.5087 356.622 43.8687 356.558V354.158L70.3647 355.31L70.3647 408.878H67.2927ZM71.5167 295.748C71.5167 297.86 71.1647 299.652 70.4607 301.124C69.7567 302.532 68.6047 303.652 67.0047 304.484C63.6767 306.212 58.0127 307.14 50.0127 307.268C45.7247 307.332 42.1727 308.1 39.3567 309.572C36.4767 311.044 35.0367 313.412 35.0367 316.676V327.14H64.7007C65.5967 327.14 66.2687 326.948 66.7167 326.564C67.1007 326.18 67.2927 325.508 67.2927 324.548V316.004H70.3647V345.476H67.2927V338.564C67.2927 336.836 66.4287 335.972 64.7007 335.972H7.67674C6.78074 335.972 6.14074 336.196 5.75674 336.644C5.30874 337.028 5.08475 337.668 5.08475 338.564V345.476H2.01274L2.01274 313.988C2.01274 307.78 3.19674 302.692 5.56474 298.724C7.93274 294.756 11.8687 292.772 17.3727 292.772C22.1087 292.772 25.9167 294.564 28.7967 298.148C31.6767 301.668 33.3727 305.924 33.8847 310.916H34.2687C34.9727 307.268 36.6687 304.292 39.3567 301.988C41.9807 299.62 46.4927 298.052 52.8927 297.284C56.5407 296.836 59.1967 296.452 60.8607 296.132C62.5247 295.748 63.7087 295.3 64.4127 294.788C65.0527 294.212 65.3727 293.38 65.3727 292.292C65.3727 289.54 61.9167 288.164 55.0047 288.164V285.764C59.1647 285.764 62.9727 286.372 66.4287 287.588C69.8207 288.804 71.5167 291.524 71.5167 295.748ZM31.9647 317.828C31.9647 312.452 30.6847 308.644 28.1247 306.404C25.5007 304.1 21.9167 302.948 17.3727 302.948C13.4687 302.948 10.4607 304.004 8.34874 306.116C6.17274 308.164 5.08475 310.98 5.08475 314.564V324.548C5.08475 325.444 5.30874 326.116 5.75674 326.564C6.14074 326.948 6.78074 327.14 7.67674 327.14H31.9647V317.828ZM9.30874 269.654C7.70874 270.23 6.62074 270.966 6.04474 271.862C5.40475 272.758 5.08475 273.91 5.08475 275.318V281.366H2.01274L2.01274 250.646H5.08475V256.982C5.08475 257.878 5.34074 258.646 5.85274 259.286C6.30074 259.926 6.84474 260.246 7.48474 260.246C8.18874 260.246 8.89274 260.118 9.59674 259.862L55.7727 243.446L16.7967 230.774C14.3007 230.006 12.0927 229.622 10.1727 229.622C8.82874 229.622 7.64474 230.006 6.62074 230.774C5.59674 231.478 5.08475 232.726 5.08475 234.518V239.702H2.01274V213.782H5.08475V217.334C5.08475 219.574 5.75674 221.302 7.10074 222.518C8.38074 223.734 10.0447 224.694 12.0927 225.398L72.0927 244.886V247.286L9.30874 269.654ZM67.2927 208.361V201.449C67.2927 199.721 66.4287 198.857 64.7007 198.857H7.67674C6.78074 198.857 6.14074 199.081 5.75674 199.529C5.30874 199.913 5.08475 200.553 5.08475 201.449V208.361H2.01274V180.521H5.08475V187.433C5.08475 188.329 5.30874 189.001 5.75674 189.449C6.14074 189.833 6.78074 190.025 7.67674 190.025H64.7007C66.4287 190.025 67.2927 189.161 67.2927 187.433V180.521H70.3647V208.361H67.2927ZM72.0927 144.276C72.0927 150.228 70.3647 155.348 66.9087 159.636C63.4527 163.924 58.9407 167.188 53.3727 169.428C47.7407 171.604 41.8207 172.692 35.6127 172.692C29.1487 172.692 23.2287 171.604 17.8527 169.428C12.4767 167.252 8.22074 164.148 5.08475 160.116C1.88474 156.084 0.284744 151.38 0.284744 146.004C0.284744 143.188 0.924744 140.532 2.20474 138.036C3.48474 135.54 4.86074 133.492 6.33274 131.892C7.74074 130.356 8.44474 129.332 8.44474 128.82C8.44474 128.308 8.28474 127.956 7.96474 127.764C7.64474 127.508 7.13274 127.252 6.42875 126.996L1.05274 125.172V122.772L30.8127 122.388V125.076C24.7327 126.484 19.6447 128.308 15.5487 130.548C11.3887 132.788 8.31674 135.252 6.33274 137.94C4.34874 140.564 3.35674 143.188 3.35674 145.812C3.35674 151.892 6.10874 156.212 11.6127 158.772C17.1167 161.268 25.1167 162.516 35.6127 162.516C46.4287 162.516 54.7167 161.204 60.4767 158.58C66.1727 155.956 69.0207 151.188 69.0207 144.276C69.0207 138.132 66.7487 133.46 62.2047 130.26C57.5967 126.996 52.0287 125.14 45.5007 124.692V121.236C49.2767 121.428 53.1807 122.228 57.2127 123.636C61.2447 124.98 64.7327 127.348 67.6767 130.74C70.6207 134.132 72.0927 138.644 72.0927 144.276ZM67.2927 112.028V105.116C67.2927 103.388 66.4287 102.524 64.7007 102.524H7.67674C6.78074 102.524 6.14074 102.748 5.75674 103.196C5.30874 103.58 5.08475 104.22 5.08475 105.116V112.028H2.01274L2.01274 58.4597L26.0127 58.0757V60.4757C24.7327 60.4757 22.5567 60.7637 19.4847 61.3397C16.4127 61.8517 13.6607 62.9077 11.2287 64.5077C7.13274 67.1957 5.08475 70.9717 5.08475 75.8357V91.0997C5.08475 91.9957 5.30874 92.6677 5.75674 93.1157C6.14074 93.4997 6.78074 93.6917 7.67674 93.6917H33.5007V86.2997C33.5007 83.0357 31.8367 80.6997 28.5087 79.2917C25.1807 77.8197 21.6287 77.0837 17.8527 77.0837V74.5877H52.2207V77.0837C48.4447 77.0837 44.8927 77.8197 41.5647 79.2917C38.2367 80.6997 36.5727 83.0357 36.5727 86.2997V93.6917H64.7007C66.4287 93.6917 67.2927 92.8277 67.2927 91.0997V75.7397C67.2927 73.8837 66.8767 71.9957 66.0447 70.0757C65.2127 68.1557 63.9327 66.5237 62.2047 65.1797C60.4127 63.8997 58.1727 62.8437 55.4847 62.0117C52.7967 61.1797 50.3647 60.6037 48.1887 60.2837C45.9487 59.9637 44.5087 59.7717 43.8687 59.7077V57.3077L70.3647 58.4597V112.028H67.2927ZM72.0927 20.8825C72.0927 23.5705 71.5167 26.2265 70.3647 28.8505C69.1487 31.4105 67.8367 33.6505 66.4287 35.5705C64.3807 38.2585 63.3567 39.8585 63.3567 40.3705C63.3567 41.6505 64.7327 42.4825 67.4847 42.8665L71.3247 43.2505V45.4585L40.9887 46.1305V43.8265C45.7247 43.4425 50.2687 42.1305 54.6207 39.8905C58.9087 37.5865 62.3967 34.7385 65.0847 31.3465C67.7087 27.9545 69.0207 24.4665 69.0207 20.8825C69.0207 15.6345 67.7407 11.8265 65.1807 9.45846C62.6207 7.02646 59.5487 5.81046 55.9647 5.81046C52.8287 5.81046 50.3647 6.73846 48.5727 8.59446C46.7807 10.3865 45.1807 13.0425 43.7727 16.5625L37.9167 31.1545C35.8687 36.2105 33.2447 39.9545 30.0447 42.3865C26.7807 44.7545 22.8767 45.9385 18.3327 45.9385C12.1887 45.9385 7.64474 44.1465 4.70074 40.5625C1.75674 36.9785 0.284744 32.4985 0.284744 27.1225C0.284744 22.8985 2.20474 18.2265 6.04474 13.1065C6.49274 12.4665 6.90874 11.8265 7.29275 11.1865C7.61275 10.5465 7.77275 9.97046 7.77275 9.45846C7.77275 8.37046 7.00474 7.73046 5.46874 7.53846L2.01274 7.15446V4.85046L26.9727 3.89046V6.19446C22.3647 7.21846 18.2687 8.85046 14.6847 11.0905C11.1007 13.2665 8.31674 15.8265 6.33274 18.7705C4.34874 21.7145 3.35674 24.7545 3.35674 27.8905C3.35674 31.4745 4.54074 34.4185 6.90874 36.7225C9.21275 39.0265 12.4447 40.1785 16.6047 40.1785C19.4847 40.1785 21.7247 39.4425 23.3247 37.9705C24.9247 36.4985 26.3007 34.3225 27.4527 31.4425L34.8447 12.9145C36.5727 8.62646 39.0367 5.42646 42.2367 3.31446C45.4367 1.13846 48.7967 0.0504589 52.3167 0.0504589C55.7087 0.0504589 58.9087 0.818459 61.9167 2.35446C64.9247 3.82646 67.3887 6.13046 69.3087 9.26646C71.1647 12.3385 72.0927 16.2105 72.0927 20.8825Z" fill="white" fill-opacity="0.8"/>
</svg>
