<svg width="66" height="62" viewBox="0 0 66 62" fill="none" xmlns="http://www.w3.org/2000/svg">
<path d="M61.9258 3.33487C56.9924 7.0682 52.9924 11.6015 49.9258 16.9349C46.7258 22.2682 45.1258 27.6015 45.1258 32.9349C45.1258 34.4015 45.3924 35.5349 45.9258 36.3349C46.4591 37.2682 47.3924 38.1349 48.7258 38.9349C49.6591 39.4682 51.9258 39.7349 55.5258 39.7349C58.4591 39.7349 60.8591 40.7349 62.7258 42.7349C64.5924 44.8682 65.5258 47.3349 65.5258 50.1349C65.5258 53.7349 64.3258 56.5349 61.9258 58.5349C59.5258 60.6682 56.8591 61.7349 53.9258 61.7349C48.7258 61.7349 44.6591 59.6015 41.7258 55.3349C39.1924 51.8682 37.9258 47.1349 37.9258 41.1349C37.9258 32.8682 39.9924 25.0015 44.1258 17.5349C48.2591 10.2015 53.2591 4.40153 59.1258 0.134867L61.9258 3.33487ZM24.7258 3.33487C19.7924 7.0682 15.7924 11.6015 12.7258 16.9349C9.52578 22.2682 7.92578 27.6015 7.92578 32.9349C7.92578 34.4015 8.19245 35.5349 8.72578 36.3349C9.25911 37.2682 10.1924 38.1349 11.5258 38.9349C12.4591 39.4682 14.7258 39.7349 18.3258 39.7349C21.2591 39.7349 23.6591 40.7349 25.5258 42.7349C27.3924 44.8682 28.3258 47.3349 28.3258 50.1349C28.3258 53.7349 27.1258 56.5349 24.7258 58.5349C22.3258 60.6682 19.6591 61.7349 16.7258 61.7349C11.5258 61.7349 7.45911 59.6015 4.52578 55.3349C1.99244 51.8682 0.725776 47.1349 0.725776 41.1349C0.725776 32.8682 2.79244 25.0015 6.92578 17.5349C11.0591 10.2015 16.0591 4.40153 21.9258 0.134867L24.7258 3.33487Z" fill="white"/>
</svg>
