<svg width="119" height="119" viewBox="0 0 119 119" fill="none" xmlns="http://www.w3.org/2000/svg">
<rect x="0.862732" y="0.66748" width="117" height="117" stroke="white"/>
<rect x="10.8627" y="10.6675" width="97" height="97" fill="#2B2626" stroke="white"/>
<path d="M56.4565 41.4487L55.8071 42.2093L55.8134 42.2146L56.4565 41.4487ZM59.5815 56.855L58.6433 56.5087L58.641 56.5151L59.5815 56.855ZM56.519 61.4487L57.1986 62.1823L57.2043 62.1769L56.519 61.4487ZM50.9252 64.5737L51.2363 65.5241L51.2415 65.5224L50.9252 64.5737ZM36.9252 65.6987V64.6987H35.9252V65.6987H36.9252ZM36.9252 83.6675V84.6675H37.9252V83.6675H36.9252ZM31.6127 83.6675H30.6127V84.6675H31.6127V83.6675ZM31.6127 37.98V36.98H30.6127V37.98H31.6127ZM36.9252 42.5112V41.5112H35.9252V42.5112H36.9252ZM36.9252 61.1362H35.9252V62.1362H36.9252V61.1362ZM49.1752 60.1987L48.8712 59.2461L48.8682 59.247L49.1752 60.1987ZM53.5815 57.1675L54.4002 57.7418L54.4041 57.7361L53.5815 57.1675ZM52.144 44.7612L51.5318 45.552L51.5372 45.5561L52.144 44.7612ZM43.5502 38.98C49.3527 38.98 53.3658 40.1247 55.8071 42.2092L57.1058 40.6882C54.1305 38.1478 49.5394 36.98 43.5502 36.98V38.98ZM55.8134 42.2146C58.27 44.2773 59.5502 47.2611 59.5502 51.3237H61.5502C61.5502 46.803 60.1013 43.2035 57.0995 40.6829L55.8134 42.2146ZM59.5502 51.3237C59.5502 53.1477 59.2467 54.8739 58.6433 56.5088L60.5196 57.2012C61.2079 55.3361 61.5502 53.3748 61.5502 51.3237H59.5502ZM58.641 56.5151C58.0725 58.088 57.1428 59.4884 55.8336 60.7205L57.2043 62.1769C58.7285 60.7424 59.8405 59.0803 60.5219 57.1949L58.641 56.5151ZM55.8394 60.7152C54.5507 61.9091 52.8207 62.8878 50.609 63.625L51.2415 65.5224C53.6548 64.718 55.6539 63.6134 57.1986 62.1823L55.8394 60.7152ZM50.6142 63.6233C48.4531 64.3306 45.7527 64.6987 42.4877 64.6987V66.6987C45.8894 66.6987 48.814 66.3169 51.2363 65.5241L50.6142 63.6233ZM42.4877 64.6987H36.9252V66.6987H42.4877V64.6987ZM35.9252 65.6987V83.6675H37.9252V65.6987H35.9252ZM36.9252 82.6675H31.6127V84.6675H36.9252V82.6675ZM32.6127 83.6675V37.98H30.6127V83.6675H32.6127ZM31.6127 38.98H43.5502V36.98H31.6127V38.98ZM43.0502 41.5112H36.9252V43.5112H43.0502V41.5112ZM35.9252 42.5112V61.1362H37.9252V42.5112H35.9252ZM36.9252 62.1362H41.894V60.1362H36.9252V62.1362ZM41.894 62.1362C44.8738 62.1362 47.4128 61.818 49.4822 61.1504L48.8682 59.247C47.0627 59.8295 44.7475 60.1362 41.894 60.1362V62.1362ZM49.4793 61.1514C51.6018 60.474 53.2712 59.3511 54.4001 57.7418L52.7628 56.5932C51.9334 57.7755 50.6653 58.6735 48.8712 59.2461L49.4793 61.1514ZM54.4041 57.7361C55.5333 56.1024 56.0502 54.0084 56.0502 51.5425H54.0502C54.0502 53.7432 53.588 55.3992 52.7589 56.5989L54.4041 57.7361ZM56.0502 51.5425C56.0502 48.2745 54.9969 45.6812 52.7508 43.9664L51.5372 45.5561C53.166 46.7996 54.0502 48.7271 54.0502 51.5425H56.0502ZM52.7562 43.9705C50.5591 42.2695 47.2591 41.5112 43.0502 41.5112V43.5112C47.0914 43.5112 49.8539 44.2529 51.5318 45.552L52.7562 43.9705ZM87.9115 79.8237L87.1061 79.2309L87.1047 79.2329L87.9115 79.8237ZM83.224 83.1675L82.8792 82.2288L82.876 82.23L83.224 83.1675ZM65.1615 82.1362H64.1615V82.7413L64.6975 83.0221L65.1615 82.1362ZM65.1615 77.355L65.6033 76.4579L64.1615 75.7477V77.355H65.1615ZM83.724 72.2612L82.9103 72.8425L82.9197 72.8557L82.9296 72.8687L83.724 72.2612ZM81.0677 70.1675L80.5858 71.0438L80.5971 71.0498L81.0677 70.1675ZM75.8802 67.9175L75.5242 68.852L75.5349 68.856L75.8802 67.9175ZM70.1927 65.4487L69.727 66.3336L69.7339 66.3373L69.7409 66.3408L70.1927 65.4487ZM66.5052 62.4175L65.6934 63.0014L65.7002 63.0107L66.5052 62.4175ZM68.724 51.1362L69.2752 51.9706L69.277 51.9694L68.724 51.1362ZM83.7552 49.4175L83.5287 50.3916L83.5419 50.3945L83.7552 49.4175ZM88.8177 51.0425L89.7394 51.4305L90.1213 50.5235L89.2205 50.1272L88.8177 51.0425ZM87.0677 55.1987L86.6754 56.1186L87.5995 56.5127L87.9894 55.5868L87.0677 55.1987ZM72.099 54.23L71.5764 53.3774L71.5702 53.3812L72.099 54.23ZM71.0677 60.105L70.3052 60.752L70.3108 60.7586L70.3166 60.7651L71.0677 60.105ZM79.1302 64.1675L78.7761 65.1027L78.7841 65.1057L79.1302 64.1675ZM84.6927 66.6362L84.213 67.5137L84.2221 67.5186L84.6927 66.6362ZM88.2865 69.6987L87.4633 70.2665L87.4689 70.2746L87.4747 70.2827L88.2865 69.6987ZM88.5677 74.2925C88.5677 76.3051 88.0628 77.9313 87.1061 79.2309L88.7168 80.4165C89.9685 78.7162 90.5677 76.6549 90.5677 74.2925H88.5677ZM87.1047 79.2329C86.158 80.5255 84.771 81.5338 82.8792 82.2288L83.5688 84.1062C85.7603 83.3011 87.4983 82.0803 88.7182 80.4146L87.1047 79.2329ZM82.876 82.23C80.9947 82.9282 78.702 83.2925 75.974 83.2925V85.2925C78.871 85.2925 81.4116 84.9068 83.5719 84.105L82.876 82.23ZM75.974 83.2925C73.6265 83.2925 71.6272 83.1084 69.9648 82.7522L69.5457 84.7078C71.3832 85.1015 73.5298 85.2925 75.974 85.2925V83.2925ZM69.9648 82.7522C68.2856 82.3924 66.8431 81.8882 65.6255 81.2504L64.6975 83.0221C66.1048 83.7593 67.7248 84.3176 69.5457 84.7078L69.9648 82.7522ZM66.1615 82.1362V77.355H64.1615V82.1362H66.1615ZM64.7196 78.2521C66.1806 78.9716 67.9046 79.616 69.8827 80.1903L70.4403 78.2696C68.5434 77.7189 66.934 77.1133 65.6033 76.4579L64.7196 78.2521ZM69.8827 80.1903C71.9109 80.7792 73.984 81.0737 76.099 81.0737V79.0737C74.1723 79.0737 72.287 78.8058 70.4403 78.2696L69.8827 80.1903ZM76.099 81.0737C79.1198 81.0737 81.5272 80.5931 83.1201 79.4482L81.9528 77.8242C80.8791 78.596 78.9948 79.0737 76.099 79.0737V81.0737ZM83.1201 79.4482C84.7156 78.3015 85.5365 76.6968 85.5365 74.73H83.5365C83.5365 76.0548 83.0241 77.0543 81.9528 77.8242L83.1201 79.4482ZM85.5365 74.73C85.5365 73.585 85.2005 72.5459 84.5183 71.6538L82.9296 72.8687C83.3308 73.3932 83.5365 74 83.5365 74.73H85.5365ZM84.5377 71.68C83.89 70.7732 82.8535 69.9866 81.5383 69.2851L80.5971 71.0498C81.7819 71.6817 82.5163 72.2909 82.9103 72.8425L84.5377 71.68ZM81.5497 69.2913C80.2368 68.5692 78.4549 67.7992 76.2255 66.979L75.5349 68.856C77.7222 69.6607 79.3987 70.3908 80.5858 71.0437L81.5497 69.2913ZM76.2362 66.983C74.0723 66.1586 72.2099 65.3495 70.6446 64.5566L69.7409 66.3408C71.3839 67.173 73.3132 68.0097 75.5242 68.852L76.2362 66.983ZM70.6585 64.5638C69.1808 63.7861 68.0786 62.867 67.3103 61.8243L65.7002 63.0107C66.6819 64.343 68.038 65.4447 69.727 66.3336L70.6585 64.5638ZM67.317 61.8336C66.617 60.8603 66.224 59.5407 66.224 57.7925H64.224C64.224 59.836 64.6851 61.5996 65.6934 63.0014L67.317 61.8336ZM66.224 57.7925C66.224 55.2182 67.2338 53.3194 69.2752 51.9706L68.1727 50.3019C65.5475 52.0364 64.224 54.5751 64.224 57.7925H66.224ZM69.277 51.9694C71.4191 50.5476 74.2912 49.7925 77.974 49.7925V47.7925C74.0318 47.7925 70.7372 48.5998 68.171 50.303L69.277 51.9694ZM77.974 49.7925C79.9693 49.7925 81.8196 49.994 83.5287 50.3915L83.9817 48.4435C82.1075 48.0076 80.1037 47.7925 77.974 47.7925V49.7925ZM83.5419 50.3945C85.2949 50.7773 86.9184 51.2993 88.415 51.9578L89.2205 50.1272C87.5921 49.4107 85.8406 48.8493 83.9686 48.4405L83.5419 50.3945ZM87.8961 50.6544L86.1461 54.8107L87.9894 55.5868L89.7394 51.4305L87.8961 50.6544ZM87.46 54.2789C85.9943 53.6538 84.4365 53.1278 82.7879 52.6996L82.2851 54.6354C83.8448 55.0405 85.3078 55.5353 86.6754 56.1186L87.46 54.2789ZM82.7879 52.6996C81.1012 52.2615 79.3812 52.0425 77.6302 52.0425V54.0425C79.2126 54.0425 80.7635 54.2401 82.2851 54.6354L82.7879 52.6996ZM77.6302 52.0425C75.1477 52.0425 73.0918 52.4486 71.5764 53.3774L72.6215 55.0826C73.6895 54.428 75.3211 54.0425 77.6302 54.0425V52.0425ZM71.5702 53.3812C70.0375 54.336 69.1927 55.7244 69.1927 57.48H71.1927C71.1927 56.4856 71.6188 55.7073 72.6277 55.0788L71.5702 53.3812ZM69.1927 57.48C69.1927 58.735 69.5421 59.8525 70.3052 60.752L71.8302 59.458C71.4267 58.9824 71.1927 58.3499 71.1927 57.48H69.1927ZM70.3166 60.7651C71.0512 61.601 72.1505 62.3183 73.5246 62.9509L74.3609 61.1341C73.11 60.5583 72.2926 59.9839 71.8189 59.4449L70.3166 60.7651ZM73.5246 62.9509C74.8666 63.5686 76.6196 64.2861 78.7761 65.1027L79.4843 63.2323C77.3492 62.4238 75.6439 61.7247 74.3609 61.1341L73.5246 62.9509ZM78.7841 65.1057C80.8962 65.8849 82.7036 66.6885 84.2131 67.5137L85.1724 65.7588C83.5569 64.8756 81.6559 64.0334 79.4764 63.2293L78.7841 65.1057ZM84.2221 67.5186C85.6725 68.2921 86.7375 69.2142 87.4633 70.2665L89.1097 69.131C88.1688 67.7666 86.838 66.647 85.1633 65.7539L84.2221 67.5186ZM87.4747 70.2827C88.176 71.2576 88.5677 72.5679 88.5677 74.2925H90.5677C90.5677 72.2671 90.1053 70.5149 89.0983 69.1148L87.4747 70.2827Z" fill="white"/>
</svg>
