<svg width="228" height="146" viewBox="0 0 228 146" fill="none" xmlns="http://www.w3.org/2000/svg">
<path d="M37.4647 37.017H38.4647V36.9595L38.4582 36.9024L37.4647 37.017ZM35.3647 31.767L34.7315 32.5409L34.7315 32.541L35.3647 31.767ZM21.8647 30.417L20.8946 30.1745L20.584 31.417H21.8647V30.417ZM23.0647 25.617V24.617H22.284L22.0946 25.3745L23.0647 25.617ZM67.4648 25.617L68.4349 25.8595L68.7455 24.617H67.4648V25.617ZM66.2647 30.417V31.417H67.0455L67.2349 30.6595L66.2647 30.417ZM51.5648 32.217L50.701 31.7131L50.6937 31.7255L50.6869 31.7381L51.5648 32.217ZM50.6647 110.667H49.6647V114.158L51.5131 111.196L50.6647 110.667ZM87.2648 52.017L86.43 51.4664L86.423 51.4769L86.4164 51.4876L87.2648 52.017ZM90.1148 31.917L89.4746 32.6852L89.4943 32.7016L89.5148 32.717L90.1148 31.917ZM77.0647 30.417L76.0946 30.1745L75.784 31.417H77.0647V30.417ZM78.2648 25.617V24.617H77.484L77.2946 25.3745L78.2648 25.617ZM122.665 25.617L123.635 25.8595L123.946 24.617H122.665V25.617ZM121.465 30.417V31.417H122.246L122.435 30.6595L121.465 30.417ZM107.065 32.967L106.293 32.3313L106.281 32.3452L106.27 32.3595L107.065 32.967ZM105.115 109.017H104.115V112.459L105.959 109.553L105.115 109.017ZM140.815 52.767L139.974 52.2255L139.97 52.2311L140.815 52.767ZM144.715 32.667L143.934 33.2917L143.944 33.3049L143.955 33.3178L144.715 32.667ZM132.265 30.417L131.295 30.1745L130.984 31.417H132.265V30.417ZM133.465 25.617V24.617H132.684L132.495 25.3745L133.465 25.617ZM177.865 25.617L178.835 25.8595L179.146 24.617H177.865V25.617ZM176.665 30.417V31.417H177.446L177.635 30.6595L176.665 30.417ZM161.215 33.567L160.572 32.8013L160.564 32.8078L160.556 32.8144L161.215 33.567ZM154.615 41.667L155.461 42.2005L155.465 42.1929L155.47 42.1853L154.615 41.667ZM95.6648 135.117V136.117H96.2163L96.5105 135.651L95.6648 135.117ZM91.9148 135.117H90.9148V136.117H91.9148V135.117ZM91.9148 54.867H92.9148V51.4119L91.0693 54.3329L91.9148 54.867ZM41.2147 135.117V136.117H41.7658L42.0602 135.651L41.2147 135.117ZM37.4647 135.117H36.4647V136.117H37.4647V135.117ZM38.4582 36.9024C38.1509 34.2396 37.4123 32.1502 35.998 30.993L34.7315 32.541C35.5172 33.1838 36.1786 34.5944 36.4713 37.1316L38.4582 36.9024ZM35.998 30.993C34.6445 29.8856 32.7256 29.417 30.4147 29.417V31.417C32.5039 31.417 33.885 31.8484 34.7315 32.5409L35.998 30.993ZM30.4147 29.417H21.8647V31.417H30.4147V29.417ZM22.8349 30.6595L24.0349 25.8595L22.0946 25.3745L20.8946 30.1745L22.8349 30.6595ZM23.0647 26.617H67.4648V24.617H23.0647V26.617ZM66.4946 25.3745L65.2946 30.1745L67.2349 30.6595L68.4349 25.8595L66.4946 25.3745ZM66.2647 29.417H56.0648V31.417H66.2647V29.417ZM56.0648 29.417C53.6515 29.417 51.6756 30.0423 50.701 31.7131L52.4285 32.7209C52.8539 31.9916 53.878 31.417 56.0648 31.417V29.417ZM50.6869 31.7381C49.9624 33.0663 49.6647 35.0267 49.6647 37.467H51.6647C51.6647 35.1073 51.9671 33.5677 52.4426 32.6958L50.6869 31.7381ZM49.6647 37.467V110.667H51.6647V37.467H49.6647ZM51.5131 111.196L88.1131 52.5464L86.4164 51.4876L49.8164 110.138L51.5131 111.196ZM88.0995 52.5676C91.3002 47.7149 92.9148 42.5252 92.9148 37.017H90.9148C90.9148 42.1088 89.4293 46.9191 86.43 51.4664L88.0995 52.5676ZM92.9148 37.017C92.9148 34.4102 92.2961 32.303 90.7147 31.117L89.5148 32.717C90.3334 33.331 90.9148 34.6238 90.9148 37.017H92.9148ZM90.7549 31.1488C89.3072 29.9423 87.2915 29.417 84.8647 29.417V31.417C87.038 31.417 88.5223 31.8916 89.4746 32.6852L90.7549 31.1488ZM84.8647 29.417H77.0647V31.417H84.8647V29.417ZM78.0349 30.6595L79.2349 25.8595L77.2946 25.3745L76.0946 30.1745L78.0349 30.6595ZM78.2648 26.617H122.665V24.617H78.2648V26.617ZM121.695 25.3745L120.495 30.1745L122.435 30.6595L123.635 25.8595L121.695 25.3745ZM121.465 29.417H112.915V31.417H121.465V29.417ZM112.915 29.417C110.161 29.417 107.91 30.3677 106.293 32.3313L107.837 33.6027C109.02 32.1663 110.668 31.417 112.915 31.417V29.417ZM106.27 32.3595C104.797 34.2867 104.115 36.8246 104.115 39.867H106.115C106.115 37.1094 106.733 35.0473 107.859 33.5744L106.27 32.3595ZM104.115 39.867V109.017H106.115V39.867H104.115ZM105.959 109.553L141.659 53.3028L139.97 52.2311L104.27 108.481L105.959 109.553ZM141.655 53.3085C145.509 47.3258 147.515 41.8851 147.515 37.017H145.515C145.515 41.3488 143.721 46.4081 139.974 52.2255L141.655 53.3085ZM147.515 37.017C147.515 35.227 146.792 33.5543 145.474 32.0162L143.955 33.3178C145.037 34.5797 145.515 35.807 145.515 37.017H147.515ZM145.496 32.0423C144.148 30.3579 142.48 29.417 140.515 29.417V31.417C141.749 31.417 142.881 31.976 143.934 33.2917L145.496 32.0423ZM140.515 29.417H132.265V31.417H140.515V29.417ZM133.235 30.6595L134.435 25.8595L132.495 25.3745L131.295 30.1745L133.235 30.6595ZM133.465 26.617H177.865V24.617H133.465V26.617ZM176.895 25.3745L175.695 30.1745L177.635 30.6595L178.835 25.8595L176.895 25.3745ZM176.665 29.417H170.065V31.417H176.665V29.417ZM170.065 29.417C166.44 29.417 163.26 30.5433 160.572 32.8013L161.858 34.3327C164.17 32.3907 166.889 31.417 170.065 31.417V29.417ZM160.556 32.8144C158.065 34.9944 155.802 37.7787 153.76 41.1487L155.47 42.1853C157.428 38.9552 159.565 36.3396 161.873 34.3196L160.556 32.8144ZM153.769 41.1335L94.819 134.583L96.5105 135.651L155.461 42.2005L153.769 41.1335ZM95.6648 134.117H91.9148V136.117H95.6648V134.117ZM92.9148 135.117V54.867H90.9148V135.117H92.9148ZM91.0693 54.3329L40.3693 134.583L42.0602 135.651L92.7602 55.4011L91.0693 54.3329ZM41.2147 134.117H37.4647V136.117H41.2147V134.117ZM38.4647 135.117V37.017H36.4647V135.117H38.4647Z" fill="white"/>
<rect x="9.27002" y="8.57056" width="217.91" height="136.852" stroke="white"/>
<line x1="191.727" y1="8.5376" x2="191.727" y2="145.923" stroke="white"/>
<path d="M208.273 45.8026C207.377 45.8026 206.577 45.52 205.873 44.9546C205.169 44.3893 204.62 43.648 204.225 42.7306C203.831 41.8026 203.633 40.832 203.633 39.8186C203.633 38.8053 203.831 37.84 204.225 36.9226C204.62 35.9946 205.169 35.248 205.873 34.6826C206.577 34.1173 207.377 33.8346 208.273 33.8346C209.169 33.8346 209.969 34.1173 210.673 34.6826C211.377 35.248 211.927 35.9946 212.321 36.9226C212.716 37.84 212.913 38.8053 212.913 39.8186C212.913 40.832 212.716 41.8026 212.321 42.7306C211.927 43.648 211.377 44.3893 210.673 44.9546C209.969 45.52 209.169 45.8026 208.273 45.8026ZM208.273 45.2906C209.319 45.2906 210.071 44.816 210.529 43.8666C210.988 42.9066 211.217 41.5573 211.217 39.8186C211.217 38.0693 210.988 36.72 210.529 35.7706C210.071 34.8213 209.319 34.3466 208.273 34.3466C207.228 34.3466 206.476 34.8213 206.017 35.7706C205.559 36.72 205.329 38.0693 205.329 39.8186C205.329 41.5573 205.559 42.9066 206.017 43.8666C206.476 44.816 207.228 45.2906 208.273 45.2906ZM211.668 79.7066C211.316 79.7066 211.018 79.648 210.772 79.5306C210.538 79.4133 210.351 79.2213 210.212 78.9546C209.924 78.4 209.77 77.456 209.748 76.1226C209.738 75.408 209.61 74.816 209.364 74.3466C209.119 73.8666 208.724 73.6266 208.18 73.6266H206.436V78.5706C206.436 78.72 206.468 78.832 206.532 78.9066C206.596 78.9706 206.708 79.0026 206.868 79.0026H208.292V79.5146H203.38V79.0026H204.532C204.82 79.0026 204.964 78.8586 204.964 78.5706V69.0666C204.964 68.9173 204.927 68.8106 204.852 68.7466C204.788 68.672 204.682 68.6346 204.532 68.6346H203.38V68.1226H208.628C209.663 68.1226 210.511 68.32 211.172 68.7146C211.834 69.1093 212.164 69.7653 212.164 70.6826C212.164 71.472 211.866 72.1066 211.268 72.5866C210.682 73.0666 209.972 73.3493 209.14 73.4346V73.4986C209.748 73.616 210.244 73.8986 210.628 74.3466C211.023 74.784 211.284 75.536 211.412 76.6026C211.487 77.2106 211.551 77.6533 211.604 77.9306C211.668 78.208 211.743 78.4053 211.828 78.5226C211.924 78.6293 212.063 78.6826 212.244 78.6826C212.703 78.6826 212.932 78.1066 212.932 76.9546H213.332C213.332 77.648 213.231 78.2826 213.028 78.8586C212.826 79.424 212.372 79.7066 211.668 79.7066ZM207.988 73.1146C208.884 73.1146 209.519 72.9013 209.892 72.4746C210.276 72.0373 210.468 71.44 210.468 70.6826C210.468 70.032 210.292 69.5306 209.94 69.1786C209.599 68.816 209.13 68.6346 208.532 68.6346H206.868C206.719 68.6346 206.607 68.672 206.532 68.7466C206.468 68.8106 206.436 68.9173 206.436 69.0666V73.1146H207.988ZM203.06 113.003H204.212C204.5 113.003 204.644 112.859 204.644 112.571V103.067C204.644 102.917 204.607 102.811 204.532 102.747C204.468 102.672 204.361 102.635 204.212 102.635H203.06V102.123H207.62V102.635H206.548C206.399 102.635 206.287 102.672 206.212 102.747C206.148 102.811 206.116 102.917 206.116 103.067V108.027L209.796 104.267C209.935 104.117 210.036 103.968 210.1 103.819C210.164 103.669 210.196 103.499 210.196 103.307C210.196 103.115 210.127 102.955 209.988 102.827C209.849 102.699 209.679 102.635 209.476 102.635H209.044V102.123H213.268V102.635H212.628C212.276 102.635 211.796 102.949 211.188 103.579L208.5 106.299L211.764 112.299C211.903 112.565 212.057 112.752 212.228 112.859C212.399 112.955 212.644 113.003 212.964 113.003H213.492V113.515H208.66V113.003H209.732C209.849 113.003 209.951 112.971 210.036 112.907C210.121 112.832 210.164 112.752 210.164 112.667C210.164 112.603 210.153 112.533 210.132 112.459C210.111 112.373 210.084 112.309 210.052 112.267L207.444 107.371L206.116 108.715V112.571C206.116 112.859 206.26 113.003 206.548 113.003H207.62V113.515H203.06V113.003Z" fill="white"/>
</svg>
