<svg width="663" height="165" viewBox="0 0 663 165" fill="none" xmlns="http://www.w3.org/2000/svg">
<path d="M27.4273 20.741C26.1073 17.0743 24.4206 14.581 22.3673 13.261C20.3139 11.7943 17.6739 11.061 14.4473 11.061H0.807266V4.02101H65.9273V11.061H55.3673C53.3139 11.061 51.5539 11.6477 50.0873 12.821C48.6206 13.8477 47.8873 15.0943 47.8873 16.561C47.8873 17.7343 48.1806 19.3477 48.7673 21.401L78.0273 122.601L104.647 26.241L102.447 19.201C101.421 16.2677 99.3673 14.2143 96.2873 13.041C93.2073 11.721 90.0539 11.061 86.8273 11.061H80.4473V4.02101H145.567V11.061H136.987C129.507 11.061 125.767 14.8743 125.767 22.501C125.767 24.5543 126.207 26.8277 127.087 29.321L154.807 124.581L182.087 37.901C183.114 33.941 183.774 30.9343 184.067 28.881C184.507 26.681 184.727 24.041 184.727 20.961C184.727 18.1743 183.407 15.8277 180.767 13.921C178.274 12.0143 174.754 11.061 170.207 11.061H162.727V4.02101H222.127V11.061H212.667C207.681 11.061 203.794 12.5277 201.007 15.461C198.367 18.3943 196.314 22.281 194.847 27.121L151.067 164.621H145.567L109.487 42.301L74.7273 164.621H69.2273L27.4273 20.741ZM285.907 164.621C273.587 164.621 262.587 160.734 252.907 152.961C243.227 145.188 235.673 134.994 230.247 122.381C224.82 109.621 222.107 96.2743 222.107 82.341C222.107 68.4077 224.82 55.1343 230.247 42.521C235.673 29.761 243.227 19.4943 252.907 11.721C262.587 3.94767 273.587 0.0610065 285.907 0.0610065C298.227 0.0610065 309.227 3.94767 318.907 11.721C328.587 19.4943 336.14 29.761 341.567 42.521C346.993 55.1343 349.707 68.4077 349.707 82.341C349.707 96.2743 346.993 109.621 341.567 122.381C336.14 134.994 328.587 145.188 318.907 152.961C309.227 160.734 298.227 164.621 285.907 164.621ZM285.907 157.581C300.28 157.581 310.62 151.054 316.927 138.001C323.233 124.801 326.387 106.248 326.387 82.341C326.387 58.2877 323.233 39.7343 316.927 26.681C310.62 13.6277 300.28 7.10101 285.907 7.10101C271.533 7.10101 261.193 13.6277 254.887 26.681C248.58 39.7343 245.427 58.2877 245.427 82.341C245.427 106.248 248.58 124.801 254.887 138.001C261.193 151.054 271.533 157.581 285.907 157.581ZM481.75 163.301C476.91 163.301 472.803 162.494 469.43 160.881C466.203 159.268 463.636 156.628 461.73 152.961C457.77 145.334 455.643 132.354 455.35 114.021C455.203 104.194 453.443 96.0543 450.07 89.601C446.696 83.001 441.27 79.701 433.79 79.701H409.81V147.681C409.81 149.734 410.25 151.274 411.13 152.301C412.01 153.181 413.55 153.621 415.75 153.621H435.33V160.661H367.79V153.621H383.63C387.59 153.621 389.57 151.641 389.57 147.681V17.001C389.57 14.9477 389.056 13.481 388.03 12.601C387.15 11.5743 385.683 11.061 383.63 11.061H367.79V4.02101H439.95C454.176 4.02101 465.836 6.73434 474.93 12.161C484.023 17.5877 488.57 26.6077 488.57 39.221C488.57 50.0743 484.463 58.801 476.25 65.401C468.183 72.001 458.43 75.8877 446.99 77.061V77.941C455.35 79.5543 462.17 83.441 467.45 89.601C472.876 95.6143 476.47 105.954 478.23 120.621C479.256 128.981 480.136 135.068 480.87 138.881C481.75 142.694 482.776 145.408 483.95 147.021C485.27 148.488 487.176 149.221 489.67 149.221C495.976 149.221 499.13 141.301 499.13 125.461H504.63C504.63 134.994 503.236 143.721 500.45 151.641C497.663 159.414 491.43 163.301 481.75 163.301ZM431.15 72.661C443.47 72.661 452.196 69.7277 457.33 63.861C462.61 57.8477 465.25 49.6343 465.25 39.221C465.25 30.2743 462.83 23.381 457.99 18.541C453.296 13.5543 446.843 11.061 438.63 11.061H415.75C413.696 11.061 412.156 11.5743 411.13 12.601C410.25 13.481 409.81 14.9477 409.81 17.001V72.661H431.15ZM518.67 153.621H534.51C538.47 153.621 540.45 151.641 540.45 147.681V17.001C540.45 14.9477 539.937 13.481 538.91 12.601C538.03 11.5743 536.563 11.061 534.51 11.061H518.67V4.02101H581.37V11.061H566.63C564.577 11.061 563.037 11.5743 562.01 12.601C561.13 13.481 560.69 14.9477 560.69 17.001V85.201L611.29 33.501C613.197 31.4477 614.59 29.3943 615.47 27.341C616.35 25.2877 616.79 22.941 616.79 20.301C616.79 17.661 615.837 15.461 613.93 13.701C612.023 11.941 609.677 11.061 606.89 11.061H600.95V4.02101H659.03V11.061H650.23C645.39 11.061 638.79 15.3877 630.43 24.041L593.47 61.441L638.35 143.941C640.257 147.608 642.383 150.174 644.73 151.641C647.077 152.961 650.45 153.621 654.85 153.621H662.11V160.661H595.67V153.621H610.41C612.023 153.621 613.417 153.181 614.59 152.301C615.763 151.274 616.35 150.174 616.35 149.001C616.35 148.121 616.203 147.168 615.91 146.141C615.617 144.968 615.25 144.088 614.81 143.501L578.95 76.181L560.69 94.661V147.681C560.69 151.641 562.67 153.621 566.63 153.621H581.37V160.661H518.67V153.621Z" fill="white" fill-opacity="0.8"/>
</svg>
