<svg width="289" height="73" viewBox="0 0 289 73" fill="none" xmlns="http://www.w3.org/2000/svg">
<path d="M11.764 9.53772C11.188 7.93772 10.452 6.84972 9.556 6.27372C8.66 5.63372 7.508 5.31372 6.1 5.31372H0.148V2.24172H28.564V5.31372H23.956C23.06 5.31372 22.292 5.56972 21.652 6.08171C21.012 6.52972 20.692 7.07372 20.692 7.71372C20.692 8.22572 20.82 8.92972 21.076 9.82572L33.844 53.9857L45.46 11.9377L44.5 8.86572C44.052 7.58572 43.156 6.68972 41.812 6.17772C40.468 5.60172 39.092 5.31372 37.684 5.31372H34.9V2.24172H63.316V5.31372H59.572C56.308 5.31372 54.676 6.97772 54.676 10.3057C54.676 11.2017 54.868 12.1937 55.252 13.2817L67.348 54.8497L79.252 17.0257C79.7 15.2977 79.988 13.9857 80.116 13.0897C80.308 12.1297 80.404 10.9777 80.404 9.63371C80.404 8.41772 79.828 7.39371 78.676 6.56171C77.588 5.72972 76.052 5.31372 74.068 5.31372H70.804V2.24172H96.724V5.31372H92.596C90.42 5.31372 88.724 5.95372 87.508 7.23372C86.356 8.51372 85.46 10.2097 84.82 12.3217L65.716 72.3217H63.316L47.572 18.9457L32.404 72.3217H30.004L11.764 9.53772ZM124.555 72.3217C119.179 72.3217 114.379 70.6257 110.155 67.2337C105.931 63.8417 102.635 59.3937 100.267 53.8897C97.899 48.3217 96.715 42.4977 96.715 36.4177C96.715 30.3377 97.899 24.5457 100.267 19.0417C102.635 13.4737 105.931 8.99372 110.155 5.60172C114.379 2.20972 119.179 0.513718 124.555 0.513718C129.931 0.513718 134.731 2.20972 138.955 5.60172C143.179 8.99372 146.475 13.4737 148.843 19.0417C151.211 24.5457 152.395 30.3377 152.395 36.4177C152.395 42.4977 151.211 48.3217 148.843 53.8897C146.475 59.3937 143.179 63.8417 138.955 67.2337C134.731 70.6257 129.931 72.3217 124.555 72.3217ZM124.555 69.2497C130.827 69.2497 135.339 66.4017 138.091 60.7057C140.843 54.9457 142.219 46.8497 142.219 36.4177C142.219 25.9217 140.843 17.8257 138.091 12.1297C135.339 6.43372 130.827 3.58572 124.555 3.58572C118.283 3.58572 113.771 6.43372 111.019 12.1297C108.267 17.8257 106.891 25.9217 106.891 36.4177C106.891 46.8497 108.267 54.9457 111.019 60.7057C113.771 66.4017 118.283 69.2497 124.555 69.2497ZM210.014 71.7457C207.902 71.7457 206.11 71.3937 204.638 70.6897C203.23 69.9857 202.11 68.8337 201.278 67.2337C199.55 63.9057 198.622 58.2417 198.494 50.2417C198.43 45.9537 197.662 42.4017 196.19 39.5857C194.718 36.7057 192.35 35.2657 189.086 35.2657H178.622V64.9297C178.622 65.8257 178.814 66.4977 179.198 66.9457C179.582 67.3297 180.254 67.5217 181.214 67.5217H189.758V70.5937H160.286V67.5217H167.198C168.926 67.5217 169.79 66.6577 169.79 64.9297V7.90571C169.79 7.00971 169.566 6.36971 169.118 5.98572C168.734 5.53772 168.094 5.31372 167.198 5.31372H160.286V2.24172H191.774C197.982 2.24172 203.07 3.42572 207.038 5.79372C211.006 8.16172 212.99 12.0977 212.99 17.6017C212.99 22.3377 211.198 26.1457 207.614 29.0257C204.094 31.9057 199.838 33.6017 194.846 34.1137V34.4977C198.494 35.2017 201.47 36.8977 203.774 39.5857C206.142 42.2097 207.71 46.7217 208.478 53.1217C208.926 56.7697 209.31 59.4257 209.63 61.0897C210.014 62.7537 210.462 63.9377 210.974 64.6417C211.55 65.2817 212.382 65.6017 213.47 65.6017C216.222 65.6017 217.598 62.1457 217.598 55.2337H219.998C219.998 59.3937 219.39 63.2017 218.174 66.6577C216.958 70.0497 214.238 71.7457 210.014 71.7457ZM187.934 32.1937C193.31 32.1937 197.118 30.9137 199.358 28.3537C201.662 25.7297 202.814 22.1457 202.814 17.6017C202.814 13.6977 201.758 10.6897 199.646 8.57772C197.598 6.40172 194.782 5.31372 191.198 5.31372H181.214C180.318 5.31372 179.646 5.53772 179.198 5.98572C178.814 6.36971 178.622 7.00971 178.622 7.90571V32.1937H187.934ZM226.125 67.5217H233.037C234.765 67.5217 235.629 66.6577 235.629 64.9297V7.90571C235.629 7.00971 235.405 6.36971 234.957 5.98572C234.573 5.53772 233.933 5.31372 233.037 5.31372H226.125V2.24172H253.485V5.31372H247.053C246.157 5.31372 245.485 5.53772 245.037 5.98572C244.653 6.36971 244.461 7.00971 244.461 7.90571V37.6657L266.541 15.1057C267.373 14.2097 267.981 13.3137 268.365 12.4177C268.749 11.5217 268.941 10.4977 268.941 9.34572C268.941 8.19372 268.525 7.23372 267.693 6.46572C266.861 5.69772 265.837 5.31372 264.621 5.31372H262.029V2.24172H287.373V5.31372H283.533C281.421 5.31372 278.541 7.20172 274.893 10.9777L258.765 27.2977L278.349 63.2977C279.181 64.8977 280.109 66.0177 281.133 66.6577C282.157 67.2337 283.629 67.5217 285.549 67.5217H288.717V70.5937H259.725V67.5217H266.157C266.861 67.5217 267.469 67.3297 267.981 66.9457C268.493 66.4977 268.749 66.0177 268.749 65.5057C268.749 65.1217 268.685 64.7057 268.557 64.2577C268.429 63.7457 268.269 63.3617 268.077 63.1057L252.429 33.7297L244.461 41.7937V64.9297C244.461 66.6577 245.325 67.5217 247.053 67.5217H253.485V70.5937H226.125V67.5217Z" fill="white" fill-opacity="0.8"/>
</svg>
