<svg width="386" height="97" viewBox="0 0 386 97" fill="none" xmlns="http://www.w3.org/2000/svg">
<path d="M16.2933 12.7695C15.5253 10.6362 14.544 9.18555 13.3493 8.41755C12.1546 7.56422 10.6186 7.13755 8.74128 7.13755H0.805285V3.04155H38.6933V7.13755H32.5493C31.3546 7.13755 30.3306 7.47888 29.4773 8.16154C28.624 8.75888 28.1973 9.48421 28.1973 10.3375C28.1973 11.0202 28.368 11.9589 28.7093 13.1535L45.7333 72.0336L61.2213 15.9696L59.9413 11.8736C59.344 10.1669 58.1493 8.97221 56.3573 8.28955C54.5653 7.52155 52.7306 7.13755 50.8533 7.13755H47.1413V3.04155H85.0293V7.13755H80.0373C75.6853 7.13755 73.5093 9.35622 73.5093 13.7935C73.5093 14.9882 73.7653 16.3109 74.2773 17.7616L90.4053 73.1856L106.277 22.7535C106.875 20.4495 107.259 18.7002 107.429 17.5055C107.685 16.2255 107.813 14.6895 107.813 12.8975C107.813 11.2762 107.045 9.91088 105.509 8.80154C104.059 7.69221 102.011 7.13755 99.3653 7.13755H95.0133V3.04155H129.573V7.13755H124.069C121.168 7.13755 118.907 7.99088 117.285 9.69755C115.749 11.4042 114.555 13.6655 113.701 16.4815L88.2293 96.4816H85.0293L64.0373 25.3135L43.8133 96.4816H40.6133L16.2933 12.7695ZM166.681 96.4816C159.513 96.4816 153.113 94.2202 147.481 89.6976C141.849 85.1749 137.455 79.2442 134.297 71.9056C131.14 64.4816 129.561 56.7162 129.561 48.6096C129.561 40.5029 131.14 32.7802 134.297 25.4416C137.455 18.0176 141.849 12.0442 147.481 7.52155C153.113 2.99888 159.513 0.737549 166.681 0.737549C173.849 0.737549 180.249 2.99888 185.881 7.52155C191.513 12.0442 195.908 18.0176 199.065 25.4416C202.223 32.7802 203.801 40.5029 203.801 48.6096C203.801 56.7162 202.223 64.4816 199.065 71.9056C195.908 79.2442 191.513 85.1749 185.881 89.6976C180.249 94.2202 173.849 96.4816 166.681 96.4816ZM166.681 92.3856C175.044 92.3856 181.06 88.5882 184.729 80.9936C188.399 73.3136 190.233 62.5189 190.233 48.6096C190.233 34.6149 188.399 23.8202 184.729 16.2255C181.06 8.63088 175.044 4.83355 166.681 4.83355C158.319 4.83355 152.303 8.63088 148.633 16.2255C144.964 23.8202 143.129 34.6149 143.129 48.6096C143.129 62.5189 144.964 73.3136 148.633 80.9936C152.303 88.5882 158.319 92.3856 166.681 92.3856ZM280.626 95.7136C277.81 95.7136 275.421 95.2442 273.458 94.3056C271.581 93.3669 270.088 91.8309 268.978 89.6976C266.674 85.2602 265.437 77.7082 265.266 67.0415C265.181 61.3242 264.157 56.5882 262.194 52.8335C260.232 48.9935 257.074 47.0735 252.722 47.0735H238.77V86.6256C238.77 87.8202 239.026 88.7162 239.538 89.3136C240.05 89.8256 240.946 90.0816 242.226 90.0816H253.618V94.1776H214.322V90.0816H223.538C225.842 90.0816 226.994 88.9296 226.994 86.6256V10.5935C226.994 9.39888 226.696 8.54554 226.098 8.03355C225.586 7.43622 224.733 7.13755 223.538 7.13755H214.322V3.04155H256.306C264.584 3.04155 271.368 4.62022 276.658 7.77755C281.949 10.9349 284.594 16.1829 284.594 23.5215C284.594 29.8362 282.205 34.9135 277.426 38.7535C272.733 42.5935 267.058 44.8549 260.402 45.5375V46.0495C265.266 46.9882 269.234 49.2495 272.306 52.8335C275.464 56.3322 277.554 62.3482 278.578 70.8815C279.176 75.7456 279.688 79.2869 280.114 81.5056C280.626 83.7242 281.224 85.3029 281.906 86.2416C282.674 87.0949 283.784 87.5216 285.234 87.5216C288.904 87.5216 290.738 82.9136 290.738 73.6975H293.938C293.938 79.2442 293.128 84.3216 291.506 88.9296C289.885 93.4522 286.258 95.7136 280.626 95.7136ZM251.186 42.9776C258.354 42.9776 263.432 41.2709 266.418 37.8575C269.49 34.3589 271.026 29.5802 271.026 23.5215C271.026 18.3162 269.618 14.3055 266.802 11.4895C264.072 8.58822 260.317 7.13755 255.538 7.13755H242.226C241.032 7.13755 240.136 7.43622 239.538 8.03355C239.026 8.54554 238.77 9.39888 238.77 10.5935V42.9776H251.186ZM302.107 90.0816H311.323C313.627 90.0816 314.779 88.9296 314.779 86.6256V10.5935C314.779 9.39888 314.481 8.54554 313.883 8.03355C313.371 7.43622 312.518 7.13755 311.323 7.13755H302.107V3.04155H338.587V7.13755H330.011C328.817 7.13755 327.921 7.43622 327.323 8.03355C326.811 8.54554 326.555 9.39888 326.555 10.5935V50.2735L355.995 20.1936C357.105 18.9989 357.915 17.8042 358.427 16.6096C358.939 15.4149 359.195 14.0496 359.195 12.5135C359.195 10.9775 358.641 9.69755 357.531 8.67355C356.422 7.64955 355.057 7.13755 353.435 7.13755H349.979V3.04155H383.771V7.13755H378.651C375.835 7.13755 371.995 9.65488 367.131 14.6895L345.627 36.4495L371.739 84.4496C372.849 86.5829 374.086 88.0762 375.451 88.9296C376.817 89.6976 378.779 90.0816 381.339 90.0816H385.563V94.1776H346.907V90.0816H355.483C356.422 90.0816 357.233 89.8256 357.915 89.3136C358.598 88.7162 358.939 88.0762 358.939 87.3936C358.939 86.8816 358.854 86.3269 358.683 85.7296C358.513 85.0469 358.299 84.5349 358.043 84.1936L337.179 45.0256L326.555 55.7775V86.6256C326.555 88.9296 327.707 90.0816 330.011 90.0816H338.587V94.1776H302.107V90.0816Z" fill="white" fill-opacity="0.8"/>
</svg>
